<?xml version="1.0" encoding="utf-8"?>
<!-- Generator: Adobe Illustrator 16.0.0, SVG Export Plug-In . SVG Version: 6.00 Build 0)  -->
<!DOCTYPE svg PUBLIC "-//W3C//DTD SVG 1.1//EN" "http://www.w3.org/Graphics/SVG/1.1/DTD/svg11.dtd">
<svg version="1.1" id="Layer_1" xmlns="http://www.w3.org/2000/svg" xmlns:xlink="http://www.w3.org/1999/xlink" x="0px" y="0px"
	 width="13.912px" height="14px" viewBox="4.826 4.857 13.912 14" enable-background="new 4.826 4.857 13.912 14"
	 xml:space="preserve">
<g>
	<g>
		<path fill="#2F4553" d="M8.618,14.89c0.118,0.117,0.233,0.117,0.351,0.117c0.117,0,0.234,0,0.35-0.117l5.367-5.367
			c0.115-0.116,0.115-0.466,0-0.582c-0.117-0.117-0.467-0.117-0.583,0l-5.366,5.366C8.502,14.423,8.502,14.658,8.618,14.89z
			 M11.185,13.957c0.116,0.583,0,1.283-0.467,1.75l-1.75,1.75c-0.351,0.35-0.934,0.583-1.4,0.583c-0.584,0-1.05-0.233-1.401-0.583
			c-0.816-0.816-0.816-1.983,0-2.799l1.75-1.75c0.351-0.352,0.933-0.583,1.4-0.583c0.234,0,0.35,0,0.583,0.116l0.7-0.699
			c-0.35-0.234-0.816-0.234-1.166-0.234c-0.7,0-1.517,0.234-1.984,0.816l-1.75,1.75c-1.166,1.05-1.166,2.916,0,3.966
			c0.583,0.583,1.283,0.817,1.984,0.817c0.7,0,1.517-0.234,1.983-0.817l1.75-1.749c0.817-0.817,1.05-1.983,0.583-3.033
			L11.185,13.957z M17.95,5.674c-0.582-0.583-1.282-0.816-1.982-0.816c-0.701,0-1.517,0.234-1.982,0.816l-1.75,1.75
			c-0.934,0.933-1.05,2.217-0.583,3.266l0.7-0.7c-0.233-0.7,0-1.4,0.467-1.983l1.749-1.75c0.351-0.351,0.935-0.583,1.4-0.583
			c0.582,0,1.05,0.233,1.4,0.583c0.816,0.816,0.816,1.982,0,2.8l-1.751,1.75c-0.351,0.35-0.933,0.583-1.399,0.583
			c-0.116,0-0.233,0-0.352,0l-0.699,0.7c0.351,0.116,0.699,0.234,1.051,0.234c0.7,0,1.515-0.234,1.982-0.817l1.75-1.75
			C19.001,8.59,19.001,6.84,17.95,5.674z"/>
	</g>
</g>
</svg>
