<?xml version="1.0" encoding="utf-8"?>
<!-- Generator: Adobe Illustrator 21.1.0, SVG Export Plug-In . SVG Version: 6.00 Build 0)  -->
<svg version="1.1"
	 id="svg2" inkscape:version="0.91 r13725" sodipodi:docname="skolkovo.svg" xmlns:cc="http://creativecommons.org/ns#" xmlns:dc="http://purl.org/dc/elements/1.1/" xmlns:inkscape="http://www.inkscape.org/namespaces/inkscape" xmlns:rdf="http://www.w3.org/1999/02/22-rdf-syntax-ns#" xmlns:sodipodi="http://sodipodi.sourceforge.net/DTD/sodipodi-0.dtd" xmlns:svg="http://www.w3.org/2000/svg"
	 xmlns="http://www.w3.org/2000/svg" xmlns:xlink="http://www.w3.org/1999/xlink" x="0px" y="0px" viewBox="0 0 43.4 35.9"
	 style="enable-background:new 0 0 43.4 35.9;" xml:space="preserve">
<style type="text/css">
	.st0{fill:#C0C7CC;}
</style>
<sodipodi:namedview  bordercolor="#666666" borderopacity="1" fit-margin-bottom="0" fit-margin-left="0" fit-margin-right="0" fit-margin-top="0" gridtolerance="10" guidetolerance="10" id="namedview75" inkscape:current-layer="_313602136" inkscape:cx="5.8028331" inkscape:cy="11.397287" inkscape:pageopacity="0" inkscape:pageshadow="2" inkscape:window-height="949" inkscape:window-maximized="0" inkscape:window-width="1848" inkscape:window-x="0" inkscape:window-y="0" inkscape:zoom="11.313709" objecttolerance="10" pagecolor="#ffffff" showgrid="false">
	</sodipodi:namedview>
<g id="Layer_x0020_1" transform="translate(0,-53)">
	<g id="_313602136">
		<path id="path57" inkscape:connector-curvature="0" class="st0" d="M14,64.6l-6.1-1.4c-1-0.2-2.6-0.6-2.6-2.6c0-2.2,2.4-3,4.3-3
			c4.5,0,4.9,2.6,5.1,3.9h2.8V66c-1-0.6-2.2-1-3.7-1.4H14z M10.8,79.4c1.2,0,4.5-0.2,6.9-2v1.4h4.9v-5.9l2-2l4.5,7.9h5.7L28,67.4
			l6.5-7.1h-5.9l-6.1,6.9V53.8h-4.9v2c-1.4-1.6-3.9-2.8-7.5-2.8c-8.1,0-9.5,4.9-9.5,7.7c0,3.9,2,5.9,5.5,6.7l5.1,1.2
			c2.6,0.6,4.5,1.2,4.5,3c0,2.6-2.6,3.2-5.3,3.2c-4.5,0-5.3-2.6-5.3-4.1H0.2C0.2,73.9,1.8,79.4,10.8,79.4L10.8,79.4z"/>
		<path id="path59" inkscape:connector-curvature="0" class="st0" d="M1.8,86.3c0,0.4,0.2,1.2,1.6,1.2c0.8,0,1.6-0.2,1.6-1
			c0-0.6-0.6-0.8-1.4-1L2,85.1c-1-0.2-1.8-1-1.8-2c0-0.8,0.4-2.4,3-2.4c2.4,0,3,1.6,3,2.4H4.7c0-0.4-0.2-1.2-1.6-1.2
			c-0.6,0-1.4,0.2-1.4,1c0,0.6,0.4,0.8,0.8,0.8L4.3,84c1,0.2,2,0.6,2,2c0,2.4-2.4,2.6-3,2.6c-2.8,0-3.2-1.6-3.2-2.6h1.6L1.8,86.3z"
			/>
		<polygon id="polygon61" class="st0" points="10.3,85.1 12.4,88.7 10.6,88.7 9.1,86.3 8.5,86.9 8.5,88.7 7.1,88.7 7.1,81 8.5,81 
			8.5,85.1 10.6,82.8 12.4,82.8 		"/>
		<path id="path63" inkscape:connector-curvature="0" class="st0" d="M13.8,85.9c0,0.8,0.2,1.8,1.4,1.8s1.4-1,1.4-1.8
			S16.4,84,15.2,84S13.8,85.1,13.8,85.9z M18.1,85.9c0,2-1.4,3-2.8,3c-1.6,0-2.8-1-2.8-3s1.4-3,2.8-3C16.8,82.8,18.1,83.8,18.1,85.9
			z"/>
		<polygon id="polygon65" class="st0" points="18.7,81 18.7,88.7 20.1,88.7 20.1,81 		"/>
		<polygon id="polygon67" class="st0" points="24.1,85.1 26.2,88.7 24.3,88.7 23.1,86.3 22.3,86.9 22.3,88.7 20.9,88.7 20.9,81 
			22.3,81 22.3,85.1 24.3,82.8 26.2,82.8 		"/>
		<path id="path69" inkscape:connector-curvature="0" class="st0" d="M27.6,85.9c0,0.8,0.2,1.8,1.4,1.8s1.4-1,1.4-1.8S30.2,84,29,84
			S27.6,85.1,27.6,85.9z M31.9,85.9c0,2-1.4,3-2.8,3c-1.6,0-2.8-1-2.8-3s1.4-3,2.8-3C30.6,82.8,31.9,83.8,31.9,85.9z"/>
		<polygon id="polygon71" class="st0" points="36.1,82.8 37.7,82.8 35.7,88.7 34.1,88.7 32.1,82.8 33.5,82.8 34.7,87.1 34.9,87.1 		
			"/>
		<path id="path73" inkscape:connector-curvature="0" class="st0" d="M39.2,85.9c0,0.8,0.2,1.8,1.4,1.8c1.2,0,1.4-1,1.4-1.8
			S41.8,84,40.6,84C39.4,84,39.2,85.1,39.2,85.9z M43.4,85.9c0,2-1.4,3-2.8,3c-1.6,0-2.8-1-2.8-3s1.4-3,2.8-3
			C42.2,82.8,43.4,83.8,43.4,85.9z"/>
	</g>
</g>
</svg>
