<svg width="19" height="19" viewBox="0 0 19 19" fill="none" xmlns="http://www.w3.org/2000/svg">
<path d="M9.89452 4C9.28399 4 8.78903 4.49496 8.78903 5.10547V8.78906H5.10548C4.49496 8.78906 4 9.28401 4 9.89453C4 10.505 4.49496 11 5.10548 11H9.89452C10.505 11 11 10.505 11 9.89453V5.10547C11 4.49496 10.505 4 9.89452 4Z" fill="#D5D9E2"/>
<path d="M9.5 0C4.2617 0 0 4.2617 0 9.5C0 14.7383 4.2617 19 9.5 19C14.7383 19 19 14.7383 19 9.5C19 4.2617 14.7383 0 9.5 0ZM9.5 16.9643C5.38419 16.9643 2.03571 13.6158 2.03571 9.5C2.03571 5.38419 5.38419 2.03571 9.5 2.03571C13.6158 2.03571 16.9643 5.38419 16.9643 9.5C16.9643 13.6158 13.6158 16.9643 9.5 16.9643Z" fill="#D5D9E2"/>
</svg>
