<?xml version="1.0" encoding="utf-8"?>
<!-- Generator: Adobe Illustrator 19.1.0, SVG Export Plug-In . SVG Version: 6.00 Build 0)  -->
<svg version="1.1" id="Layer_1" xmlns="http://www.w3.org/2000/svg" xmlns:xlink="http://www.w3.org/1999/xlink" x="0px" y="0px"
	 viewBox="-34 -5 36 36" style="enable-background:new -34 -5 36 36;" xml:space="preserve">
<style type="text/css">
	.st0{fill:#AEAEAE;}
</style>
<g>
	<path class="st0" d="M-11,6c1.1,0,2,0.9,2,2v10c0,1.1-0.9,2-2,2h-10c-1.1,0-2-0.9-2-2V8c0-1.1,0.9-2,2-2H-11 M-11,5h-10
		c-1.7,0-3,1.3-3,3v10c0,1.7,1.3,3,3,3h10c1.7,0,3-1.3,3-3V8C-8,6.3-9.3,5-11,5z"/>
</g>
</svg>
