<?xml version="1.0" encoding="utf-8"?>
<!-- Generator: Adobe Illustrator 20.1.0, SVG Export Plug-In . SVG Version: 6.00 Build 0)  -->
<svg version="1.1" id="Слой_1" xmlns="http://www.w3.org/2000/svg" xmlns:xlink="http://www.w3.org/1999/xlink" x="0px" y="0px"
	 viewBox="0 0 72.8 72.6" style="enable-background:new 0 0 72.8 72.6;" xml:space="preserve">
<style type="text/css">
	.st0{fill:#FF9C43;}
	.st1{fill:#FFFFFF;}
</style>
<g>
	<path class="st0" d="M37.2-0.1h-1.4C16-0.1,0,15.9,0,35.7v1.4c0,19.8,16,35.8,35.8,35.8h1.4C57,72.9,73,56.9,73,37.1v-1.4
		C73,15.9,57-0.1,37.2-0.1z"/>
	<g>
		<path class="st1" d="M36.3,36.4c4.2,0,7.7-3.3,7.7-7.5s-3.4-7.7-7.6-7.7c-4.2,0-7.6,3.4-7.7,7.6C28.7,32.9,32.1,36.4,36.3,36.4z
			 M36.4,25.2c2,0,3.7,1.6,3.7,3.7c0,2-1.6,3.7-3.7,3.7c-2.1,0-3.7-1.6-3.7-3.6C32.6,26.9,34.3,25.2,36.4,25.2z"/>
		<path class="st1" d="M45,39.5c0.6-0.6,0.6-1.4,0.3-2.4c-0.4-0.7-1.2-1-2-0.8c-0.4,0.1-0.8,0.3-1.1,0.6c-3.4,2.3-8,2.2-11.4-0.1
			c-0.1-0.1-0.3-0.2-0.5-0.3c-1-0.5-1.9-0.3-2.4,0.5c-0.7,0.9-0.6,1.7,0.2,2.5c0.2,0.2,0.5,0.3,0.7,0.5c1.8,1.4,3.9,2,6.2,2.2
			c-0.2,0.2-0.3,0.3-0.4,0.4c-1.7,1.8-3.4,3.5-5.1,5.2c-0.3,0.4-0.6,0.8-0.6,1.3c0,0.8,0.5,1.5,1.2,1.9c0.7,0.3,1.4,0.2,2-0.4
			c1.3-1.3,2.7-2.6,4-4c0.3-0.3,0.5-0.4,0.9,0c1.3,1.4,2.6,2.7,3.9,4c0.3,0.3,0.7,0.6,1.2,0.6c0.7,0.1,1.5-0.4,1.9-1.2
			c0.3-0.7,0.2-1.4-0.4-2c-1.7-1.7-3.5-3.5-5.2-5.2c-0.1-0.1-0.2-0.2-0.4-0.4c1.2-0.1,2.5-0.3,3.7-0.8C42.9,41.2,44.1,40.5,45,39.5z
			"/>
	</g>
</g>
</svg>
