<svg width="19" height="19" viewBox="0 0 19 19" fill="none" xmlns="http://www.w3.org/2000/svg">
<path d="M9.5 0C4.2617 0 0 4.26164 0 9.49994C0 14.7382 4.2617 19 9.5 19C14.7383 19 19 14.7382 19 9.49994C19 4.26164 14.7383 0 9.5 0ZM9.5 17.2727C5.21412 17.2727 1.72727 13.7859 1.72727 9.49994C1.72727 5.21406 5.21412 1.72727 9.5 1.72727C13.7859 1.72727 17.2727 5.21406 17.2727 9.49994C17.2727 13.7859 13.7859 17.2727 9.5 17.2727Z" fill="#1E73B7"/>
<path d="M9.49992 12.2424C8.86509 12.2424 8.34863 12.7588 8.34863 13.3934C8.34863 14.0287 8.86509 14.5455 9.49992 14.5455C10.1347 14.5455 10.6512 14.0287 10.6512 13.3934C10.6512 12.7588 10.1347 12.2424 9.49992 12.2424Z" fill="#1E73B7"/>
<path d="M9.49971 3.45459C7.75274 3.45459 6.33154 4.87579 6.33154 6.62264C6.33154 7.0996 6.71822 7.48627 7.19518 7.48627C7.67214 7.48627 8.05882 7.0996 8.05882 6.62264C8.05882 5.82821 8.70516 5.18186 9.49971 5.18186C10.2943 5.18186 10.9407 5.82821 10.9407 6.62264C10.9407 7.41718 10.2943 8.06353 9.49971 8.06353C9.02275 8.06353 8.63607 8.45021 8.63607 8.92717V10.6516C8.63607 11.1285 9.02275 11.5152 9.49971 11.5152C9.97666 11.5152 10.3633 11.1285 10.3633 10.6516V9.67024C11.6917 9.29323 12.6679 8.07021 12.6679 6.6227C12.6679 4.87579 11.2467 3.45459 9.49971 3.45459Z" fill="#1E73B7"/>
</svg>
