<svg width="17" height="17" viewBox="0 0 17 17" fill="none" xmlns="http://www.w3.org/2000/svg">
<path d="M1.803 13.9091H4.12118V16.2273C4.12118 16.654 4.46716 17 4.89391 17H15.1969C15.6237 17 15.9697 16.654 15.9697 16.2273V3.86364C15.9697 3.43688 15.6237 3.09091 15.1969 3.09091H12.8788V0.772727C12.8788 0.345976 12.5328 0 12.106 0H1.803C1.37625 0 1.03027 0.345976 1.03027 0.772727V13.1364C1.03027 13.5631 1.37625 13.9091 1.803 13.9091ZM14.4242 15.4545H5.66664V4.63636H14.4242V15.4545ZM2.57573 1.54545H11.3333V3.09091H4.89391C4.46716 3.09091 4.12118 3.43688 4.12118 3.86364V12.3636H2.57573V1.54545Z" fill="#D5D9E2"/>
<path d="M7.77273 7C7.34598 7 7 7.34598 7 7.77273C7 8.19948 7.34598 8.54545 7.77273 8.54545H11.8939C12.3207 8.54545 12.6667 8.19948 12.6667 7.77273C12.6667 7.34598 12.3207 7 11.8939 7H7.77273Z" fill="#D5D9E2"/>
<path d="M11.8939 9.09082H7.77273C7.34598 9.09082 7 9.4368 7 9.86355C7 10.2903 7.34598 10.6363 7.77273 10.6363H11.8939C12.3207 10.6363 12.6667 10.2903 12.6667 9.86355C12.6667 9.4368 12.3207 9.09082 11.8939 9.09082Z" fill="#D5D9E2"/>
<path d="M11.8939 11.1819H7.77273C7.34598 11.1819 7 11.5279 7 11.9546C7 12.3814 7.34598 12.7273 7.77273 12.7273H11.8939C12.3207 12.7273 12.6667 12.3814 12.6667 11.9546C12.6667 11.5279 12.3207 11.1819 11.8939 11.1819Z" fill="#D5D9E2"/>
</svg>
