<?xml version="1.0" encoding="utf-8"?>
<!-- Generator: Adobe Illustrator 16.0.0, SVG Export Plug-In . SVG Version: 6.00 Build 0)  -->
<!DOCTYPE svg PUBLIC "-//W3C//DTD SVG 1.1//EN" "http://www.w3.org/Graphics/SVG/1.1/DTD/svg11.dtd">
<svg version="1.1" id="Layer_1" xmlns="http://www.w3.org/2000/svg" xmlns:xlink="http://www.w3.org/1999/xlink" x="0px" y="0px"
	 width="31.617px" height="31.617px" viewBox="0 0 31.617 31.617" enable-background="new 0 0 31.617 31.617" xml:space="preserve">
<g>
	<g>
		<path fill="#F37240" d="M23.713,0.001H12.845c-1.186,0-1.976,0.789-1.976,1.975h1.976h8.893V9.88h7.904v15.811h-6.917v1.975h6.917
			c1.186,0,1.976-0.789,1.976-1.975V7.905L23.713,0.001z M23.713,7.905V2.767l5.139,5.139H23.713z M1.976,3.952
			C0.791,3.952,0,4.743,0,5.929v23.713c0,1.186,0.791,1.977,1.976,1.977h16.797c1.186,0,1.976-0.791,1.976-1.977V11.856
			l-7.904-7.904H1.976z M18.773,29.642H1.976V5.929h8.893v7.904h7.905V29.642z M12.845,11.856V6.72l5.138,5.137H12.845z"/>
	</g>
</g>
</svg>
