<?xml version="1.0" encoding="utf-8"?>
<!-- Generator: Adobe Illustrator 20.1.0, SVG Export Plug-In . SVG Version: 6.00 Build 0)  -->
<svg version="1.1" id="Слой_1" xmlns="http://www.w3.org/2000/svg" xmlns:xlink="http://www.w3.org/1999/xlink" x="0px" y="0px"
	 viewBox="0 0 48 48" style="enable-background:new 0 0 48 48;" xml:space="preserve">
<style type="text/css">
	.st0{fill:#E7E7E7;}
</style>
<path class="st0" d="M24,0C10.7,0,0,10.7,0,24s10.7,24,24,24s24-10.7,24-24S37.3,0,24,0z M24,1c12.7,0,23,10.3,23,23
	c0,5.4-1.9,10.1-5,14c-2.7-4.8-6.4-6-6.4-6h-2.3c-2.6,0-4.3-1.6-4.3-4.2v-1.5c1-1.2,1.6-2.7,2.1-4.2c0-0.3,0.2-0.4,0.4-0.6
	c0.9-0.9,1-2.4,0.4-3.5c-0.1-0.2-0.3-0.3-0.3-0.5c0-1.4,0-2.8,0-4.1c0-1.7-0.5-3.4-1.7-4.6c-0.9-1-2.2-1.6-3.6-1.8
	c-1.7-0.3-3.4-0.3-5.1,0.1c-1.4,0.4-2.8,1.2-3.6,2.5c-0.7,1.1-1.1,2.4-1.1,3.7c0,1.4,0,2.8,0,4.2c0,0.3-0.2,0.5-0.3,0.7
	c-0.6,1.2-0.4,2.7,0.7,3.6c0.3,0.2,0.2,0.5,0.3,0.8c0.4,1.4,1,2.7,2,3.8v1.6c0,2.6-1.9,4.2-4.4,4.2h-2.3c0,0-3.6,1.2-6.3,5.9
	C2.8,34,1,29.2,1,23.9C1,11.2,11.3,1,24,1z"/>
</svg>
