<?xml version="1.0" encoding="utf-8"?>
<!-- Generator: Adobe Illustrator 16.0.0, SVG Export Plug-In . SVG Version: 6.00 Build 0)  -->
<!DOCTYPE svg PUBLIC "-//W3C//DTD SVG 1.1//EN" "http://www.w3.org/Graphics/SVG/1.1/DTD/svg11.dtd">
<svg version="1.1" id="Layer_1" xmlns="http://www.w3.org/2000/svg" xmlns:xlink="http://www.w3.org/1999/xlink" x="0px" y="0px"
	 width="63.235px" height="63.235px" viewBox="0 0 63.235 63.235" enable-background="new 0 0 63.235 63.235" xml:space="preserve">
<g>
	<g>
		<path fill="#C8D7E1" d="M31.618,0C14.228,0,0,14.229,0,31.618s14.228,31.617,31.618,31.617s31.617-14.228,31.617-31.617
			S49.008,0,31.618,0z M31.618,59.481c-15.216,0-27.666-12.45-27.666-27.666S16.402,4.15,31.618,4.15
			c15.217,0,27.666,12.449,27.666,27.665S46.834,59.481,31.618,59.481z M42.684,20.552c-0.791-0.79-1.977-0.79-2.767,0l-8.3,8.3
			l-8.299-8.3c-0.791-0.79-1.976-0.79-2.767,0c-0.791,0.791-0.791,1.977,0,2.767l8.299,8.3l-8.299,8.3
			c-0.791,0.79-0.791,1.976,0,2.767c0.791,0.79,1.976,0.79,2.767,0l8.299-8.3l8.3,8.3c0.79,0.79,1.976,0.79,2.767,0
			c0.791-0.791,0.791-1.977,0-2.767l-8.3-8.3l8.3-8.3C43.475,22.528,43.475,21.343,42.684,20.552z"/>
	</g>
</g>
</svg>
