<?xml version="1.0" encoding="utf-8"?>
<!-- Generator: Adobe Illustrator 20.1.0, SVG Export Plug-In . SVG Version: 6.00 Build 0)  -->
<svg version="1.1" id="Layer_1" xmlns="http://www.w3.org/2000/svg" xmlns:xlink="http://www.w3.org/1999/xlink" x="0px" y="0px"
	 viewBox="0 0 35.6 35.6" style="enable-background:new 0 0 35.6 35.6;" xml:space="preserve">
<style type="text/css">
	.st0{fill:#1E73B7;}
</style>
<g>
	<g>
		<path class="st0" d="M17.8,0C7.9,0,0,7.9,0,17.8s7.9,17.8,17.8,17.8s17.8-7.9,17.8-17.8C35.6,8.1,27.7,0,17.8,0z M17.8,33.4
			c-8.5,0-15.6-7.1-15.6-15.6S9.1,2.2,17.8,2.2c8.5,0,15.6,6.9,15.6,15.6S26.3,33.4,17.8,33.4z M24.9,11.3L14.4,21.7L9.7,17
			c-0.4-0.4-1.2-0.4-1.6,0c-0.4,0.4-0.4,1.2,0,1.6l5.5,5.5c0.4,0.4,1.2,0.4,1.6,0l0,0l11.1-11.3c0.4-0.4,0.4-1.2,0-1.6
			C26.1,10.9,25.3,10.9,24.9,11.3z"/>
	</g>
</g>
</svg>
