<?xml version="1.0" encoding="utf-8"?>
<!-- Generator: Adobe Illustrator 21.1.0, SVG Export Plug-In . SVG Version: 6.00 Build 0)  -->
<svg version="1.1" id="Layer_1" xmlns="http://www.w3.org/2000/svg" xmlns:xlink="http://www.w3.org/1999/xlink" x="0px" y="0px"
	 viewBox="0 0 538.8 85.6" style="enable-background:new 0 0 538.8 85.6;" xml:space="preserve">
<style type="text/css">
	.st0{fill:#7FC6EF;}
	.st1{fill:#628BC0;}
	.st2{fill:#4F698A;}
	.st3{fill:#DAE2EA;}
	.st4{fill-rule:evenodd;clip-rule:evenodd;fill:#595651;}
	.st5{fill:#BFC6CB;}
</style>
<g>
	<rect x="100.6" y="3" class="st0" width="5.3" height="20.6"/>
	<rect x="100.6" y="23.7" class="st1" width="5.3" height="20.6"/>
	<rect x="100.6" y="44.3" class="st2" width="5.3" height="20.6"/>
	<rect x="100.6" y="64.9" class="st3" width="5.3" height="20.6"/>
</g>
<path class="st4" d="M93.2,146.5c-0.2-0.3-0.3-1-0.3-1l0,0l0.3-0.1V146.5L93.2,146.5z"/>
<g>
	<path class="st5" d="M47.6,41.7c0,0-0.5-0.5-1.3-0.5c-0.4,0-0.9,0.1-1.3,0.4c-0.1,0-0.1,0.1-0.1,0.2c0,0,0.3,2.3,0.1,3.2
		c-0.2,0.7-0.8,1.6-1.9,1.6c-0.2,0-0.5,0-0.7-0.1c0,0,0,0,0,0l0.8-0.6c0.1,0,0.1-0.1,0.1-0.2c0-0.1,0-0.1-0.1-0.2l-1.7-1.1
		c0.5-0.4,0.9-0.7,0.9-0.7c0,0,0.1-0.1,0.1-0.2c0-0.1,0-0.1-0.1-0.2L42,43c0,0-0.1-0.1-0.2-0.1c0,0-0.1,0-0.1,0c0,0-0.5,0.3-1.1,0.8
		l-0.7-0.5l2.6-1.8l0.2,0.5c0,0.1,0.1,0.1,0.2,0.1c0,0,0,0,0,0c0.1,0,0.2,0,0.2-0.1l1.2-2.3c0-0.1,0-0.2,0-0.2
		c0-0.1-0.1-0.1-0.2-0.1c0,0,0,0,0,0l-2.6,0.4c-0.1,0-0.2,0.1-0.2,0.2c0,0.1,0,0.2,0.1,0.2l0.4,0.4l-3,2l-3-2l0.4-0.4
		c0.1-0.1,0.1-0.2,0.1-0.2c0-0.1-0.1-0.1-0.2-0.2l-2.6-0.4c0,0,0,0,0,0c-0.1,0-0.1,0-0.2,0.1c0,0.1-0.1,0.2,0,0.2l1.2,2.3
		c0,0.1,0.1,0.1,0.2,0.1c0,0,0,0,0,0c0.1,0,0.2-0.1,0.2-0.1l0.2-0.5l2.6,1.8l-0.7,0.5c-0.7-0.5-1.1-0.8-1.1-0.8c0,0-0.1,0-0.1,0
		c-0.1,0-0.1,0-0.2,0.1l-0.3,0.3c0,0-0.1,0.1-0.1,0.2c0,0.1,0,0.1,0.1,0.2c0,0,0.4,0.3,0.9,0.7l-1.7,1.1c-0.1,0-0.1,0.1-0.1,0.2
		c0,0.1,0,0.1,0.1,0.2l0.8,0.6c0,0,0,0,0,0c-0.3,0.1-0.5,0.1-0.7,0.1c-1.1,0-1.7-0.8-1.9-1.6c-0.2-1,0.1-3.2,0.1-3.2
		c0-0.1,0-0.2-0.1-0.2c-0.5-0.3-0.9-0.4-1.3-0.4c-0.8,0-1.3,0.5-1.3,0.5c0,0-0.1,0.1-0.1,0.1c0,0.1-0.3,3.4,1.2,5
		c0.6,0.6,1.3,0.9,2.2,0.9c0.2,0,0.3,0,0.5,0c0.9-0.1,1.7-0.3,2.5-0.6l1.4,0.9l-3.1,2.1c-0.1,0-0.1,0.1-0.1,0.2c0,0.1,0,0.1,0.1,0.2
		l3.1,2.1l-2.6,1.8l-0.2-0.5c0-0.1-0.1-0.1-0.2-0.1c0,0,0,0,0,0c-0.1,0-0.2,0-0.2,0.1l-1.2,2.3c0,0.1,0,0.2,0,0.2
		c0,0.1,0.1,0.1,0.2,0.1c0,0,0,0,0,0l2.6-0.4c0.1,0,0.2-0.1,0.2-0.2c0-0.1,0-0.2-0.1-0.2L36,55.4l3-2.1l3,2.1l-0.4,0.4
		c-0.1,0.1-0.1,0.2-0.1,0.2c0,0.1,0.1,0.1,0.2,0.2l2.6,0.4c0,0,0,0,0,0c0.1,0,0.1,0,0.2-0.1c0-0.1,0.1-0.2,0-0.2l-1.2-2.3
		c0-0.1-0.1-0.1-0.2-0.1c0,0,0,0,0,0c-0.1,0-0.2,0.1-0.2,0.1l-0.2,0.5l-2.6-1.8l3.1-2.1c0.1,0,0.1-0.1,0.1-0.2c0-0.1,0-0.1-0.1-0.2
		L40,48l1.4-0.9c0.8,0.3,1.6,0.5,2.5,0.6c0.2,0,0.3,0,0.5,0c0.9,0,1.6-0.3,2.2-0.9c1.5-1.6,1.2-4.9,1.2-5
		C47.7,41.8,47.7,41.7,47.6,41.7z M38.9,44.1l0.7,0.4c-0.2,0.1-0.4,0.3-0.7,0.4c-0.2-0.1-0.4-0.3-0.7-0.4L38.9,44.1z M36.5,45.7
		l0.9-0.6c0.2,0.1,0.4,0.2,0.6,0.4c-0.4,0.2-0.7,0.4-1.1,0.5L36.5,45.7z M41.3,50.3l-2.3,1.6l-2.3-1.6l2.3-1.6L41.3,50.3z
		 M38.9,47.3l-1.1-0.8c0.4-0.2,0.8-0.4,1.1-0.6c0.4,0.2,0.7,0.4,1.1,0.6L38.9,47.3z M40.9,46c-0.4-0.2-0.7-0.3-1.1-0.5
		c0.2-0.1,0.4-0.2,0.6-0.4l0.9,0.6L40.9,46z"/>
	<path class="st5" d="M48.4,43.6c0.1-0.2,0.1-0.5,0.1-0.5l-0.1,0V43.6z"/>
	<path class="st5" d="M78,35.6c-1-0.6-2.6-0.8-4.2-0.6c2.5-0.9,4.3-2.8,4.4-4.4c-1.3-0.4-2.7-0.2-3.9,0.1c1.2-0.9,3.2-2.6,3-5.1
		c-1.2-0.3-3.4,0.5-4.3,0.9c2.9-1.6,4-5.5,2.4-7.7c-0.9,0.5-5.1,4.8-5.8,5.3c2.2-2.5,3.2-4.2,3.7-5.9c0.7-1.8,0.7-5-1.5-6
		c-1.1,2.4-4.8,8.6-6.8,11.2c-0.2-0.2-0.4-0.5-0.7-0.5c-0.5,1.6-2,3.7-3.3,4.7c-0.1-0.1-0.2-0.5-0.4-0.9c-1.4,2.1-5.1,5-6.3,6.8
		c-0.9,1.3-0.9,2.5,0.4,3.7c0.5,0.5,1.5,1.4,0.7,2.7c-1.2,1.7-3.5,1.9-4.8,0.9c0-0.3,0-0.6,0-0.9c1.5-0.6,1.8-2.6,0.7-3.9
		c-0.2,0.5-0.6,0.8-1.1,1c-0.1-0.5-0.2-0.8-0.3-0.8L50,36l-0.1,0c0,0-0.5,0-1.2-0.1c0.8-0.3,1.4-1,1.2-2.1c-1.3,1.1-2.6,0-2.8-0.2
		c-0.8-0.9-1-2-0.7-3.6c0.3-1.4,1.7-3.7,2.7-4.4c0.1,0.1,0.4,0.4,0.8,0.4c0.3-0.1,0.7-0.3,1.1-0.4c1-0.3,1.9-0.1,2.5,0.3
		c1.1,0.7,1,1.4,1,2c1.7-0.9,1.1-2.5-1.1-3.1c1.5,0,2.7,1.4,3,1.5c0.8,0.6,2,0.5,2.7,0.1c1.3-0.6,1.6-2.2,1.2-2.5
		c-0.1,0.6-0.6,1.1-1.3,1.1c-1.1,0.1-2.2-0.4-3.1-0.7c-0.7-0.3-1.9-0.5-2.7-0.5c1.5-0.8,3.8-0.7,4.7,0.5c0.5-0.4,0.8-0.8,0.9-1.6
		c0.4-2.2-1.3-3.4-3.2-3.4c0-0.5-0.3-0.8-0.8-0.6c0-0.2-0.1-0.4-0.2-0.5c0,0,0.1,0,0.1,0c1.9-0.1,3.7-0.7,4.6-1.7
		c1.7-1.8-1-4.1,0-5.9c0.9,0.4,1.6,0.9,2.9,1.1c0.1,0.3,0.2,0.8,0.3,1.1c0.4,2-1.6,2.3-1.1,4.5c0.2,1,0.9,1.3,1.2,2.4
		c0,0,0.1,0.8-0.6,1.5c1.6,0,2.5-1.3,2-2.6c-0.2-0.5-0.8-1-0.8-1.6c0.8,1.1,1.6,1.1,2.9,0.6c0.6-0.2,0.6,0.6,0.3,1.3
		c0.9-0.5,1.1-1.4,1.1-1.8c0-0.9-0.7-1.3-1.4-1.1c-0.4,0-1.1,0.6-1.2-0.2c-0.2-1.3,1.9-1.2,1.5-3.3c-0.2-1-1.4-1.6-3.2-1.8
		c-0.2-0.2-0.6-0.6-0.9-1c-1-1.6-2-2.1-2.6-1.7c-0.7,0.4-1.1,0.7-1.7,1c-0.5,0.2-1,0.4-1.3,0.7c-0.8,1,0,2.5,0.4,3.4
		c0.3,0.5,0.9,1.8,0.6,2.7c-0.3,1.1-2.1,1.8-3.2,2c-0.1,0-0.1,0-0.2,0v-0.4c0.3-0.6,0.6-1.2,0.8-1.8c0.7-2-0.4-2.8-2-3.2
		c-0.2-0.1-0.4-0.2-0.7-0.1h0l0,0.3L52,12.6l0-0.4h-0.1c0.2-0.1,0.3-0.4,0.3-0.6c0-0.2-0.1-0.4-0.2-0.6h0.2L52.1,11
		c0-0.1-0.1-0.2-0.3-0.3c0,0-0.1-0.1-0.1-0.2c0,0,0.1,0.1,0.2,0.1c0.1,0.1,0.2,0.2,0.3,0.3l0.1,0.1V9.2l-0.1,0.1
		c0,0-0.2,0.1-0.3,0.2c-0.1,0.1-0.1,0.1-0.2,0.1c0,0,0-0.1,0.1-0.2c0.1-0.1,0.2-0.2,0.3-0.3L52.2,9h-1.8l0.1,0.1
		c0.1,0.1,0.2,0.2,0.3,0.3c0,0.1,0.1,0.1,0.1,0.2c0,0-0.1,0-0.2-0.1c-0.2-0.1-0.2-0.2-0.3-0.2l-0.1-0.1V11l0.1-0.1
		c0.1-0.1,0.2-0.2,0.3-0.3c0,0,0.1-0.1,0.2-0.1c0,0-0.1,0.1-0.1,0.2c-0.1,0.1-0.2,0.2-0.3,0.3l-0.1,0.1h0.3
		c-0.2,0.1-0.2,0.3-0.2,0.6c0,0.2,0.1,0.4,0.2,0.6h0l0,0.4l-0.2,0.1l0-0.3h0c-0.3-0.1-0.5,0-0.7,0.1c-1.7,0.4-2.8,1.2-2,3.2
		c0.2,0.6,0.5,1.3,0.8,1.8v0.3c-1.7-0.5-4.6-2.4-5.5-3.5c-0.1-0.1-0.2-0.2-0.2-0.3l0,0l0-1.2c0.6-1,1.1-2.2,1.5-3.3
		c1.1-2.9-0.5-4-3-4.5c-0.2-0.2-0.6-0.3-1-0.1l-0.1,0.4l-0.5,0l0-0.6c-0.1,0-0.2,0-0.3,0c0.4-0.2,0.6-0.6,0.6-1.1
		c0-0.3-0.2-0.7-0.4-0.9h0.4c-0.2-0.2-0.7-0.7-0.7-1c0.3,0.1,0.8,0.5,1,0.7V0.3c-0.2,0.2-0.7,0.6-1,0.7C39.6,0.7,40,0.2,40.3,0h-2.3
		c0.2,0.2,0.6,0.7,0.7,0.9c-0.3,0-0.7-0.5-1-0.7v2.3c0.2-0.2,0.7-0.7,1-0.7c0,0.3-0.5,0.8-0.7,1h0.4c-0.3,0.2-0.4,0.6-0.4,0.9
		c0,0.4,0.2,0.9,0.6,1.1c-0.1,0-0.2,0-0.3,0l0,0.6l-0.5,0l0-0.4c-0.4-0.1-0.7,0-1,0.1c-2.4,0.5-4,1.7-2.9,4.5
		c0.4,1.1,0.9,2.3,1.5,3.3v1.2c0,0-0.1,0.1-0.2,0.2c-0.8,1.1-3.8,2.9-5.5,3.5v-0.3c0.3-0.6,0.6-1.2,0.8-1.8c0.7-2-0.4-2.8-2-3.2
		c-0.2-0.1-0.4-0.2-0.7-0.1h0l0,0.3l-0.2-0.1l0-0.4h0c0.1-0.1,0.2-0.4,0.2-0.6c0-0.2,0-0.4-0.2-0.6h0.3L27.7,11
		c-0.1-0.1-0.2-0.2-0.3-0.3c0,0-0.1-0.1-0.2-0.2c0,0,0.2,0.1,0.2,0.1c0.1,0.1,0.2,0.2,0.3,0.3l0.1,0.1V9.2l-0.1,0.1
		c-0.1,0-0.2,0.1-0.3,0.2c0,0.1-0.2,0.1-0.2,0.1c0,0,0.1-0.1,0.2-0.2c0.1-0.1,0.2-0.2,0.3-0.3L27.8,9h-1.8L26,9.2
		c0,0.1,0.2,0.2,0.2,0.3c0.1,0.1,0.1,0.1,0.1,0.2c0,0-0.1,0-0.2-0.1c-0.1-0.1-0.3-0.2-0.3-0.2l-0.1-0.1V11l0.1-0.1
		c0-0.1,0.2-0.2,0.3-0.3c0.1,0,0.1-0.1,0.2-0.1c0,0,0,0.1-0.1,0.2c-0.1,0.1-0.2,0.2-0.2,0.3l-0.1,0.1h0.2c-0.1,0.1-0.2,0.3-0.2,0.6
		c0,0.2,0.1,0.4,0.3,0.6h-0.1l0,0.4L26,12.7l0-0.3h0c-0.3-0.1-0.5,0-0.7,0.1c-1.7,0.4-2.8,1.2-2,3.2c0.2,0.6,0.5,1.3,0.8,1.8v0.4
		c-0.1,0-0.1,0-0.2,0c-1.1-0.2-2.9-0.9-3.3-2c-0.3-0.9,0.4-2.2,0.6-2.7c0.4-0.9,1.1-2.4,0.4-3.4c-0.3-0.4-0.8-0.5-1.3-0.7
		c-0.6-0.3-0.9-0.6-1.7-1C18,7.7,17,8.1,16,9.8c-0.2,0.4-0.7,0.8-0.9,1c-1.8,0.2-2.9,0.8-3.2,1.8c-0.4,2.1,1.6,2,1.5,3.3
		c0,0.7-0.8,0.2-1.2,0.2c-0.7-0.2-1.4,0.2-1.4,1.1c0,0.4,0.2,1.2,1.1,1.8c-0.4-0.6-0.3-1.5,0.3-1.3c1.3,0.4,2,0.4,2.8-0.6
		c0,0.6-0.5,1.1-0.8,1.6c-0.5,1.3,0.3,2.6,2,2.6c-0.7-0.7-0.6-1.5-0.6-1.5c0.2-1.1,0.9-1.5,1.2-2.4c0.5-2.1-1.5-2.5-1.1-4.5
		c0-0.3,0.1-0.8,0.3-1.1c1.3-0.2,2-0.7,2.9-1.1c0.9,1.8-1.7,4.1,0,5.9c1,1,2.8,1.6,4.6,1.7c0,0,0.1,0,0.1,0
		c-0.1,0.1-0.2,0.3-0.2,0.5c-0.5-0.2-0.9,0.1-0.8,0.6c-1.9,0-3.6,1.1-3.2,3.4c0.1,0.8,0.4,1.2,1,1.6c0.8-1.3,3.1-1.4,4.7-0.5
		c-0.8,0-2,0.2-2.8,0.5c-0.9,0.4-2,0.9-3.1,0.7c-0.8-0.1-1.2-0.6-1.3-1.1c-0.4,0.3-0.1,1.9,1.3,2.5c0.7,0.3,1.9,0.5,2.7-0.1
		c0.3-0.2,1.5-1.5,3.1-1.5c-2.2,0.6-2.8,2.2-1.1,3.1c-0.1-0.5-0.2-1.3,0.9-2c0.6-0.4,1.6-0.6,2.5-0.3c0.3,0.1,0.8,0.4,1.1,0.4
		c0.5,0,0.7-0.2,0.8-0.4c1,0.7,2.4,3,2.7,4.4c0.3,1.6,0.1,2.7-0.7,3.6c-0.3,0.3-1.6,1.3-2.8,0.2c-0.1,1,0.4,1.8,1.2,2.1
		C28.8,36,28.3,36,28.3,36l-0.1,0l-0.1,0.1c0,0-0.1,0.3-0.3,0.8c-0.5-0.2-0.9-0.5-1.1-1c-1.1,1.3-0.8,3.3,0.7,3.9c0,0.3,0,0.6,0,0.9
		c-1.3,1-3.6,0.8-4.7-0.9c-0.9-1.3,0.1-2.2,0.6-2.7c1.3-1.2,1.3-2.4,0.4-3.7c-1.2-1.8-4.8-4.7-6.2-6.8c-0.2,0.4-0.4,0.7-0.4,0.9
		c-1.3-1-2.8-3.1-3.3-4.7c-0.3,0-0.5,0.3-0.7,0.5c-2-2.6-5.8-8.8-6.8-11.2c-2.2,1.1-2.2,4.2-1.5,6c0.6,1.7,1.6,3.4,3.7,5.9
		c-0.7-0.5-4.8-4.8-5.8-5.3c-1.5,2.2-0.5,6.1,2.4,7.7c-0.9-0.4-3.1-1.2-4.3-0.9c-0.2,2.5,1.8,4.2,3,5.1c-1.2-0.3-2.6-0.5-3.9-0.1
		c0.1,1.7,1.8,3.6,4.3,4.4c-1.6-0.2-3.2,0-4.1,0.6c0.2,1.8,2.2,3.3,4.5,3.6c-1.6,0.2-3,0.9-3.7,1.8c0.9,1.1,2.1,2,4.1,2
		c-0.4,0.2-1,0.5-1.4,0.9c0,0-0.1-0.1-0.2-0.1c-0.1,0-0.1,0.2-0.1,0.3c0,0,0,0,0,0.1C3.2,44.3,3,44.4,3,44.6
		c-0.2,0.3-0.4,0.6-0.5,0.8c0,0,0.1,0.1,0.1,0.1c0,0.2,0,0.3,0.1,0.5c-0.1,0.1-0.1,0.2-0.2,0.4l-1.1-0.4c-0.1,1,0.2,1.9,0.7,2.4
		c0.4,0.5,0.9,0.4,0.7,0.6l1.2,0.8c0.2,0.5,0.7,0.5,1,0.3c0,0,0,0,0,0.1c0,0.5,0.3,0.9,0.8,1.1C5.9,51.5,6,51.8,6.6,52l4.7,11.3
		c-0.2,0.5,0,1,0.4,1.2c-0.1,0.1-0.2,0.3-0.2,0.5c0.2-0.1,0.4-0.2,0.6,0.2c0.1,0.3-0.4,1.1,0.3,1.7c-0.1,0.5,0.2,1.1,0.7,1.3
		c0,0.3,0.2,1.1,0.3,1.5c-0.3,0.5-1.1,1.2-1,2c0.1,0.6,0.3,0.7,0.8,0.9c-0.2,1,0.4,1.5,1.2,1.5c0,0.7,0.7,1,1.1,1
		c0.4,0.3,0.6,0.4,1.1,0.7c-0.4,0.5-0.1,1.2,0.7,1.5c0.1,0.3,0.3,0.6,0.8,0.7c0.3,0.4,0.8,0.4,1.1,0.3c0.2-0.1,0.5-0.6,0.2-1.1
		c0.2-0.2,0.1-0.7,0-0.9c0.3-0.5,0-1.1-0.3-1.3c0-0.3-0.1-0.7-0.2-1c0.7-0.4,1.5-0.9,1.8-1.1c1.6-1.1,3.4-2.2,5.4-2.3
		c0.5,0,1.5-0.1,2,0c0.8,0.1,2,0.3,2.6-0.2c0.2-0.1,0.3-0.4,0.3-0.6c-0.1-0.5-0.7-1-0.8-1.4c0-0.1-0.1-0.3-0.2-0.5
		c0.6,0.1,1.1,0,1.5-0.1c0.4-0.1,1.2-0.8,1.2-1.7c-0.7,0.3-2.4,0.8-2.6-0.9c-0.2-1.5,1.1-2.8,3.2-2.2c1.4,0.4,3.5,3.4,1.6,4.7
		c-0.9,0.6-2.3,1.2-2.1,2.9c0.6-0.7,1.4-1.1,2.5-1c-1.5,1.1-2.7,1.3-4.3,2.2c-1.4,0.8-2.5,2.2-3.6,2.2c-0.9,0-1.3-1-0.5-1.8
		c-0.8-0.2-1.9,0.5-2.2,1.3c-0.4,1.2-0.1,2,0.7,2.5c-1,0.5-1.7,1.6-1.4,3.1c0.3,1.2,1.6,1.2,1.1,2.8c0.7-0.2,1.1-0.7,1.3-1.3
		c0.1-0.5,0.2-1,0.4-1.2c-0.1,0.9,0.4,2.3,1.7,3c0.9,0.4,2.2,0.6,3.3-0.5C32,83,33.5,84,35,84c0.7,0,1.4-0.3,1.9-0.6
		c0.4,0.9,1.3,1.8,2.2,2.3c0.9-0.4,1.9-1.4,2.2-2.3c0.5,0.3,1.2,0.6,1.9,0.6c1.5,0,3-1,3.4-2.2c1.1,1.1,2.4,0.9,3.3,0.5
		c1.3-0.6,1.8-2,1.7-3c0.2,0.2,0.3,0.7,0.4,1.2c0.2,0.7,0.6,1.1,1.3,1.3c-0.5-1.6,0.8-1.6,1.1-2.8c0.4-1.5-0.4-2.6-1.4-3.1
		c0.7-0.5,1.1-1.3,0.6-2.5c-0.3-0.9-1.4-1.5-2.2-1.3c0.8,0.8,0.4,1.8-0.5,1.8c-1.1,0-2.2-1.4-3.6-2.2c-1.6-0.9-2.8-1-4.3-2.2
		c1.1-0.1,1.9,0.3,2.5,1c0.2-1.6-1.2-2.2-2.2-2.9c-1.9-1.3,0.2-4.3,1.6-4.7c2-0.6,3.4,0.7,3.2,2.2c-0.2,1.7-1.9,1.3-2.6,0.9
		c0,1,0.9,1.6,1.2,1.7c0.4,0.2,1.2,0.3,1.9,0c0,0.2-0.1,0.3-0.1,0.4c-0.1,1.5-0.9,1.6-0.7,2.2c0.4,0.4,2.9,0.4,3.6,0.5
		c1.2,0.2,2.2,0.6,3.3,0.8c1.3,0.3,2.6,0.3,3.8,0.7c0.7,0.3,1.6,0.9,2.3,1.3c1.1,0.2,0.9,0.6,1.6,0.6c0.6,0,0.9-0.5,1.7-0.8
		c0.6-0.1,1.2,0.1,1.7-0.1c0.4-0.1,0.6-0.5,1-0.7c0.4-0.3,1.1-0.3,1.5-0.7c0.2-0.2,0.3-0.6,0.2-0.8l0,0.1c0.9-0.6,1.5-1.5,1.9-2.5
		c0.2,0,0.4-0.2,0.4-0.5c0,0,0-0.1,0-0.1c0.2-0.2,0.4-0.5,0.4-0.7c0-0.3-0.1-0.6-0.4-0.8c0,0,0,0,0-0.1c0-0.2-0.1-0.3-0.2-0.4
		c-0.4-2-1.8-3.5-3.7-4c0,0,0,0,0-0.1h0c0-0.1,0-0.1-0.1-0.1c-0.3-0.3-0.6-0.7-0.6-1c0.3,0.1,0.8,0.6,1.1,0.8v-2.6
		c-0.3,0.2-0.8,0.7-1.1,0.8c0-0.3,0.5-0.9,0.8-1.1h-2.6c0.2,0.2,0.7,0.8,0.8,1.1c-0.3-0.1-0.8-0.6-1.1-0.8v2.6
		c0.3-0.2,0.8-0.7,1.1-0.8c0,0.3-0.5,0.9-0.8,1.1l0.1,0c-2,0.4-3.5,2.1-3.9,4.1c-0.1,0.1-0.2,0.2-0.2,0.4c0,0,0,0.1,0,0.1
		c-0.2,0.2-0.4,0.5-0.4,0.8c0,0.3,0.1,0.5,0.4,0.7c0,0,0,0,0,0.1c0,0.3,0.2,0.4,0.4,0.5c0.1,0.2,0.2,0.5,0.3,0.7c0,0,0,0,0,0
		c-0.2,0.7-1.1,1.2-1.3,1.2c-1.6,0.2-3.4-0.4-5-1.1c-0.7-0.3-1.7-0.6-2.2-1.3c-0.3-0.5-0.4-0.8-0.3-1.3c0.2,0.2,0.5,0.5,0.9,0.7
		c0-0.2,0-0.5,0.1-0.6c0.4,0.6,1.1,0.9,1.8,0.9c-0.5-0.4-0.7-1.5-0.5-2.4c0.7,1.1,3.1,1.3,3.6-0.7c-0.9,0.4-1.5,0-1.7-0.5
		c-0.3-0.8,0.6-2.7-0.2-4.2c-0.7-1.1-1.4-1.8-3.1-2c0.1-0.2,0.2-0.4,0.2-0.7c-1.6,0.6-3,0.1-3.6-1.1c0.3,0.1,0.8,0.2,1.2,0.2
		c-1.4-1.1-1.3-4.4-0.3-6.1c0.1-0.1,0.2-0.2,0.3-0.2c0.3,0.6,1.2,0.6,1.7,1.1c0.2-0.2,0.3-0.2,0.5-0.4c0,0,0,2.7,0.2,3.8
		c0.2,1.2,1.4,1.1,2,1.6c0.7-0.8,2-0.7,1.8-2.1c-0.2-1.4-0.4-2.6-0.5-3.5c0.4,0.8,1.2,3.9,1.5,4.8c0.5,1.3,1.8,0.9,2.5,1.4
		c0.5-0.9,1.7-1.2,1.2-2.6c-0.1-0.4-2.1-4.5-2.4-5.3c0.7,1,2.6,4.6,3.2,5.6c0.7,1.1,1.8,0.5,2.7,0.8c0.2-0.8,1.3-1.6,0.5-3
		c-1.1-1.8-3.5-4.8-3.7-5.2c0.5,0.5,4.3,5.2,4.6,5.5c0.9,0.8,2.2,0.2,3,0.2c0-0.9,0.7-1.9-0.3-2.9c-0.9-0.9-3-2.4-3.5-2.9
		c1.4,1,3.1,2.5,4.1,2.8c1.8,0.4,2.4-0.2,3-0.5c-0.5-1.6,0.2-2.3-3.5-3.9c3.2,1.1,4.6,0.6,5.8-0.3c-0.4-1.1-1.6-2.1-2.5-2.4
		c2,0,3.3-0.8,4.1-2c-0.7-1-2.2-1.7-3.8-1.8C75.8,38.8,77.7,37.3,78,35.6z M3.7,47.3C3.7,47.3,3.7,47.4,3.7,47.3
		c-0.4,0-0.4-0.3-0.3-0.5c0.1,0,0.2,0,0.3-0.1l0,0l-0.1,0.1C3.7,47,3.7,47.1,3.7,47.3z M4.6,49.2l-0.4-0.3c0.2-0.2,0.4-0.2,0.5-0.1
		C4.7,49,4.7,49.1,4.6,49.2z M5.9,46.4c-0.1,0-0.1,0-0.2,0c0,0,0,0,0,0C5.8,46.3,5.9,46.3,5.9,46.4C6,46.3,6,46.4,5.9,46.4z
		 M31.4,79.2c-1.1,0-1.9-0.7-1.3-1.7c0.3,0.4,0.9,0.6,1.4,0.7C31.4,78.6,31.4,78.8,31.4,79.2z M48.1,77.5c0.6,1-0.2,1.7-1.3,1.7
		c0-0.4,0-0.5-0.1-1C47.2,78.1,47.8,78,48.1,77.5z M31.3,18.1c2.5-0.5,5.1-2,6.2-3.1c1,0.1,2.2,0.1,3.1,0c1.1,1.2,3.7,2.6,6.2,3.1
		c-1.5,0-4-0.1-4.3-0.5c0.1,0.9,2,2,3.3,2.2c-1.1,0.1-2,0-2.9-0.4c0.5,0.7,1,1.1,1.8,1.4c-0.9,1.1-2.7,1.8-4.6,1.6
		c0.4,0.5,1.3,0.9,2,0.8c-1.6,2.6-2.9,5.3-3.1,8.4l0,0l0,0c-0.3-3.1-1.5-5.8-3.1-8.4c0.7,0.1,1.5-0.2,2-0.8
		c-1.8,0.2-3.6-0.5-4.5-1.6c0.9-0.3,1.4-0.8,1.8-1.4c-0.8,0.4-1.8,0.5-2.9,0.4c1.3-0.3,3.3-1.3,3.3-2.2C35.3,18,32.8,18.1,31.3,18.1
		z M8.3,45.7c-0.2,0.1-0.5,0.2-0.7,0.3c0,0,0,0,0-0.1C7.8,45.9,8.1,45.8,8.3,45.7z M24.5,57.5c0,0.3,0.1,0.5,0.2,0.7
		c-1.7,0.3-2.5,0.9-3.1,2c-0.9,1.5,0,3.4-0.2,4.2c-0.2,0.5-0.8,1-1.7,0.5c0.4,2,2.9,1.8,3.6,0.7c0.2,0.9,0,2-0.4,2.4
		c0.8,0,1.4-0.3,1.8-0.9c0.1,0.2,0.1,0.4,0.1,0.6c0.4-0.2,0.7-0.5,0.9-0.7c0.1,0.2,0.2,0.7,0,1.2c-0.3,0.2-0.7,0.4-1.3,0.7
		c-0.9,0.4-2.6,1.1-3.6,1.2c-0.8,0.1-2.2-0.3-2.5-1.4c-0.3-1.1-1.2-1.4-1.9-0.7c-0.2-0.1-0.7-0.2-0.9,0.1c0,0-0.2-0.5-0.5-0.7
		c0.2-0.5,0-1.2-0.4-1.4c0-1.1-0.7-1.1-0.9-1.4c-0.1-0.2-0.1-0.5,0.2-0.5c-0.1-0.2-0.4-0.2-0.4-0.2c0.1-0.4,0-1-0.7-1.2l-5.3-11
		c0.3-0.4,0.2-0.9-0.2-1.1c0,0,0,0,0-0.1c0-0.1,0-0.2,0-0.2c0.1,0,0.3-0.1,0.5-0.1c1.1-0.2,2.7-1.8,4.1-2.8c-0.5,0.5-2.6,2-3.5,2.9
		c-0.9,0.9-0.5,1.7-0.4,2.5l0.2,0.4c0.8,0,1.9,0.5,2.8-0.2c0.3-0.3,4.1-5,4.6-5.5c-0.2,0.4-2.6,3.5-3.7,5.2c-0.8,1.3,0.4,2.2,0.5,3
		c0.9-0.3,2.1,0.2,2.7-0.8c0.6-1,2.5-4.6,3.2-5.6c-0.3,0.8-2.2,4.9-2.4,5.3c-0.5,1.4,0.7,1.7,1.2,2.6c0.7-0.5,2-0.1,2.5-1.4
		c0.3-0.9,1.1-4,1.5-4.8c0,0.9-0.3,2.2-0.5,3.5c-0.2,1.4,1.1,1.3,1.8,2.1c0.7-0.5,1.8-0.4,2-1.6c0.2-1.1,0.2-3.8,0.2-3.8
		c0.2,0.2,0.3,0.2,0.5,0.4c0.4-0.5,1.4-0.5,1.7-1.1c0.1,0,0.2,0.1,0.3,0.2c1,1.7,1.1,4.9-0.3,6.1c0.4,0,0.9,0,1.2-0.2
		C27.4,57.6,26.1,58.1,24.5,57.5z M34.4,72.8c-0.8,1.1-1.5,2-2,3.4c-1-0.1-0.8-1.3-0.5-1.9c0.7-1.2,3.3-2.7,4.6-4.3
		C35.9,71.1,35.1,71.9,34.4,72.8z M37.3,74.9c-0.5,2.1-0.9,5.2-0.7,6.6c-1.9-1-0.8-4.7-0.1-6.3c1-2.2,1.7-5,1.9-6.7
		C38.9,69.8,37.7,73.5,37.3,74.9z M41.6,81.5c0.2-1.4-0.2-4.5-0.7-6.6c-0.4-1.4-1.7-5.1-1.1-6.5c0.2,1.8,0.9,4.5,1.9,6.7
		C42.4,76.8,43.5,80.6,41.6,81.5z M46.2,74.3c0.3,0.6,0.5,1.8-0.5,1.9c-0.5-1.4-1.2-2.2-2-3.4c-0.7-0.9-1.6-1.8-2.2-2.8
		C42.9,71.6,45.6,73.2,46.2,74.3z M46,58.3c-2.4,4.7-6.9,8.6-6.9,8.5c-0.1,0.1-4.5-3.8-6.9-8.5c-2.4-4.7-4-12.1-4.1-15.7
		c-0.1-3.5,0.6-5.1,0.6-5.1s3-0.2,5.5-1c2.1-0.7,4.3-2.5,4.9-3c0.6,0.5,2.9,2.3,4.9,3c2.4,0.8,5.5,1,5.5,1s0.7,1.5,0.6,5.1
		C50,46.2,48.4,53.6,46,58.3z"/>
</g>
<g>
	<path class="st5" d="M151.5,16.8c0,1.8-0.3,3.4-0.8,4.7c-0.6,1.4-1.4,2.5-2.4,3.5c-1.1,0.9-2.4,1.7-3.9,2.1
		c-1.5,0.5-3.4,0.7-5.4,0.7h-2.6V38c0,0.2-0.1,0.3-0.2,0.4c-0.1,0.1-0.3,0.2-0.5,0.3c-0.2,0.1-0.6,0.1-1,0.2c-0.4,0-0.9,0.1-1.6,0.1
		c-0.6,0-1.1,0-1.6-0.1c-0.4,0-0.7-0.1-1-0.2c-0.2-0.1-0.4-0.2-0.5-0.3c-0.1-0.1-0.1-0.3-0.1-0.4V9.5c0-0.8,0.2-1.3,0.6-1.7
		c0.4-0.4,0.9-0.6,1.6-0.6h7.5c0.8,0,1.5,0,2.1,0.1s1.5,0.2,2.4,0.4c0.9,0.2,1.9,0.5,2.9,1c1,0.5,1.8,1.1,2.5,1.9s1.2,1.7,1.6,2.7
		C151.3,14.4,151.5,15.5,151.5,16.8z M144.8,17.3c0-1.1-0.2-2-0.6-2.7c-0.4-0.7-0.9-1.2-1.4-1.6c-0.6-0.3-1.2-0.6-1.8-0.6
		c-0.6-0.1-1.3-0.1-1.9-0.1h-2.7v10.7h2.9c1,0,1.9-0.1,2.6-0.4c0.7-0.3,1.3-0.7,1.7-1.2s0.8-1.1,1-1.8
		C144.7,18.8,144.8,18.1,144.8,17.3z"/>
	<path class="st5" d="M175.9,26.5c0,0.8-0.2,1.3-0.5,1.7c-0.3,0.4-0.8,0.5-1.4,0.5h-13.3c0,0.9,0.1,1.8,0.3,2.5
		c0.2,0.8,0.6,1.4,1.1,1.9c0.5,0.5,1.1,0.9,1.9,1.2s1.7,0.4,2.7,0.4c1.1,0,2-0.1,2.8-0.2c0.8-0.2,1.5-0.3,2.1-0.5s1.1-0.4,1.5-0.5
		c0.4-0.2,0.7-0.2,1-0.2c0.1,0,0.3,0,0.4,0.1c0.1,0.1,0.2,0.2,0.2,0.3c0.1,0.1,0.1,0.4,0.1,0.6s0,0.6,0,1c0,0.4,0,0.7,0,0.9
		c0,0.3,0,0.5-0.1,0.6s-0.1,0.3-0.1,0.5c-0.1,0.1-0.2,0.2-0.3,0.4c-0.1,0.1-0.4,0.3-0.9,0.5s-1.1,0.4-1.8,0.6
		c-0.7,0.2-1.6,0.4-2.5,0.5c-0.9,0.1-2,0.2-3,0.2c-1.9,0-3.6-0.2-5.1-0.7s-2.7-1.2-3.7-2.2c-1-1-1.7-2.3-2.2-3.8
		c-0.5-1.5-0.7-3.3-0.7-5.3c0-1.9,0.3-3.7,0.8-5.2c0.5-1.6,1.2-2.9,2.2-4c1-1.1,2.1-1.9,3.5-2.5c1.4-0.6,2.9-0.9,4.7-0.9
		c1.8,0,3.4,0.3,4.7,0.8c1.3,0.5,2.4,1.3,3.2,2.2s1.4,2.1,1.8,3.4c0.4,1.3,0.6,2.7,0.6,4.3V26.5z M169.9,24.7c0-1.7-0.3-3.1-1-4.1
		c-0.7-1-1.9-1.5-3.4-1.5c-0.8,0-1.5,0.1-2,0.4c-0.6,0.3-1.1,0.7-1.4,1.2s-0.7,1.1-0.9,1.8c-0.2,0.7-0.3,1.4-0.4,2.2H169.9z"/>
	<path class="st5" d="M201.1,26.5c0,0.8-0.2,1.3-0.5,1.7c-0.3,0.4-0.8,0.5-1.4,0.5h-13.3c0,0.9,0.1,1.8,0.3,2.5
		c0.2,0.8,0.6,1.4,1.1,1.9c0.5,0.5,1.1,0.9,1.9,1.2s1.7,0.4,2.7,0.4c1.1,0,2-0.1,2.8-0.2c0.8-0.2,1.5-0.3,2.1-0.5s1.1-0.4,1.5-0.5
		c0.4-0.2,0.7-0.2,1-0.2c0.1,0,0.3,0,0.4,0.1c0.1,0.1,0.2,0.2,0.2,0.3c0.1,0.1,0.1,0.4,0.1,0.6s0,0.6,0,1c0,0.4,0,0.7,0,0.9
		c0,0.3,0,0.5-0.1,0.6s-0.1,0.3-0.1,0.5c-0.1,0.1-0.2,0.2-0.3,0.4c-0.1,0.1-0.4,0.3-0.9,0.5s-1.1,0.4-1.8,0.6
		c-0.7,0.2-1.6,0.4-2.5,0.5c-0.9,0.1-2,0.2-3,0.2c-1.9,0-3.6-0.2-5.1-0.7s-2.7-1.2-3.7-2.2c-1-1-1.7-2.3-2.2-3.8
		c-0.5-1.5-0.7-3.3-0.7-5.3c0-1.9,0.3-3.7,0.8-5.2c0.5-1.6,1.2-2.9,2.2-4c1-1.1,2.1-1.9,3.5-2.5c1.4-0.6,2.9-0.9,4.7-0.9
		c1.8,0,3.4,0.3,4.7,0.8c1.3,0.5,2.4,1.3,3.2,2.2s1.4,2.1,1.8,3.4c0.4,1.3,0.6,2.7,0.6,4.3V26.5z M195.1,24.7c0-1.7-0.3-3.1-1-4.1
		c-0.7-1-1.9-1.5-3.4-1.5c-0.8,0-1.5,0.1-2,0.4c-0.6,0.3-1.1,0.7-1.4,1.2s-0.7,1.1-0.9,1.8c-0.2,0.7-0.3,1.4-0.4,2.2H195.1z"/>
	<path class="st5" d="M222.7,34.6c0,0.4,0,0.8,0,1.1c0,0.3-0.1,0.5-0.1,0.7c0,0.2-0.1,0.4-0.1,0.5c-0.1,0.1-0.2,0.3-0.4,0.5
		c-0.2,0.2-0.5,0.4-1,0.7c-0.5,0.3-1,0.5-1.6,0.7c-0.6,0.2-1.3,0.4-2,0.5s-1.4,0.2-2.2,0.2c-1.7,0-3.2-0.3-4.5-0.8
		c-1.3-0.5-2.4-1.3-3.3-2.3c-0.9-1-1.5-2.3-2-3.7c-0.4-1.5-0.7-3.1-0.7-5c0-2.2,0.3-4.1,0.8-5.7c0.5-1.6,1.3-2.9,2.3-4
		c1-1,2.1-1.8,3.5-2.3c1.3-0.5,2.8-0.8,4.4-0.8c0.7,0,1.3,0.1,1.9,0.2c0.6,0.1,1.2,0.3,1.8,0.5s1,0.4,1.5,0.7
		c0.4,0.2,0.7,0.5,0.9,0.6c0.2,0.2,0.3,0.3,0.4,0.5c0.1,0.1,0.1,0.3,0.2,0.5c0,0.2,0.1,0.4,0.1,0.7s0,0.6,0,1c0,0.9-0.1,1.6-0.2,2
		c-0.2,0.4-0.4,0.6-0.6,0.6c-0.3,0-0.6-0.1-0.9-0.3c-0.3-0.2-0.7-0.5-1.1-0.8c-0.4-0.3-0.9-0.5-1.5-0.8c-0.6-0.2-1.3-0.3-2.1-0.3
		c-1.6,0-2.8,0.6-3.7,1.8c-0.8,1.2-1.3,3-1.3,5.4c0,1.2,0.1,2.2,0.3,3.1c0.2,0.9,0.5,1.6,0.9,2.3c0.4,0.6,0.9,1.1,1.6,1.4
		s1.4,0.5,2.2,0.5c0.8,0,1.6-0.1,2.2-0.4c0.6-0.3,1.1-0.5,1.6-0.8c0.5-0.3,0.8-0.6,1.1-0.8c0.3-0.3,0.6-0.4,0.8-0.4
		c0.1,0,0.3,0,0.4,0.1s0.2,0.2,0.2,0.5s0.1,0.5,0.1,0.8C222.7,33.6,222.7,34,222.7,34.6z"/>
	<path class="st5" d="M243.3,18.1c0,0.5,0,1-0.1,1.3c0,0.4-0.1,0.6-0.2,0.9s-0.2,0.4-0.3,0.4c-0.1,0.1-0.3,0.1-0.4,0.1h-5.5V38
		c0,0.2,0,0.3-0.1,0.4c-0.1,0.1-0.3,0.2-0.5,0.3c-0.2,0.1-0.5,0.1-0.9,0.2s-0.9,0.1-1.5,0.1c-0.6,0-1.1,0-1.5-0.1
		c-0.4,0-0.7-0.1-0.9-0.2s-0.4-0.2-0.5-0.3c-0.1-0.1-0.1-0.3-0.1-0.4V20.9h-5.5c-0.2,0-0.3,0-0.4-0.1c-0.1-0.1-0.2-0.2-0.3-0.5
		c-0.1-0.2-0.1-0.5-0.2-0.9c0-0.4-0.1-0.8-0.1-1.4c0-0.5,0-0.9,0.1-1.2s0.1-0.6,0.2-0.8c0.1-0.2,0.2-0.4,0.3-0.5
		c0.1-0.1,0.3-0.1,0.4-0.1h17.1c0.1,0,0.3,0,0.4,0.1c0.1,0.1,0.2,0.2,0.3,0.5c0.1,0.2,0.1,0.5,0.2,0.8S243.3,17.6,243.3,18.1z"/>
	<path class="st5" d="M268.6,26.8c0,1.9-0.2,3.7-0.6,5.2c-0.4,1.6-1,2.9-1.8,4c-0.8,1.1-1.8,1.9-3,2.5c-1.2,0.6-2.6,0.9-4.1,0.9
		c-0.6,0-1.2-0.1-1.7-0.2c-0.5-0.1-1-0.3-1.5-0.6c-0.5-0.3-1-0.6-1.5-0.9c-0.5-0.4-1-0.8-1.5-1.3v10.3c0,0.2,0,0.3-0.1,0.4
		c-0.1,0.1-0.3,0.2-0.5,0.3c-0.2,0.1-0.6,0.2-0.9,0.2s-0.9,0.1-1.5,0.1s-1.1,0-1.5-0.1s-0.7-0.1-0.9-0.2s-0.4-0.2-0.5-0.3
		c-0.1-0.1-0.1-0.3-0.1-0.4V16.2c0-0.2,0-0.3,0.1-0.4c0.1-0.1,0.2-0.2,0.4-0.3c0.2-0.1,0.5-0.1,0.8-0.2c0.3,0,0.8-0.1,1.3-0.1
		c0.5,0,0.9,0,1.2,0.1c0.3,0,0.6,0.1,0.8,0.2c0.2,0.1,0.3,0.2,0.4,0.3c0.1,0.1,0.1,0.3,0.1,0.4v2.6c0.6-0.7,1.3-1.2,1.9-1.7
		s1.2-0.9,1.9-1.2c0.6-0.3,1.3-0.6,2-0.7c0.7-0.2,1.4-0.2,2.2-0.2c1.6,0,3,0.3,4.1,0.9c1.1,0.6,2,1.5,2.8,2.6
		c0.7,1.1,1.2,2.4,1.6,3.8C268.5,23.6,268.6,25.1,268.6,26.8z M262.2,27.2c0-0.9-0.1-1.8-0.2-2.7c-0.1-0.9-0.4-1.6-0.7-2.3
		c-0.3-0.7-0.8-1.2-1.3-1.6c-0.5-0.4-1.2-0.6-2-0.6c-0.4,0-0.8,0.1-1.2,0.2c-0.4,0.1-0.8,0.3-1.2,0.6s-0.8,0.6-1.3,1.1
		c-0.4,0.4-0.9,1-1.4,1.6v7.2c0.9,1.1,1.7,1.9,2.5,2.5c0.8,0.6,1.6,0.9,2.4,0.9c0.8,0,1.5-0.2,2-0.6s1-0.9,1.4-1.6s0.6-1.4,0.8-2.2
		C262.1,28.9,262.2,28.1,262.2,27.2z"/>
	<path class="st5" d="M151.6,68.6c0,1.9-0.2,3.6-0.7,5.1c-0.5,1.5-1.2,2.9-2.2,4c-1,1.1-2.2,2-3.7,2.6c-1.5,0.6-3.3,0.9-5.3,0.9
		c-1.9,0-3.6-0.3-5.1-0.8S131.9,79,131,78s-1.6-2.3-2.1-3.8c-0.5-1.5-0.7-3.2-0.7-5.1c0-1.9,0.2-3.6,0.7-5.1c0.5-1.5,1.2-2.9,2.2-4
		c1-1.1,2.2-2,3.7-2.6c1.5-0.6,3.2-0.9,5.2-0.9c2,0,3.7,0.3,5.1,0.8c1.4,0.5,2.6,1.3,3.6,2.3c0.9,1,1.6,2.3,2.1,3.8
		S151.6,66.7,151.6,68.6z M145.2,68.9c0-1.1-0.1-2.1-0.3-3c-0.2-0.9-0.5-1.7-0.9-2.4c-0.4-0.7-1-1.2-1.6-1.6
		c-0.7-0.4-1.5-0.6-2.6-0.6c-0.9,0-1.7,0.2-2.4,0.5c-0.7,0.3-1.2,0.8-1.7,1.5c-0.4,0.6-0.8,1.4-1,2.3s-0.3,1.9-0.3,3.1
		c0,1.1,0.1,2.1,0.3,3s0.5,1.7,0.9,2.4c0.4,0.7,0.9,1.2,1.6,1.6c0.7,0.4,1.5,0.6,2.5,0.6c0.9,0,1.7-0.2,2.4-0.5
		c0.7-0.3,1.2-0.8,1.7-1.5c0.4-0.6,0.8-1.4,1-2.3C145.1,71.1,145.2,70,145.2,68.9z"/>
	<path class="st5" d="M172.4,59.8c0,0.5,0,1-0.1,1.3c0,0.4-0.1,0.6-0.2,0.9s-0.2,0.4-0.3,0.4c-0.1,0.1-0.3,0.1-0.4,0.1h-5.5v17.2
		c0,0.2,0,0.3-0.1,0.4c-0.1,0.1-0.3,0.2-0.5,0.3s-0.5,0.1-0.9,0.2c-0.4,0-0.9,0.1-1.5,0.1c-0.6,0-1.1,0-1.5-0.1s-0.7-0.1-0.9-0.2
		c-0.2-0.1-0.4-0.2-0.5-0.3c-0.1-0.1-0.1-0.3-0.1-0.4V62.6h-5.5c-0.2,0-0.3,0-0.4-0.1c-0.1-0.1-0.2-0.2-0.3-0.5
		c-0.1-0.2-0.1-0.5-0.2-0.9c0-0.4-0.1-0.8-0.1-1.4c0-0.5,0-0.9,0.1-1.2s0.1-0.6,0.2-0.8c0.1-0.2,0.2-0.4,0.3-0.5
		c0.1-0.1,0.3-0.1,0.4-0.1h17.1c0.1,0,0.3,0,0.4,0.1c0.1,0.1,0.2,0.2,0.3,0.5c0.1,0.2,0.1,0.5,0.2,0.8
		C172.4,58.9,172.4,59.3,172.4,59.8z"/>
	<path class="st5" d="M195.6,68.2c0,0.8-0.2,1.3-0.5,1.7c-0.3,0.4-0.8,0.5-1.4,0.5h-13.3c0,0.9,0.1,1.8,0.3,2.5
		c0.2,0.8,0.6,1.4,1.1,1.9c0.5,0.5,1.1,0.9,1.9,1.2s1.7,0.4,2.7,0.4c1.1,0,2-0.1,2.8-0.2c0.8-0.2,1.5-0.3,2.1-0.5s1.1-0.4,1.5-0.5
		c0.4-0.2,0.7-0.2,1-0.2c0.1,0,0.3,0,0.4,0.1c0.1,0.1,0.2,0.2,0.2,0.3c0.1,0.1,0.1,0.4,0.1,0.6s0,0.6,0,1c0,0.4,0,0.7,0,0.9
		c0,0.3,0,0.5-0.1,0.6s-0.1,0.3-0.1,0.5c-0.1,0.1-0.2,0.2-0.3,0.4c-0.1,0.1-0.4,0.3-0.9,0.5s-1.1,0.4-1.8,0.6
		c-0.7,0.2-1.6,0.4-2.5,0.5c-0.9,0.1-2,0.2-3,0.2c-1.9,0-3.6-0.2-5.1-0.7s-2.7-1.2-3.7-2.2c-1-1-1.7-2.3-2.2-3.8
		c-0.5-1.5-0.7-3.3-0.7-5.3c0-1.9,0.3-3.7,0.8-5.2c0.5-1.6,1.2-2.9,2.2-4c1-1.1,2.1-1.9,3.5-2.5c1.4-0.6,2.9-0.9,4.7-0.9
		c1.8,0,3.4,0.3,4.7,0.8c1.3,0.5,2.4,1.3,3.2,2.2s1.4,2.1,1.8,3.4c0.4,1.3,0.6,2.7,0.6,4.3V68.2z M189.6,66.5c0-1.7-0.3-3.1-1-4.1
		c-0.7-1-1.9-1.5-3.4-1.5c-0.8,0-1.5,0.1-2,0.4c-0.6,0.3-1.1,0.7-1.4,1.2s-0.7,1.1-0.9,1.8c-0.2,0.7-0.3,1.4-0.4,2.2H189.6z"/>
	<path class="st5" d="M218.9,79.8c0,0.2,0,0.3-0.1,0.4c-0.1,0.1-0.3,0.2-0.5,0.3c-0.2,0.1-0.5,0.1-0.9,0.2c-0.4,0-0.9,0.1-1.5,0.1
		c-0.6,0-1.1,0-1.5-0.1c-0.4,0-0.7-0.1-1-0.2c-0.2-0.1-0.4-0.2-0.5-0.3c-0.1-0.1-0.1-0.3-0.1-0.4v-7.5c-0.8,0.3-1.7,0.6-2.6,0.8
		c-0.9,0.2-1.9,0.3-3,0.3c-1.6,0-3-0.2-4.1-0.6c-1.1-0.4-2-0.9-2.6-1.6c-0.7-0.7-1.1-1.5-1.4-2.5c-0.3-0.9-0.4-2.2-0.4-3.6v-7
		c0-0.2,0-0.3,0.1-0.4c0.1-0.1,0.3-0.2,0.5-0.3c0.2-0.1,0.6-0.1,0.9-0.2c0.4,0,0.9-0.1,1.5-0.1c0.6,0,1.1,0,1.5,0.1
		c0.4,0,0.7,0.1,0.9,0.2c0.2,0.1,0.4,0.2,0.5,0.3c0.1,0.1,0.1,0.3,0.1,0.4V64c0,1.1,0.1,1.9,0.2,2.4c0.2,0.5,0.4,0.9,0.7,1.2
		c0.3,0.3,0.7,0.5,1.1,0.6c0.4,0.1,0.9,0.2,1.5,0.2c0.8,0,1.5-0.1,2.3-0.3c0.7-0.2,1.5-0.5,2.2-0.8V58c0-0.2,0-0.3,0.1-0.4
		c0.1-0.1,0.3-0.2,0.5-0.3c0.2-0.1,0.6-0.1,1-0.2c0.4,0,0.9-0.1,1.5-0.1c0.6,0,1.1,0,1.5,0.1c0.4,0,0.7,0.1,0.9,0.2
		c0.2,0.1,0.4,0.2,0.5,0.3c0.1,0.1,0.1,0.3,0.1,0.4V79.8z"/>
	<path class="st5" d="M245.3,68.2c0,0.8-0.2,1.3-0.5,1.7s-0.8,0.5-1.4,0.5h-13.3c0,0.9,0.1,1.8,0.3,2.5c0.2,0.8,0.6,1.4,1.1,1.9
		c0.5,0.5,1.1,0.9,1.9,1.2c0.8,0.3,1.7,0.4,2.7,0.4c1.1,0,2-0.1,2.8-0.2c0.8-0.2,1.5-0.3,2.1-0.5c0.6-0.2,1.1-0.4,1.5-0.5
		c0.4-0.2,0.7-0.2,1-0.2c0.1,0,0.3,0,0.4,0.1s0.2,0.2,0.2,0.3s0.1,0.4,0.1,0.6c0,0.3,0,0.6,0,1c0,0.4,0,0.7,0,0.9s0,0.5-0.1,0.6
		c0,0.2-0.1,0.3-0.1,0.5c-0.1,0.1-0.2,0.2-0.3,0.4c-0.1,0.1-0.4,0.3-0.9,0.5s-1.1,0.4-1.8,0.6c-0.7,0.2-1.6,0.4-2.5,0.5
		s-2,0.2-3,0.2c-1.9,0-3.6-0.2-5.1-0.7c-1.5-0.5-2.7-1.2-3.7-2.2c-1-1-1.7-2.3-2.2-3.8c-0.5-1.5-0.7-3.3-0.7-5.3
		c0-1.9,0.3-3.7,0.8-5.2c0.5-1.6,1.2-2.9,2.2-4c1-1.1,2.1-1.9,3.5-2.5c1.4-0.6,2.9-0.9,4.7-0.9c1.8,0,3.4,0.3,4.7,0.8
		c1.3,0.5,2.4,1.3,3.2,2.2s1.4,2.1,1.8,3.4c0.4,1.3,0.6,2.7,0.6,4.3V68.2z M239.3,66.5c0-1.7-0.3-3.1-1-4.1s-1.9-1.5-3.4-1.5
		c-0.8,0-1.5,0.1-2,0.4c-0.6,0.3-1.1,0.7-1.4,1.2s-0.7,1.1-0.9,1.8c-0.2,0.7-0.3,1.4-0.4,2.2H239.3z"/>
	<path class="st5" d="M266.8,76.3c0,0.4,0,0.8,0,1.1c0,0.3-0.1,0.5-0.1,0.7c0,0.2-0.1,0.4-0.1,0.5c-0.1,0.1-0.2,0.3-0.4,0.5
		c-0.2,0.2-0.5,0.4-1,0.7c-0.5,0.3-1,0.5-1.6,0.7c-0.6,0.2-1.3,0.4-2,0.5c-0.7,0.1-1.4,0.2-2.2,0.2c-1.7,0-3.2-0.3-4.5-0.8
		s-2.4-1.3-3.3-2.3c-0.9-1-1.5-2.3-2-3.7c-0.4-1.5-0.7-3.1-0.7-5c0-2.2,0.3-4.1,0.8-5.7c0.5-1.6,1.3-2.9,2.3-4c1-1,2.1-1.8,3.5-2.3
		c1.3-0.5,2.8-0.8,4.4-0.8c0.7,0,1.3,0.1,1.9,0.2c0.6,0.1,1.2,0.3,1.8,0.5s1,0.4,1.5,0.7c0.4,0.2,0.7,0.5,0.9,0.6
		c0.2,0.2,0.3,0.3,0.4,0.5c0.1,0.1,0.1,0.3,0.2,0.5c0,0.2,0.1,0.4,0.1,0.7s0,0.6,0,1c0,0.9-0.1,1.6-0.2,2c-0.2,0.4-0.4,0.6-0.6,0.6
		c-0.3,0-0.6-0.1-0.9-0.3c-0.3-0.2-0.7-0.5-1.1-0.8c-0.4-0.3-0.9-0.5-1.5-0.8c-0.6-0.2-1.3-0.3-2.1-0.3c-1.6,0-2.8,0.6-3.7,1.8
		c-0.8,1.2-1.3,3-1.3,5.4c0,1.2,0.1,2.2,0.3,3.1c0.2,0.9,0.5,1.6,0.9,2.3c0.4,0.6,0.9,1.1,1.6,1.4c0.6,0.3,1.4,0.5,2.2,0.5
		c0.8,0,1.6-0.1,2.2-0.4c0.6-0.3,1.1-0.5,1.6-0.8c0.5-0.3,0.8-0.6,1.1-0.8s0.6-0.4,0.8-0.4c0.1,0,0.3,0,0.4,0.1
		c0.1,0.1,0.2,0.2,0.2,0.5c0.1,0.2,0.1,0.5,0.1,0.8C266.8,75.3,266.8,75.8,266.8,76.3z"/>
	<path class="st5" d="M287.5,59.8c0,0.5,0,1-0.1,1.3c0,0.4-0.1,0.6-0.2,0.9s-0.2,0.4-0.3,0.4c-0.1,0.1-0.3,0.1-0.4,0.1H281v17.2
		c0,0.2,0,0.3-0.1,0.4c-0.1,0.1-0.3,0.2-0.5,0.3c-0.2,0.1-0.5,0.1-0.9,0.2s-0.9,0.1-1.5,0.1c-0.6,0-1.1,0-1.5-0.1
		c-0.4,0-0.7-0.1-0.9-0.2s-0.4-0.2-0.5-0.3c-0.1-0.1-0.1-0.3-0.1-0.4V62.6h-5.5c-0.2,0-0.3,0-0.4-0.1c-0.1-0.1-0.2-0.2-0.3-0.5
		c-0.1-0.2-0.1-0.5-0.2-0.9s-0.1-0.8-0.1-1.4c0-0.5,0-0.9,0.1-1.2s0.1-0.6,0.2-0.8c0.1-0.2,0.2-0.4,0.3-0.5c0.1-0.1,0.3-0.1,0.4-0.1
		h17.1c0.1,0,0.3,0,0.4,0.1c0.1,0.1,0.2,0.2,0.3,0.5c0.1,0.2,0.1,0.5,0.2,0.8S287.5,59.3,287.5,59.8z"/>
	<path class="st5" d="M310.9,73.4c0,1.3-0.2,2.4-0.7,3.3c-0.5,0.9-1.2,1.7-2.1,2.4c-0.9,0.6-2.1,1.1-3.5,1.4c-1.4,0.3-3.1,0.5-5,0.5
		c-0.6,0-1.2,0-1.8,0c-0.5,0-1.1,0-1.6,0s-1,0-1.5-0.1c-0.5,0-1.1-0.1-1.7-0.1c-0.8-0.1-1.3-0.3-1.6-0.7c-0.3-0.4-0.5-1-0.5-1.8
		V59.4c0-0.8,0.2-1.3,0.5-1.7c0.3-0.4,0.8-0.6,1.4-0.7c0.4,0,0.9-0.1,1.4-0.1c0.5,0,1.1-0.1,1.7-0.1c0.6,0,1.3,0,1.9-0.1
		c0.7,0,1.3,0,2,0c1.7,0,3.3,0.1,4.5,0.4c1.3,0.2,2.3,0.6,3.1,1.1c0.8,0.5,1.4,1.1,1.8,1.8c0.4,0.7,0.6,1.6,0.6,2.6
		c0,1.3-0.4,2.4-1.1,3.3c-0.7,0.9-1.7,1.5-3,1.8c1.6,0.3,2.9,0.9,3.8,1.9S310.9,71.8,310.9,73.4z M304.1,63.7c0-0.4-0.1-0.8-0.2-1.2
		c-0.2-0.3-0.4-0.6-0.7-0.9c-0.3-0.2-0.8-0.4-1.4-0.5c-0.6-0.1-1.2-0.2-2-0.2c-0.6,0-1.2,0-1.7,0c-0.5,0-1,0.1-1.4,0.1v5.5h3.3
		c1.4,0,2.4-0.2,3.2-0.7S304.1,64.7,304.1,63.7z M304.7,73.3c0-0.5-0.1-1-0.3-1.4c-0.2-0.4-0.5-0.7-0.9-1c-0.4-0.3-0.9-0.5-1.6-0.6
		c-0.6-0.1-1.4-0.2-2.3-0.2h-3.2v6.3c0.3,0,0.5,0.1,0.8,0.1c0.3,0,0.6,0,0.9,0.1c0.3,0,0.6,0,0.9,0c0.3,0,0.5,0,0.8,0
		c0.9,0,1.6-0.1,2.2-0.2c0.6-0.2,1.1-0.4,1.5-0.7c0.4-0.3,0.7-0.6,0.9-1.1S304.7,73.8,304.7,73.3z"/>
	<path class="st5" d="M335.7,68.2c0,0.8-0.2,1.3-0.5,1.7c-0.3,0.4-0.8,0.5-1.4,0.5h-13.3c0,0.9,0.1,1.8,0.3,2.5
		c0.2,0.8,0.6,1.4,1.1,1.9c0.5,0.5,1.1,0.9,1.9,1.2c0.8,0.3,1.7,0.4,2.7,0.4c1.1,0,2-0.1,2.8-0.2c0.8-0.2,1.5-0.3,2.1-0.5
		c0.6-0.2,1.1-0.4,1.5-0.5c0.4-0.2,0.7-0.2,1-0.2c0.1,0,0.3,0,0.4,0.1s0.2,0.2,0.2,0.3c0.1,0.1,0.1,0.4,0.1,0.6s0,0.6,0,1
		c0,0.4,0,0.7,0,0.9c0,0.3,0,0.5-0.1,0.6c0,0.2-0.1,0.3-0.1,0.5c-0.1,0.1-0.2,0.2-0.3,0.4c-0.1,0.1-0.4,0.3-0.9,0.5
		c-0.5,0.2-1.1,0.4-1.8,0.6c-0.7,0.2-1.6,0.4-2.5,0.5c-0.9,0.1-2,0.2-3,0.2c-1.9,0-3.6-0.2-5.1-0.7s-2.7-1.2-3.7-2.2
		c-1-1-1.7-2.3-2.2-3.8c-0.5-1.5-0.7-3.3-0.7-5.3c0-1.9,0.3-3.7,0.8-5.2c0.5-1.6,1.2-2.9,2.2-4c1-1.1,2.1-1.9,3.5-2.5
		c1.4-0.6,2.9-0.9,4.7-0.9c1.8,0,3.4,0.3,4.7,0.8c1.3,0.5,2.4,1.3,3.2,2.2s1.4,2.1,1.8,3.4s0.6,2.7,0.6,4.3V68.2z M329.8,66.5
		c0-1.7-0.3-3.1-1-4.1s-1.9-1.5-3.4-1.5c-0.8,0-1.5,0.1-2,0.4c-0.6,0.3-1.1,0.7-1.4,1.2s-0.7,1.1-0.9,1.8c-0.2,0.7-0.3,1.4-0.4,2.2
		H329.8z"/>
	<path class="st5" d="M361.9,79.8c0,0.2,0,0.3-0.1,0.4c-0.1,0.1-0.3,0.2-0.5,0.3s-0.5,0.1-0.9,0.2s-0.9,0.1-1.5,0.1
		c-0.6,0-1.1,0-1.5-0.1s-0.7-0.1-0.9-0.2c-0.2-0.1-0.4-0.2-0.5-0.3c-0.1-0.1-0.1-0.3-0.1-0.4v-8.6H347v8.6c0,0.2,0,0.3-0.1,0.4
		c-0.1,0.1-0.3,0.2-0.5,0.3c-0.2,0.1-0.6,0.1-0.9,0.2s-0.9,0.1-1.5,0.1s-1.1,0-1.5-0.1s-0.7-0.1-0.9-0.2s-0.4-0.2-0.5-0.3
		c-0.1-0.1-0.1-0.3-0.1-0.4V58c0-0.2,0-0.3,0.1-0.4c0.1-0.1,0.3-0.2,0.5-0.3c0.2-0.1,0.6-0.1,0.9-0.2c0.4,0,0.9-0.1,1.5-0.1
		s1.1,0,1.5,0.1c0.4,0,0.7,0.1,0.9,0.2c0.2,0.1,0.4,0.2,0.5,0.3c0.1,0.1,0.1,0.3,0.1,0.4v8.2h8.8V58c0-0.2,0-0.3,0.1-0.4
		c0.1-0.1,0.3-0.2,0.5-0.3c0.2-0.1,0.5-0.1,0.9-0.2c0.4,0,0.9-0.1,1.5-0.1c0.6,0,1.1,0,1.5,0.1c0.4,0,0.7,0.1,0.9,0.2
		c0.2,0.1,0.4,0.2,0.5,0.3c0.1,0.1,0.1,0.3,0.1,0.4V79.8z"/>
	<path class="st5" d="M389.3,79.8c0,0.2,0,0.3-0.1,0.4c-0.1,0.1-0.3,0.2-0.5,0.3s-0.5,0.1-0.9,0.2s-0.9,0.1-1.5,0.1
		c-0.6,0-1.1,0-1.5-0.1s-0.7-0.1-0.9-0.2c-0.2-0.1-0.4-0.2-0.5-0.3c-0.1-0.1-0.1-0.3-0.1-0.4v-8.6h-8.8v8.6c0,0.2,0,0.3-0.1,0.4
		c-0.1,0.1-0.3,0.2-0.5,0.3c-0.2,0.1-0.6,0.1-0.9,0.2s-0.9,0.1-1.5,0.1s-1.1,0-1.5-0.1s-0.7-0.1-0.9-0.2s-0.4-0.2-0.5-0.3
		c-0.1-0.1-0.1-0.3-0.1-0.4V58c0-0.2,0-0.3,0.1-0.4c0.1-0.1,0.3-0.2,0.5-0.3c0.2-0.1,0.6-0.1,0.9-0.2c0.4,0,0.9-0.1,1.5-0.1
		s1.1,0,1.5,0.1c0.4,0,0.7,0.1,0.9,0.2c0.2,0.1,0.4,0.2,0.5,0.3c0.1,0.1,0.1,0.3,0.1,0.4v8.2h8.8V58c0-0.2,0-0.3,0.1-0.4
		c0.1-0.1,0.3-0.2,0.5-0.3c0.2-0.1,0.5-0.1,0.9-0.2c0.4,0,0.9-0.1,1.5-0.1c0.6,0,1.1,0,1.5,0.1c0.4,0,0.7,0.1,0.9,0.2
		c0.2,0.1,0.4,0.2,0.5,0.3c0.1,0.1,0.1,0.3,0.1,0.4V79.8z"/>
	<path class="st5" d="M417.5,68.6c0,1.9-0.2,3.6-0.7,5.1c-0.5,1.5-1.2,2.9-2.2,4c-1,1.1-2.2,2-3.7,2.6c-1.5,0.6-3.3,0.9-5.3,0.9
		c-1.9,0-3.6-0.3-5.1-0.8s-2.6-1.3-3.6-2.3c-0.9-1-1.6-2.3-2.1-3.8c-0.5-1.5-0.7-3.2-0.7-5.1c0-1.9,0.2-3.6,0.7-5.1
		c0.5-1.5,1.2-2.9,2.2-4s2.2-2,3.7-2.6c1.5-0.6,3.2-0.9,5.2-0.9c2,0,3.7,0.3,5.1,0.8c1.4,0.5,2.6,1.3,3.6,2.3c0.9,1,1.6,2.3,2.1,3.8
		C417.3,65,417.5,66.7,417.5,68.6z M411.2,68.9c0-1.1-0.1-2.1-0.3-3c-0.2-0.9-0.5-1.7-0.9-2.4c-0.4-0.7-1-1.2-1.6-1.6
		c-0.7-0.4-1.5-0.6-2.6-0.6c-0.9,0-1.7,0.2-2.4,0.5c-0.7,0.3-1.2,0.8-1.7,1.5c-0.4,0.6-0.8,1.4-1,2.3c-0.2,0.9-0.3,1.9-0.3,3.1
		c0,1.1,0.1,2.1,0.3,3c0.2,0.9,0.5,1.7,0.9,2.4s0.9,1.2,1.6,1.6c0.7,0.4,1.5,0.6,2.5,0.6c0.9,0,1.7-0.2,2.4-0.5
		c0.7-0.3,1.2-0.8,1.7-1.5c0.4-0.6,0.8-1.4,1-2.3C411.1,71.1,411.2,70,411.2,68.9z"/>
	<path class="st5" d="M436.6,59.8c0,0.5,0,0.9-0.1,1.3c0,0.4-0.1,0.6-0.2,0.8c-0.1,0.2-0.2,0.4-0.3,0.5c-0.1,0.1-0.3,0.1-0.4,0.1
		h-7.1v17.2c0,0.2,0,0.3-0.1,0.4c-0.1,0.1-0.3,0.2-0.5,0.3c-0.2,0.1-0.6,0.1-0.9,0.2s-0.9,0.1-1.5,0.1s-1.1,0-1.5-0.1
		s-0.7-0.1-0.9-0.2s-0.4-0.2-0.5-0.3c-0.1-0.1-0.1-0.3-0.1-0.4V59.1c0-0.7,0.1-1.1,0.4-1.5c0.3-0.3,0.7-0.5,1.3-0.5h11.5
		c0.2,0,0.3,0,0.4,0.1c0.1,0.1,0.2,0.2,0.3,0.5c0.1,0.2,0.1,0.5,0.2,0.8C436.6,58.9,436.6,59.3,436.6,59.8z"/>
	<path class="st5" d="M461.8,68.6c0,1.9-0.2,3.6-0.7,5.1c-0.5,1.5-1.2,2.9-2.2,4c-1,1.1-2.2,2-3.7,2.6c-1.5,0.6-3.3,0.9-5.3,0.9
		c-1.9,0-3.6-0.3-5.1-0.8s-2.6-1.3-3.6-2.3c-0.9-1-1.6-2.3-2.1-3.8c-0.5-1.5-0.7-3.2-0.7-5.1c0-1.9,0.2-3.6,0.7-5.1
		c0.5-1.5,1.2-2.9,2.2-4s2.2-2,3.7-2.6c1.5-0.6,3.2-0.9,5.2-0.9c2,0,3.7,0.3,5.1,0.8c1.4,0.5,2.6,1.3,3.6,2.3c0.9,1,1.6,2.3,2.1,3.8
		C461.6,65,461.8,66.7,461.8,68.6z M455.5,68.9c0-1.1-0.1-2.1-0.3-3c-0.2-0.9-0.5-1.7-0.9-2.4c-0.4-0.7-1-1.2-1.6-1.6
		c-0.7-0.4-1.5-0.6-2.6-0.6c-0.9,0-1.7,0.2-2.4,0.5c-0.7,0.3-1.2,0.8-1.7,1.5c-0.4,0.6-0.8,1.4-1,2.3c-0.2,0.9-0.3,1.9-0.3,3.1
		c0,1.1,0.1,2.1,0.3,3c0.2,0.9,0.5,1.7,0.9,2.4s0.9,1.2,1.6,1.6c0.7,0.4,1.5,0.6,2.5,0.6c0.9,0,1.7-0.2,2.4-0.5
		c0.7-0.3,1.2-0.8,1.7-1.5c0.4-0.6,0.8-1.4,1-2.3C455.3,71.1,455.5,70,455.5,68.9z"/>
	<path class="st5" d="M503,79.8c0,0.2,0,0.3-0.1,0.4c-0.1,0.1-0.3,0.2-0.5,0.3s-0.6,0.1-1,0.2c-0.4,0-0.9,0.1-1.6,0.1
		c-0.6,0-1.1,0-1.6-0.1s-0.7-0.1-1-0.2c-0.2-0.1-0.4-0.2-0.5-0.3c-0.1-0.1-0.2-0.3-0.2-0.4V54.3h-11.8v25.5c0,0.2-0.1,0.3-0.2,0.4
		c-0.1,0.1-0.3,0.2-0.5,0.3c-0.2,0.1-0.6,0.1-1,0.2c-0.4,0-0.9,0.1-1.6,0.1c-0.6,0-1.1,0-1.6-0.1s-0.7-0.1-1-0.2
		c-0.2-0.1-0.4-0.2-0.5-0.3c-0.1-0.1-0.1-0.3-0.1-0.4V51c0-0.7,0.2-1.2,0.5-1.5c0.3-0.3,0.8-0.5,1.4-0.5h20.9c0.6,0,1,0.2,1.4,0.5
		c0.3,0.3,0.5,0.8,0.5,1.5V79.8z"/>
	<path class="st5" d="M538.4,64.4c0,2.6-0.3,5-1,7c-0.7,2.1-1.6,3.8-2.9,5.3s-2.9,2.5-4.8,3.3c-1.9,0.8-4.1,1.1-6.6,1.1
		c-2.5,0-4.6-0.3-6.4-1s-3.4-1.6-4.6-2.9c-1.2-1.3-2.1-3-2.8-5c-0.6-2-0.9-4.5-0.9-7.2c0-2.6,0.3-4.9,1-6.9s1.6-3.8,2.9-5.2
		c1.3-1.4,2.9-2.5,4.8-3.3c1.9-0.8,4.1-1.1,6.6-1.1c2.4,0,4.5,0.3,6.3,1s3.4,1.6,4.6,2.9c1.2,1.3,2.2,3,2.8,5
		C538.1,59.3,538.4,61.7,538.4,64.4z M531.6,64.8c0-1.7-0.1-3.2-0.4-4.5s-0.7-2.5-1.3-3.5c-0.6-1-1.5-1.7-2.5-2.3
		c-1-0.5-2.3-0.8-3.9-0.8c-1.6,0-2.9,0.3-4,0.9c-1.1,0.6-1.9,1.4-2.6,2.4c-0.7,1-1.1,2.2-1.4,3.5c-0.3,1.3-0.4,2.7-0.4,4.2
		c0,1.7,0.1,3.3,0.4,4.7c0.3,1.4,0.7,2.6,1.3,3.5s1.5,1.7,2.5,2.2s2.4,0.8,3.9,0.8c1.6,0,2.9-0.3,4-0.9c1.1-0.6,1.9-1.4,2.6-2.4
		c0.7-1,1.1-2.2,1.4-3.5C531.5,67.7,531.6,66.3,531.6,64.8z"/>
</g>
</svg>
