<?xml version="1.0" encoding="utf-8"?>
<!-- Generator: Adobe Illustrator 21.0.0, SVG Export Plug-In . SVG Version: 6.00 Build 0)  -->
<svg version="1.1" id="Layer_1" xmlns="http://www.w3.org/2000/svg" xmlns:xlink="http://www.w3.org/1999/xlink" x="0px" y="0px"
	 viewBox="0 0 36 36" style="enable-background:new 0 0 36 36;" xml:space="preserve">
<style type="text/css">
	.st0{fill:#1E73B7;}
</style>
<g>
	<g>
		<path class="st0" d="M13.4,18.3h6.5c0.2,0,0.4-0.2,0.4-0.4c0-0.2-0.2-0.4-0.4-0.4h-6.5l1.4-1.4c0.1-0.1,0.1-0.4,0-0.5
			s-0.4-0.1-0.5,0L12,17.9l2.2,2.3c0.1,0.1,0.2,0.1,0.3,0.1c0.1,0,0.2,0,0.3-0.1c0.1-0.1,0.1-0.4,0-0.5L13.4,18.3z M23.2,11.9h-6.4
			c-0.4,0-0.8,0.3-0.8,0.8v3.4h0.8v-2.9c0-0.3,0.2-0.5,0.5-0.5h5.4c0.3,0,0.5,0.2,0.5,0.5v9.6c0,0.3-0.2,0.5-0.5,0.5h-5.5
			c-0.3,0-0.5-0.2-0.5-0.5v-2.9h-0.8v3.4c0,0.4,0.3,0.8,0.8,0.8h6.4c0.4,0,0.8-0.3,0.8-0.8V12.7C24,12.2,23.7,11.9,23.2,11.9z"/>
	</g>
</g>
</svg>
