<?xml version="1.0" encoding="utf-8"?>
<!-- Generator: Adobe Illustrator 22.1.0, SVG Export Plug-In . SVG Version: 6.00 Build 0)  -->
<svg version="1.1" id="Слой_1" xmlns="http://www.w3.org/2000/svg" xmlns:xlink="http://www.w3.org/1999/xlink" x="0px" y="0px"
	 viewBox="0 0 72.8 72.6" style="enable-background:new 0 0 72.8 72.6;" xml:space="preserve">
<style type="text/css">
	.st0{fill:#3978A7;}
	.st1{display:none;fill:#1C99E5;}
	.st2{display:none;fill:#3978A7;}
	.st3{fill:#FFFFFF;}
</style>
<path class="st0" d="M37.1,0h-1.4C16,0,0,15.9,0,35.6V37c0,19.7,16,35.6,35.7,35.6h1.4c19.7,0,35.7-15.9,35.7-35.6v-1.4
	C72.8,15.9,56.8,0,37.1,0z"/>
<path class="st1" d="M50.8,42.5c-3.2-2.9-2.7-2.5,1.1-7.6c2.4-3.1,3.3-5,3-5.8s-2-0.6-2-0.6h-5.7c0,0-0.4-0.1-0.7,0.1
	S46,29.2,46,29.2s-0.9,2.4-2.1,4.5c-2.6,4.3-3.6,4.6-4,4.3c-0.9-0.7-0.7-2.6-0.7-3.9c0-4.2,0.7-5.9-1.2-6.4
	c-0.7-0.2-1.1-0.3-2.7-0.3c-2,0-3.7,0-4.7,0.5C30,28.2,29.5,29,29.8,29c0.4,0,1.2,0.2,1.6,0.8c0.6,0.8,0.6,2.6,0.6,2.6
	s0.3,5-0.8,5.6c-0.8,0.4-1.8-0.5-4.1-4.4c-1.1-2-2-4.2-2-4.2s-0.2-0.4-0.5-0.6c-0.4-0.3-0.9-0.4-0.9-0.4h-5.4c0,0-0.8,0-1.1,0.4
	c-0.2,0.3,0,0.9,0,0.9s4.2,10,9,15c4.4,4.6,9.4,4.2,9.4,4.2h2.3c0,0,0.6,0,1-0.4c0.3-0.3,0.3-0.9,0.3-0.9s0-3,1.4-3.5
	c1.4-0.4,3.2,3,5.1,4.3c1.4,1,2.5,0.8,2.5,0.8l5.1-0.1c0,0,2.7-0.2,1.3-2.2C54.5,46.7,53.8,45.3,50.8,42.5z"/>
<path class="st2" d="M-72-1.6h-122.7c-5.9,0-10.6,4.6-10.6,10.4V132c0,5.7,4.8,10.4,10.6,10.4H-72c5.9,0,10.7-4.7,10.7-10.4V8.8
	C-61.4,3-66.2-1.6-72-1.6z"/>
<g>
	<path class="st3" d="M22.4,31.4h6v19.3h-6V31.4z M25.4,21.8c1.9,0,3.5,1.6,3.5,3.5c0,1.9-1.6,3.5-3.5,3.5c-1.9,0-3.5-1.6-3.5-3.5
		C21.9,23.4,23.5,21.8,25.4,21.8"/>
	<path class="st3" d="M32.2,31.4h5.8v2.6H38c0.8-1.5,2.8-3.1,5.7-3.1c6.1,0,7.2,4,7.2,9.2v10.6h-6v-9.4c0-2.2,0-5.1-3.1-5.1
		c-3.1,0-3.6,2.4-3.6,5v9.6h-6V31.4z"/>
</g>
</svg>
