<svg width="19" height="19" viewBox="0 0 19 19" fill="none" xmlns="http://www.w3.org/2000/svg">
<g clip-path="url(#clip0)">
<path d="M19 17.1L15.5958 0.633339C15.5167 0.237505 15.1208 -0.0791614 14.6458 5.31481e-06L10.6083 0.791672C10.5292 0.791672 10.45 0.791672 10.2917 0.791672H5.54167H0.791667C0.316667 0.791672 0 1.10834 0 1.58334V18.2083C0 18.6833 0.316667 19 0.791667 19H5.54167H10.2917C10.7667 19 11.0833 18.6833 11.0833 18.2083V10.3708L12.7458 18.3667C12.825 18.7625 13.2208 19.0792 13.6958 19L18.3667 18.05C18.7625 17.9708 19.0792 17.575 19 17.1ZM1.58333 2.37501H4.75V8.70834H1.58333V2.37501ZM1.58333 9.50001H4.75V15.0417H1.58333V9.50001ZM1.58333 15.8333H4.75V17.4167H1.58333V15.8333ZM9.5 17.4167H6.33333V15.8333H9.5V17.4167ZM9.5 15.0417H6.33333V9.50001H9.5V15.0417ZM9.5 8.70834H6.33333V2.37501H9.42083L9.5 2.69167V8.70834ZM11.0833 2.45417L14.1708 1.82084L15.4375 8.07501L12.2708 8.70834L11.0833 2.45417ZM13.6167 14.9625L12.5083 9.50001L15.675 8.86667L16.7833 14.3292L13.6167 14.9625ZM14.0917 17.2583L13.775 15.675L16.9417 15.0417L17.2583 16.625L14.0917 17.2583Z" fill="#1E73B7"/>
</g>
<defs>
<clipPath id="clip0">
<rect width="19" height="19" fill="white"/>
</clipPath>
</defs>
</svg>
