<?xml version="1.0" encoding="utf-8"?>
<!-- Generator: Adobe Illustrator 20.1.0, SVG Export Plug-In . SVG Version: 6.00 Build 0)  -->
<svg version="1.1" id="Слой_1" xmlns="http://www.w3.org/2000/svg" xmlns:xlink="http://www.w3.org/1999/xlink" x="0px" y="0px"
	 viewBox="0 0 72.8 72.6" style="enable-background:new 0 0 72.8 72.6;" xml:space="preserve">
<style type="text/css">
	.st0{fill:#28C3FF;}
	.st1{fill:#FFFFFF;}
</style>
<g>
	<path class="st0" d="M37.2-0.1h-1.4C16-0.1,0,15.9,0,35.7v1.4c0,19.8,16,35.8,35.8,35.8h1.4C57,72.9,73,56.9,73,37.1v-1.4
		C73,15.9,57-0.1,37.2-0.1z"/>
	<path class="st1" d="M50,28.1L47.4,29v-0.1c1.1-0.9,1.9-2,2.3-3.1h-0.1c-1.3,0.5-2.5,1-3.4,1.3c-0.1,0.1-0.3,0.1-0.4,0
		c-0.6-0.4-2.3-1.3-3.5-1.3c-3.1,0.1-5.4,2.7-5.4,5.8v0.7c-6-1-8.2-2.5-11.2-5.6c-1.8,3.4,0.1,6.3,2.2,7.9c-1.5,0-2.7-0.2-3.6-1
		c-0.1,0-0.1,0-0.1,0.1c0.8,2.9,3.5,5,5.6,5.6c-1.9,0-3.2,0.2-4.5-0.6c-0.1,0-0.1,0-0.1,0.1c1,2.8,3,3.7,6,3.7
		c-1.4,1.1-3.4,2.2-7.2,2.3c-0.2,0-0.2,0.2-0.1,0.3c1.4,1.1,4.9,2,9.7,2C41.5,47.1,48,40,48,31.3v-0.5C49,30.4,49.9,29.3,50,28.1
		C50.1,28.1,50,28.1,50,28.1z"/>
</g>
</svg>
