<?xml version="1.0" encoding="utf-8"?>
<!-- Generator: Adobe Illustrator 20.1.0, SVG Export Plug-In . SVG Version: 6.00 Build 0)  -->
<svg version="1.1" id="Layer_1" xmlns="http://www.w3.org/2000/svg" xmlns:xlink="http://www.w3.org/1999/xlink" x="0px" y="0px"
	 viewBox="0 0 23.7 23.7" style="enable-background:new 0 0 23.7 23.7;" xml:space="preserve">
<style type="text/css">
	.st0{fill:#1E73B7;}
</style>
<g>
	<g>
		<path class="st0" d="M11.9,0C5.3,0,0,5.3,0,11.9s5.3,11.9,11.9,11.9s11.9-5.3,11.9-11.9C23.7,5.4,18.5,0,11.9,0z M11.9,22.3
			c-5.7,0-10.4-4.7-10.4-10.4S6.1,1.5,11.9,1.5c5.7,0,10.4,4.6,10.4,10.4C22.3,17.7,17.5,22.3,11.9,22.3z M7.8,11.9
			c0,0.9-0.7,1.7-1.7,1.7c-0.9,0-1.7-0.7-1.7-1.7s0.7-1.7,1.7-1.7C7.1,10.2,7.8,11,7.8,11.9z M13.4,11.9c0,0.9-0.7,1.7-1.7,1.7
			s-1.7-0.7-1.7-1.7c0-0.9,0.7-1.7,1.7-1.7S13.4,11,13.4,11.9z M18.9,11.9c0,0.9-0.7,1.7-1.7,1.7s-1.7-0.7-1.7-1.7s0.7-1.7,1.7-1.7
			S18.9,11,18.9,11.9z"/>
	</g>
</g>
</svg>
