<svg width="17" height="17" viewBox="0 0 17 17" fill="none" xmlns="http://www.w3.org/2000/svg">
<path d="M16.2273 14.9092H0.772727C0.345976 14.9092 0 15.2552 0 15.6819C0 16.1087 0.345976 16.4546 0.772727 16.4546H16.2273C16.654 16.4546 17 16.1087 17 15.6819C17 15.2552 16.654 14.9092 16.2273 14.9092Z" fill="#1E73B7"/>
<path d="M16.2272 11.8181H4.89382C4.46707 11.8181 4.12109 12.1641 4.12109 12.5908C4.12109 13.0176 4.46707 13.3636 4.89382 13.3636H16.2272C16.6539 13.3636 16.9999 13.0176 16.9999 12.5908C16.9999 12.1641 16.6539 11.8181 16.2272 11.8181Z" fill="#1E73B7"/>
<path d="M0.772727 4.09086H16.2273C16.654 4.09086 17 3.74489 17 3.31814C17 2.89139 16.654 2.54541 16.2273 2.54541H0.772727C0.345976 2.54541 0 2.89139 0 3.31814C0 3.74489 0.345976 4.09086 0.772727 4.09086Z" fill="#1E73B7"/>
<path d="M0.772727 10.0909H16.2273C16.654 10.0909 17 9.74489 17 9.31814C17 8.89139 16.654 8.54541 16.2273 8.54541H0.772727C0.345976 8.54541 0 8.89139 0 9.31814C0 9.74489 0.345976 10.0909 0.772727 10.0909Z" fill="#1E73B7"/>
<path d="M16.2272 5.63623H4.89382C4.46707 5.63623 4.12109 5.98221 4.12109 6.40896C4.12109 6.83571 4.46707 7.18168 4.89382 7.18168H16.2272C16.6539 7.18168 16.9999 6.83571 16.9999 6.40896C16.9999 5.98221 16.6539 5.63623 16.2272 5.63623Z" fill="#1E73B7"/>
</svg>
