<?xml version="1.0" encoding="utf-8"?>
<!-- Generator: Adobe Illustrator 16.0.0, SVG Export Plug-In . SVG Version: 6.00 Build 0)  -->
<!DOCTYPE svg PUBLIC "-//W3C//DTD SVG 1.1//EN" "http://www.w3.org/Graphics/SVG/1.1/DTD/svg11.dtd">
<svg version="1.1" id="Layer_1" xmlns="http://www.w3.org/2000/svg" xmlns:xlink="http://www.w3.org/1999/xlink" x="0px" y="0px"
	 width="23.713px" height="23.664px" viewBox="0 0 23.713 23.664" enable-background="new 0 0 23.713 23.664" xml:space="preserve">
<g>
	<g>
		<path fill="#2F4553" d="M20.946,22.082H1.383V6.867h6.126L9.09,5.483l0,0H1.581C0.79,5.483,0,6.076,0,7.064v15.018
			c0,0.791,0.593,1.582,1.581,1.582h19.563c0.791,0,1.582-0.594,1.582-1.582V10.226l-1.582,1.383v10.473H20.946L20.946,22.082z
			 M6.125,15.957h1.582C8.695,10.029,14.03,5.286,20.155,5.286c0.197,0,0.594,0,0.791,0L18.179,8.25
			c-0.197,0.198-0.197,0.791,0,0.988c0.199,0.197,0.396,0.197,0.594,0.197s0.395,0,0.592-0.197l4.348-4.545l-4.348-4.545
			c-0.197-0.197-0.789-0.197-0.986,0c-0.199,0.197-0.199,0.79,0,0.988l2.766,2.767c-0.197,0-0.395,0-0.791,0
			C13.043,3.902,7.113,9.238,6.125,15.957z"/>
	</g>
</g>
</svg>
