<?xml version="1.0" encoding="utf-8"?>
<!-- Generator: Adobe Illustrator 16.0.0, SVG Export Plug-In . SVG Version: 6.00 Build 0)  -->
<!DOCTYPE svg PUBLIC "-//W3C//DTD SVG 1.1//EN" "http://www.w3.org/Graphics/SVG/1.1/DTD/svg11.dtd">
<svg version="1.1" id="Layer_1" xmlns="http://www.w3.org/2000/svg" xmlns:xlink="http://www.w3.org/1999/xlink" x="0px" y="0px"
	 width="11.818px" height="17.688px" viewBox="0 0 11.818 17.688" enable-background="new 0 0 11.818 17.688" xml:space="preserve">
<path fill="#2F4553" d="M4.149,8.913l7.216-6.005c0.603-0.583,0.615-1.373,0.033-1.978l-0.191-0.397
	C10.624-0.071,9.834-0.084,9.232,0.5L1.011,7.477l0,0L0.41,7.862C0.208,8.057,0.006,8.448-0.001,8.843s0.184,0.794,0.378,0.995
	l0.587,0.406l0,0l7.985,7.051c0.582,0.602,1.57,0.617,2.173,0.035l0.205-0.392c0.603-0.582,0.417-1.376-0.165-1.978L4.149,8.913z"/>
</svg>
