<?xml version="1.0" encoding="utf-8"?>
<!-- Generator: Adobe Illustrator 20.1.0, SVG Export Plug-In . SVG Version: 6.00 Build 0)  -->
<svg version="1.1" id="Layer_1" xmlns="http://www.w3.org/2000/svg" xmlns:xlink="http://www.w3.org/1999/xlink" x="0px" y="0px"
	 viewBox="0 0 18 18" style="enable-background:new 0 0 18 18;" xml:space="preserve">
<style type="text/css">
	.st0{fill:#1E73B7;}
</style>
<g>
	<g>
		<path class="st0" d="M9,0C4,0,0,4,0,9s4,9,9,9s9-4,9-9C18,3.9,14,0,9,0z M9,16.9c-4.4,0-7.9-3.6-7.9-7.9c0-4.4,3.5-7.9,7.9-7.9
			s7.9,3.5,7.9,7.9C16.9,13.3,13.3,16.9,9,16.9z M12.9,8.4H6.6l2-2c0.2-0.2,0.2-0.6,0-0.8c-0.2-0.2-0.6-0.2-0.8,0L4.5,9l3.4,3.4
			c0.1,0.1,0.2,0.1,0.4,0.1c0.1,0,0.3,0,0.5-0.1c0.2-0.2,0.2-0.6,0-0.8l-2-2h6.4c0.3,0,0.6-0.2,0.6-0.6C13.5,8.7,13.3,8.4,12.9,8.4z
			"/>
	</g>
</g>
</svg>
