<svg width="19" height="19" viewBox="0 0 19 19" fill="none" xmlns="http://www.w3.org/2000/svg">
<g clip-path="url(#clip0)">
<path fill-rule="evenodd" clip-rule="evenodd" d="M18.3553 8.68354C17.9251 8.25329 17.4093 8.03829 16.808 8.03829H16.0774V5.1152C16.0774 4.81081 16.001 4.47571 15.8487 4.11048C15.6965 3.7451 15.5139 3.45587 15.3008 3.24271L13.565 1.50707C13.3519 1.2941 13.0627 1.11133 12.6974 0.958996C12.332 0.806821 11.9972 0.730713 11.6926 0.730713H4.01934C3.71483 0.730713 3.45595 0.837216 3.24279 1.05038C3.02974 1.26343 2.92308 1.52226 2.92308 1.82682V8.03829H2.19236C1.59098 8.03829 1.07526 8.25341 0.645094 8.68354C0.215005 9.11355 0 9.62931 0 10.2307V14.9809C0 15.08 0.036194 15.1652 0.108462 15.2379C0.18081 15.31 0.266476 15.3461 0.36534 15.3461H2.92308V17.173C2.92308 17.4777 3.02962 17.7365 3.24279 17.9496C3.45595 18.1626 3.71483 18.2693 4.01934 18.2693H14.9809C15.2852 18.2693 15.5445 18.1626 15.7575 17.9496C15.9705 17.7364 16.0772 17.4777 16.0772 17.173V15.3461H18.6349C18.7337 15.3461 18.8193 15.31 18.8916 15.2379C18.9639 15.1653 19 15.08 19 14.9809V10.2307C19.0002 9.62931 18.7852 9.11355 18.3553 8.68354ZM14.6156 9.49993H4.38472V2.19228H11.6926V4.01914C11.6926 4.32365 11.7993 4.58237 12.0121 4.79557C12.2252 5.00874 12.484 5.11524 12.7887 5.11524H14.6156V9.49993Z" fill="#D5D9E2"/>
</g>
<defs>
<clipPath id="clip0">
<rect width="19" height="19" fill="white"/>
</clipPath>
</defs>
</svg>
