<svg width="18" height="18" viewBox="0 0 18 18" fill="none" xmlns="http://www.w3.org/2000/svg">
<path d="M13.4494 8.20463C13.3583 8.00325 13.1581 7.875 12.9376 7.875H10.6876V0.5625C10.6876 0.252 10.4356 0 10.1251 0H7.87507C7.56457 0 7.31257 0.252 7.31257 0.5625V7.875H5.06257C4.84207 7.875 4.64182 8.00438 4.55069 8.20463C4.45844 8.406 4.49444 8.64112 4.63957 8.80762L8.57707 13.3076C8.68394 13.4303 8.83807 13.5 9.00007 13.5C9.16207 13.5 9.31619 13.4291 9.42307 13.3076L13.3606 8.80762C13.5068 8.64225 13.5406 8.406 13.4494 8.20463Z" fill="#D5D9E2"/>
<path d="M15.1875 12.375V15.75H2.8125V12.375H0.5625V16.875C0.5625 17.4971 1.0665 18 1.6875 18H16.3125C16.9346 18 17.4375 17.4971 17.4375 16.875V12.375H15.1875Z" fill="#D5D9E2"/>
</svg>
