<?xml version="1.0" encoding="utf-8"?>
<!-- Generator: Adobe Illustrator 20.1.0, SVG Export Plug-In . SVG Version: 6.00 Build 0)  -->
<svg version="1.1" id="Слой_1" xmlns="http://www.w3.org/2000/svg" xmlns:xlink="http://www.w3.org/1999/xlink" x="0px" y="0px"
	 viewBox="0 0 18 18" style="enable-background:new 0 0 18 18;" xml:space="preserve">
<style type="text/css">
	.st0{fill:#D76263;}
	.st1{fill:#D76263;stroke:#D76263;stroke-width:0.25;stroke-miterlimit:10;}
</style>
<path class="st0" d="M9,1.1c4.3,0,7.9,3.5,7.9,7.9c0,4.3-3.5,7.9-7.9,7.9c-4.3,0-7.9-3.6-7.9-7.9C1.1,4.7,4.7,1.1,9,1.1 M9,0
	C4,0,0,4,0,9c0,5,4,9,9,9c5,0,9-4,9-9C18,4,14,0,9,0L9,0z"/>
<g>
	<g>
		<path class="st1" d="M13,5.5h-2.4V4.6c0-0.5-0.4-0.7-0.8-0.7H8.1c-0.5,0-0.8,0.4-0.8,0.7v0.9H4.9c-0.2,0-0.4,0.2-0.4,0.4
			s0.2,0.4,0.4,0.4h0.5L6.2,14c0,0.4,0.4,0.6,0.7,0.6h4.3c0.4,0,0.7-0.3,0.7-0.6l0.8-7.8h0.5c0.2,0,0.4-0.2,0.4-0.4
			C13.4,5.6,13.2,5.5,13,5.5z M8,4.5C8,4.4,8,4.4,8,4.5l1.9-0.1c0.1,0,0.1,0,0.1,0.1v0.9H8V4.5L8,4.5z M11.1,13.8
			C11.1,13.9,11,13.9,11.1,13.8H6.9l0,0L6.1,6.1h5.9L11.1,13.8z"/>
	</g>
</g>
</svg>
