<svg width="20" height="11" viewBox="0 0 20 11" fill="none" xmlns="http://www.w3.org/2000/svg">
<path d="M7.5556 3.15897L5.4859 0.149414L3.41626 3.15903L0 4.26633L2.13468 7.23872L2.09777 10.9353L5.4859 9.7571L8.87397 10.9352L8.83706 7.23865L10.9718 4.26626L7.5556 3.15897ZM6.98938 8.24556L5.4859 7.72278L3.98242 8.24556L3.99873 6.60741L3.05712 5.29625L4.56533 4.8074L5.4859 3.46877L6.40647 4.8074L7.91468 5.29625L6.97301 6.60741L6.98938 8.24556Z" fill="#D5D9E2"/>
<path d="M12.5801 8.94678H19.1477V10.8759H12.5801V8.94678Z" fill="#D5D9E2"/>
<path d="M12.5801 5.12451H19.1477V7.0536H12.5801V5.12451Z" fill="#D5D9E2"/>
<path d="M12.5801 1.26611H19.1477V3.1952H12.5801V1.26611Z" fill="#D5D9E2"/>
</svg>
