<?xml version="1.0" encoding="utf-8"?>
<!-- Generator: Adobe Illustrator 21.1.0, SVG Export Plug-In . SVG Version: 6.00 Build 0)  -->
<svg version="1.1" id="Layer_1" xmlns="http://www.w3.org/2000/svg" xmlns:xlink="http://www.w3.org/1999/xlink" x="0px" y="0px"
	 viewBox="0 0 23.7 29.6" style="enable-background:new 0 0 23.7 29.6;" xml:space="preserve">
<style type="text/css">
	.st0{fill:#FFFFFF;}
</style>
<path class="st0" d="M14.2,0H2C0.8,0,0,0.8,0,2v12.6v13.1c0,1.2,1,2,2,2h7.9h4h7.9c1,0,2-0.8,2-2v-7.9v-5.2V7.9L14.2,0z M13.8,2.2
	l6.9,5.7h-6.9C13.8,7.9,13.8,2.2,13.8,2.2z M21.7,27.7h-7.9h-4H2V14.6V2h9.9v7.9h9.9v9.9l0,0L21.7,27.7L21.7,27.7z"/>
</svg>
