<?xml version="1.0" encoding="utf-8"?>
<!-- Generator: Adobe Illustrator 20.1.0, SVG Export Plug-In . SVG Version: 6.00 Build 0)  -->
<svg version="1.1" id="Слой_1" xmlns="http://www.w3.org/2000/svg" xmlns:xlink="http://www.w3.org/1999/xlink" x="0px" y="0px"
	 viewBox="0 0 69 40.9" style="enable-background:new 0 0 69 40.9;" xml:space="preserve">
<style type="text/css">
	.st0{fill:#8F8F8F;}
</style>
<g>
	<g>
		<path class="st0" d="M67.9,17.4c-0.7-0.9-1.5-1.7-2.3-2.4C61.2,10.6,56.5,7,51.3,4.3c-3.7-1.9-7.4-3.2-10.9-3.8
			C38.3,0.1,36.3,0,34.6,0c-1.8,0-3.8,0.1-5.9,0.5c-3.6,0.7-7.2,1.9-10.9,3.8c-5.1,2.6-9.8,6.2-14.3,10.6c-0.9,0.9-1.6,1.6-2.3,2.4
			c-1.5,1.8-1.5,4.2,0,6.1c1.8,2.2,4.3,4.5,7.4,6.9c6.5,5.2,12.9,8.5,19.2,9.9c2.2,0.5,4.5,0.7,6.9,0.7c2.3,0,4.5-0.2,6.8-0.7
			c6.3-1.4,12.8-4.6,19.3-9.9c3.3-2.6,5.7-4.9,7.3-6.9C69.4,21.6,69.5,19.2,67.9,17.4L67.9,17.4z M64.7,20.7c-1.6,2-3.9,4.1-6.8,6.4
			c-5.9,4.7-11.7,7.8-17.5,9c-2.1,0.4-4.1,0.6-5.9,0.6h-0.1c-1.8,0-3.8-0.2-5.8-0.6c-5.7-1.2-11.6-4.2-17.6-9
			c-2.8-2.3-5.1-4.4-6.7-6.4c-0.3-0.2-0.3-0.4,0-0.7c0.2-0.3,0.5-0.6,1-1.1c0.5-0.5,0.8-0.9,1-1.1c4.3-4.3,8.8-7.5,13.3-9.7
			c3.6-1.8,6.8-3,9.8-3.5c1.7-0.3,3.4-0.4,5.2-0.4c1.7,0,3.4,0.1,5.1,0.4c3,0.5,6.2,1.7,9.8,3.5c4.6,2.3,9,5.5,13.2,9.7
			c1,1,1.7,1.7,2.1,2.2C64.9,20.3,64.9,20.6,64.7,20.7L64.7,20.7z M64.7,20.7"/>
	</g>
	<path class="st0" d="M34.6,7.2c-3.6,0-6.8,1.3-9.4,3.9c-2.6,2.6-3.9,5.7-3.9,9.3s1.3,6.7,3.9,9.3c2.6,2.6,5.7,3.8,9.4,3.8
		c3.6,0,6.7-1.3,9.3-3.8c2.6-2.6,3.9-5.7,3.9-9.3s-1.3-6.7-3.9-9.3C41.3,8.5,38.2,7.2,34.6,7.2L34.6,7.2z M40.9,26.8
		c-1.8,1.8-3.9,2.6-6.3,2.6c-2.5,0-4.7-0.9-6.4-2.7c-1.8-1.8-2.7-3.9-2.7-6.3c0-2.5,0.9-4.6,2.7-6.4c1.8-1.8,3.9-2.7,6.4-2.7
		c2.5,0,4.6,0.9,6.3,2.7c1.8,1.8,2.6,3.9,2.6,6.4C43.5,22.9,42.7,25.1,40.9,26.8L40.9,26.8z M40.9,26.8"/>
</g>
</svg>
