<?xml version="1.0" encoding="utf-8"?>
<!-- Generator: Adobe Illustrator 20.1.0, SVG Export Plug-In . SVG Version: 6.00 Build 0)  -->
<svg version="1.1" id="Layer_1" xmlns="http://www.w3.org/2000/svg" xmlns:xlink="http://www.w3.org/1999/xlink" x="0px" y="0px"
	 viewBox="0 0 31.6 31.6" style="enable-background:new 0 0 31.6 31.6;" xml:space="preserve">
<style type="text/css">
	.st0{fill:#1E73B7;}
</style>
<g>
	<g>
		<path class="st0" d="M15.8,0C7.1,0,0,7.1,0,15.8s7.1,15.8,15.8,15.8s15.8-7.1,15.8-15.8S24.5,0,15.8,0z M15.8,29.6
			C8.1,29.6,2,23.3,2,15.8C2,8.1,8.1,2,15.8,2s13.8,6.1,13.8,13.8C29.6,23.3,23.5,29.6,15.8,29.6z M14.4,24.7H17v-2.6h-2.6V24.7z
			 M15.8,6.9c-1.4,0-2.6,0.4-3.6,1.2c-1,0.8-1.4,2.4-1.4,3.6l0,0H13c0-0.8,0.2-2,0.8-2.4c0.6-0.4,1.2-0.6,1.8-0.6
			c0.8,0,1.6,0.2,2,0.6c0.4,0.4,0.6,1.2,0.6,2S18,12.6,17.6,13c-0.4,0.6-1,1.2-1.8,2.2C15,16,14.4,16.6,14.2,17
			c-0.2,0.4-0.2,1.2-0.4,2.4h2.4c0-0.8,0-1.2,0.2-1.6c0-0.4,0.4-0.8,0.8-1.2c1-1,1.8-1.8,2.2-2.6c0.6-0.8,0.8-1.8,0.8-2.8
			c0-1.4-0.4-2.6-1.4-3.4C18.6,7.3,17.4,6.9,15.8,6.9z"/>
	</g>
</g>
</svg>
