<svg width="28" height="28" viewBox="0 0 28 28" fill="none" xmlns="http://www.w3.org/2000/svg">
<g clip-path="url(#clip0)">
<path d="M14 28.0001C21.732 28.0001 28.0001 21.732 28.0001 14C28.0001 6.26803 21.732 0 14 0C6.26803 0 0 6.26803 0 14C0 21.732 6.26803 28.0001 14 28.0001Z" fill="#FF0000"/>
<path d="M21.3263 11.2984C21.3263 10.1248 20.3755 9.17352 19.2025 9.17352H9.23852C8.06578 9.17352 7.11517 10.125 7.11517 11.2984V16.9963C7.11517 18.17 8.06595 19.1212 9.23852 19.1212H19.2024C20.3756 19.1212 21.3261 18.1697 21.3261 16.9963V11.2984H21.3263ZM12.7992 16.5511V11.1994L16.8577 13.8754L12.7992 16.5511Z" fill="white"/>
</g>
<defs>
<clipPath id="clip0">
<rect width="28" height="28" fill="white"/>
</clipPath>
</defs>
</svg>
