<?xml version="1.0" encoding="utf-8"?>
<!-- Generator: Adobe Illustrator 20.1.0, SVG Export Plug-In . SVG Version: 6.00 Build 0)  -->
<svg version="1.1" id="Layer_1" xmlns="http://www.w3.org/2000/svg" xmlns:xlink="http://www.w3.org/1999/xlink" x="0px" y="0px"
	 viewBox="0 0 12.8 14" style="enable-background:new 0 0 12.8 14;" xml:space="preserve">
<style type="text/css">
	.st0{fill:#1E73B7;}
</style>
<g>
	<g>
		<path class="st0" d="M6.4,0C2.9,0,0,2.8,0,6.3c0,3.3,2.6,6,5.8,6.3l-1.3,0.6c-0.1,0.1-0.2,0.2-0.1,0.5v0.1
			c0.1,0.1,0.3,0.3,0.5,0.1l2.1-1l0,0l0.1-0.1c0.1,0,0.1-0.1,0.1-0.2s0-0.1,0-0.2v-0.3l0,0l-1.3-2C5.8,10,5.5,9.9,5.4,10l-0.1,0.1
			c-0.1,0.1-0.1,0.3-0.1,0.5L6,11.8l0,0c-2.9-0.2-5.1-2.6-5.1-5.5c0-3,2.4-5.5,5.5-5.5c3,0,5.6,2.4,5.6,5.5c0,1.7-0.8,3.4-2.2,4.3
			c-0.2,0.1-0.2,0.5-0.1,0.6c0.1,0.2,0.5,0.2,0.6,0.1c1.6-1.2,2.6-3,2.6-5C12.8,2.8,9.9,0,6.4,0z M6.4,12.3L6.4,12.3L6.4,12.3
			L6.4,12.3z M6.6,6.7V2.6c0-0.2-0.2-0.5-0.5-0.5c-0.2,0-0.5,0.2-0.5,0.5v4.3c0,0.1,0.1,0.2,0.1,0.3l0,0l2.2,2.2
			c0.1,0.1,0.5,0.1,0.6,0s0.1-0.5,0-0.6L6.6,6.7z"/>
	</g>
</g>
</svg>
