<?xml version="1.0" encoding="utf-8"?>
<!-- Generator: Adobe Illustrator 20.1.0, SVG Export Plug-In . SVG Version: 6.00 Build 0)  -->
<svg version="1.1" id="Слой_1" xmlns="http://www.w3.org/2000/svg" xmlns:xlink="http://www.w3.org/1999/xlink" x="0px" y="0px"
	 viewBox="0 0 72.8 72.6" style="enable-background:new 0 0 72.8 72.6;" xml:space="preserve">
<style type="text/css">
	.st0{fill:#486194;}
	.st1{fill:#FFFFFF;}
</style>
<g>
	<path class="st0" d="M37.2-0.1h-1.4C16-0.1,0,15.9,0,35.7v1.4c0,19.8,16,35.8,35.8,35.8h1.4C57,72.9,73,56.9,73,37.1v-1.4
		C73,15.9,57-0.1,37.2-0.1z"/>
	<path class="st1" d="M34,28.1v3.8h-4v5h4v17h6v-17h5l0.5-5H40v-3.1c0-1.5,0.3-2.4,2.4-2.4c0.8,0,2.2,0.1,3.1,0.3l0.9-5.2
		c-1.8-0.3-3.1-0.6-5-0.6C36,20.9,34,23.5,34,28.1z"/>
</g>
</svg>
