<?xml version="1.0" encoding="utf-8"?>
<!-- Generator: Adobe Illustrator 20.1.0, SVG Export Plug-In . SVG Version: 6.00 Build 0)  -->
<svg version="1.1" id="Layer_1" xmlns="http://www.w3.org/2000/svg" xmlns:xlink="http://www.w3.org/1999/xlink" x="0px" y="0px"
	 viewBox="0 0 23.9 21.7" style="enable-background:new 0 0 23.9 21.7;" xml:space="preserve">
<style type="text/css">
	.st0{fill:#1E73B7;}
</style>
<g>
	<g>
		<path class="st0" d="M22.3,0H1.6C0.8,0,0,0.6,0,1.4v19c0,0.8,0.6,1.4,1.6,1.4h20.8c0.8,0,1.6-0.6,1.6-1.4v-19
			C23.9,0.6,23.1,0,22.3,0z M22.3,20.4H1.6v-19h20.8V20.4z M5.3,14.4h13.4c0.4,0,0.8-0.4,0.8-0.8s-0.4-0.8-0.8-0.8H5.3
			c-0.4,0-0.8,0.4-0.8,0.8C4.5,14.2,4.9,14.4,5.3,14.4z M5.3,11.5h13.4c0.4,0,0.8-0.4,0.8-0.8s-0.4-0.8-0.8-0.8H5.3
			c-0.4,0-0.8,0.4-0.8,0.8C4.5,11.3,4.9,11.5,5.3,11.5z M5.3,17.4h8.9c0.4,0,0.8-0.4,0.8-0.8s-0.4-0.8-0.8-0.8H5.3
			c-0.4,0-0.8,0.4-0.8,0.8C4.5,17,4.9,17.4,5.3,17.4z M5.3,8.7h13.4c0.4,0,0.8-0.4,0.8-0.8s-0.4-0.8-0.8-0.8H5.3
			c-0.4,0-0.8,0.4-0.8,0.8C4.5,8.3,4.9,8.7,5.3,8.7z M5.3,5.7h13.4c0.4,0,0.8-0.4,0.8-0.8c0-0.4-0.4-0.8-0.8-0.8H5.3
			c-0.4,0-0.8,0.4-0.8,0.8C4.5,5.3,4.9,5.7,5.3,5.7z"/>
	</g>
</g>
</svg>
