<?xml version="1.0" encoding="utf-8"?>
<!-- Generator: Adobe Illustrator 20.1.0, SVG Export Plug-In . SVG Version: 6.00 Build 0)  -->
<svg version="1.1" id="Layer_1" xmlns="http://www.w3.org/2000/svg" xmlns:xlink="http://www.w3.org/1999/xlink" x="0px" y="0px"
	 viewBox="0 0 23.7 23.7" style="enable-background:new 0 0 23.7 23.7;" xml:space="preserve">
<style type="text/css">
	.st0{fill:#1E73B7;}
</style>
<g>
	<g>
		<path class="st0" d="M13.4,17h-0.8v-6.5l0,0l0,0c0-0.4-0.4-0.8-0.8-0.8h-1.6c-0.4,0-0.8,0.4-0.8,0.8s0.4,0.8,0.8,0.8h0.8v5.9h-0.8
			c-0.4,0-0.8,0.4-0.8,0.8c0,0.4,0.4,0.8,0.8,0.8h3c0.4,0,0.8-0.4,0.8-0.8C14,17.4,13.8,17,13.4,17z M11.9,8.1
			c0.8,0,1.6-0.6,1.6-1.4s-0.6-1.4-1.6-1.4s-1.6,0.6-1.6,1.4C10.5,7.5,11.1,8.1,11.9,8.1z M11.9,0C5.3,0,0,5.3,0,11.9
			c0,6.5,5.3,11.9,11.9,11.9s11.9-5.3,11.9-11.9C23.7,5.3,18.4,0,11.9,0z M11.9,22.1c-5.7,0-10.5-4.7-10.5-10.3S6.1,1.6,11.9,1.6
			c5.7,0,10.5,4.5,10.5,10.3S17.6,22.1,11.9,22.1z"/>
	</g>
</g>
</svg>
