<?xml version="1.0" encoding="UTF-8" standalone="no"?>
<!-- Created with Inkscape (http://www.inkscape.org/) -->

<svg
   xmlns:dc="http://purl.org/dc/elements/1.1/"
   xmlns:cc="http://creativecommons.org/ns#"
   xmlns:rdf="http://www.w3.org/1999/02/22-rdf-syntax-ns#"
   xmlns:svg="http://www.w3.org/2000/svg"
   xmlns="http://www.w3.org/2000/svg"
   xmlns:sodipodi="http://sodipodi.sourceforge.net/DTD/sodipodi-0.dtd"
   xmlns:inkscape="http://www.inkscape.org/namespaces/inkscape"
   id="svg2"
   version="1.1"
   inkscape:version="0.91 r13725"
   xml:space="preserve"
   width="23.75"
   height="23.75"
   viewBox="0 0 23.75 23.75"
   sodipodi:docname="ar_down.svg"><metadata
     id="metadata8"><rdf:RDF><cc:Work
         rdf:about=""><dc:format>image/svg+xml</dc:format><dc:type
           rdf:resource="http://purl.org/dc/dcmitype/StillImage" /><dc:title></dc:title></cc:Work></rdf:RDF></metadata><defs
     id="defs6"><clipPath
       clipPathUnits="userSpaceOnUse"
       id="clipPath16"><path
         d="M 0,19 19,19 19,0 0,0 0,19 Z"
         id="path18"
         inkscape:connector-curvature="0" /></clipPath></defs><sodipodi:namedview
     pagecolor="#ffffff"
     bordercolor="#666666"
     borderopacity="1"
     objecttolerance="10"
     gridtolerance="10"
     guidetolerance="10"
     inkscape:pageopacity="0"
     inkscape:pageshadow="2"
     inkscape:window-width="751"
     inkscape:window-height="480"
     id="namedview4"
     showgrid="false"
     inkscape:zoom="9.9368421"
     inkscape:cx="11.875"
     inkscape:cy="11.875"
     inkscape:window-x="0"
     inkscape:window-y="0"
     inkscape:window-maximized="0"
     inkscape:current-layer="g10" /><g
     id="g10"
     inkscape:groupmode="layer"
     inkscape:label="ar_down"
     transform="matrix(1.25,0,0,-1.25,0,23.75)"><g
       id="g12"><g
         id="g14"
         clip-path="url(#clipPath16)"><g
           id="g20"
           transform="translate(9.5,18.5249)"><path
             d="m 0,0 c 4.984,0 9.025,-4.041 9.025,-9.025 0,-4.984 -4.041,-9.025 -9.025,-9.025 -4.984,0 -9.025,4.041 -9.025,9.025 C -9.025,-4.041 -4.984,0 0,0"
             style="fill:#ffffff;fill-opacity:1;fill-rule:evenodd;stroke:none"
             id="path22"
             inkscape:connector-curvature="0" /></g><g
           id="g24"
           transform="translate(9.5,18.0498)"><path
             d="m 0,0 c -4.714,0 -8.55,-3.835 -8.55,-8.55 0,-4.714 3.836,-8.55 8.55,-8.55 4.714,0 8.55,3.836 8.55,8.55 C 8.55,-3.835 4.714,0 0,0 m 0,-18.05 c -5.238,0 -9.5,4.262 -9.5,9.5 0,5.238 4.262,9.5 9.5,9.5 5.238,0 9.5,-4.262 9.5,-9.5 0,-5.238 -4.262,-9.5 -9.5,-9.5"
             style="fill:#c8dce1;fill-opacity:1;fill-rule:nonzero;stroke:none"
             id="path26"
             inkscape:connector-curvature="0" /></g><g
           id="g28"
           transform="translate(9.5273,8.1753)"><path
             d="m 0,0 -2.112,2.596 c -0.271,0.297 -0.71,0.297 -0.981,0 L -3.337,2.392 c -0.271,-0.298 -0.271,-0.651 0,-0.948 l 2.589,-3.119 c 0.005,-0.006 0.006,-0.012 0.011,-0.017 l 0.246,-0.269 c 0.134,-0.148 0.313,-0.222 0.491,-0.221 0.179,-10e-4 0.357,0.073 0.494,0.221 l 0.245,0.269 c 0.005,0.005 0.006,0.012 0.01,0.017 l 2.5,3.056 c 0.271,0.297 0.271,0.777 0,1.075 L 3.005,2.596 C 2.734,2.893 2.294,2.83 2.023,2.533 L 0,0 Z"
             style="fill:#194055;fill-opacity:1;fill-rule:evenodd;stroke:none"
             id="path30"
             inkscape:connector-curvature="0" /></g></g></g></g></svg>