<?xml version="1.0" encoding="utf-8"?>
<!-- Generator: Adobe Illustrator 20.1.0, SVG Export Plug-In . SVG Version: 6.00 Build 0)  -->
<svg version="1.1" id="Layer_1" xmlns="http://www.w3.org/2000/svg" xmlns:xlink="http://www.w3.org/1999/xlink" x="0px" y="0px"
	 viewBox="0 0 19.8 17.8" style="enable-background:new 0 0 19.8 17.8;" xml:space="preserve">
<style type="text/css">
	.st0{fill:#fff;}
</style>
<g>
	<g>
		<path class="st0" d="M2,0C0.8,0,0,0.8,0,2v13.8c0,1.2,0.8,2,2,2c1.2,0,2-0.8,2-2V2C4,0.8,3.2,0,2,0z M12.3,8.9l7.1-6.1
			c0.6-0.6,0.6-1.4,0-2L19,0.4c-0.6-0.6-1.4-0.6-2,0L8.9,7.6l0,0L8.3,8c-0.2,0.2-0.4,0.6-0.4,1c0,0.4,0.2,0.8,0.4,1l0.6,0.4l0,0
			l8.1,6.9c0.6,0.6,1.6,0.6,2.2,0l0.2-0.4c0.6-0.6,0.4-1.4-0.2-2L12.3,8.9z"/>
	</g>
</g>
</svg>
