<?xml version="1.0" encoding="utf-8"?>
<!-- Generator: Adobe Illustrator 16.0.0, SVG Export Plug-In . SVG Version: 6.00 Build 0)  -->
<!DOCTYPE svg PUBLIC "-//W3C//DTD SVG 1.1//EN" "http://www.w3.org/Graphics/SVG/1.1/DTD/svg11.dtd">
<svg version="1.1" id="Layer_1" xmlns="http://www.w3.org/2000/svg" xmlns:xlink="http://www.w3.org/1999/xlink" x="0px" y="0px"
	 width="14px" height="14px" viewBox="5.153 4.777 14 14" enable-background="new 5.153 4.777 14 14" xml:space="preserve">
<g>
	<g>
		<path fill="#2F4553" d="M18.014,4.799l-5.69,1.527c-0.114,0-0.456,0-0.57,0L6.177,4.799C5.722,4.682,5.153,5.034,5.153,5.504
			v10.688c0,0.471,0.341,0.822,0.796,0.94l5.578,1.526c0.114,0,0.341,0.117,0.569,0.117c0.113,0,0.341,0,0.568-0.117l5.691-1.526
			c0.455-0.118,0.797-0.588,0.797-0.94V5.504C18.926,5.034,18.469,4.682,18.014,4.799z M11.641,17.955l-5.578-1.526l-0.114-0.117
			V5.739l5.463,1.527c0,0,0.114,0,0.228,0L11.641,17.955L11.641,17.955z M18.129,16.31l-0.114,0.117l-5.462,1.526V7.266l0,0
			L18.13,5.74L18.129,16.31L18.129,16.31z M13.803,9.85h0.113l3.073-0.822c0.229-0.118,0.343-0.353,0.343-0.588
			c-0.114-0.235-0.343-0.352-0.569-0.352L13.69,8.91c-0.229,0.118-0.342,0.352-0.342,0.586C13.462,9.732,13.576,9.85,13.803,9.85z
			 M13.803,12.434h0.113l3.073-0.822c0.229-0.118,0.343-0.353,0.343-0.587c-0.114-0.235-0.343-0.353-0.569-0.353l-3.073,0.822
			c-0.229,0.118-0.342,0.353-0.342,0.587C13.462,12.317,13.576,12.434,13.803,12.434z M13.803,15.135h0.113l3.073-0.821
			c0.229-0.118,0.343-0.354,0.343-0.588c-0.114-0.236-0.343-0.353-0.569-0.353l-3.073,0.822c-0.229,0.118-0.342,0.353-0.342,0.587
			C13.462,15.018,13.576,15.135,13.803,15.135z M10.503,9.028L7.429,8.205C7.202,8.088,6.974,8.323,6.86,8.557
			C6.747,8.793,6.974,9.028,7.202,9.145l3.073,0.823h0.113c0.228,0,0.342-0.118,0.455-0.353C10.844,9.262,10.731,9.028,10.503,9.028
			z M10.503,11.612L7.43,10.789c-0.227-0.117-0.456,0.118-0.569,0.353c-0.113,0.236,0.114,0.47,0.342,0.587l3.073,0.822h0.113
			c0.228,0,0.342-0.117,0.455-0.353C10.844,11.964,10.731,11.729,10.503,11.612z M10.503,14.196L7.43,13.374
			c-0.227-0.117-0.456,0.116-0.569,0.353c-0.113,0.235,0.114,0.47,0.342,0.588l3.073,0.821h0.113c0.228,0,0.342-0.117,0.455-0.353
			C10.844,14.548,10.731,14.314,10.503,14.196z"/>
	</g>
</g>
</svg>
