<?xml version="1.0" encoding="utf-8"?>
<!-- Generator: Adobe Illustrator 20.1.0, SVG Export Plug-In . SVG Version: 6.00 Build 0)  -->
<svg version="1.1" id="Layer_1" xmlns="http://www.w3.org/2000/svg" xmlns:xlink="http://www.w3.org/1999/xlink" x="0px" y="0px"
	 viewBox="0 0 14 14" style="enable-background:new 0 0 14 14;" xml:space="preserve">
<style type="text/css">
	.st0{fill:#1E73B7;}
</style>
<g>
	<g>
		<path class="st0" d="M12.8,0.1L7.1,1.6c-0.1,0-0.5,0-0.6,0L1,0.1C0.5,0,0,0.3,0,0.8v10.7c0,0.5,0.3,0.8,0.8,0.9l5.6,1.5
			C6.5,13.9,6.7,14,7,14c0.1,0,0.3,0,0.6-0.1l5.7-1.5c0.5-0.1,0.8-0.6,0.8-0.9V0.8C13.6,0.3,13.3,0,12.8,0.1z M6.4,13.3l-5.6-1.5
			l-0.1-0.1V1l5.5,1.5c0,0,0.1,0,0.2,0V13.3L6.4,13.3z M12.9,11.6l-0.1,0.1l-5.4,1.6V2.6l0,0L13,1.1L12.9,11.6L12.9,11.6z M8.6,5.1
			h0.1l3.1-0.8C12,4.2,12,3.9,12,3.7c-0.1-0.2-0.3-0.4-0.6-0.4L8.3,4.1C8.1,4.2,8,4.5,8,4.7C8.3,5,8.4,5.1,8.6,5.1z M8.6,7.7h0.1
			l3.1-0.8C12,6.8,12,6.5,12,6.3c-0.1-0.2-0.3-0.4-0.6-0.4L8.3,6.7C8.1,6.8,8,7.1,8,7.3C8.3,7.6,8.4,7.7,8.6,7.7z M8.6,10.4h0.1
			l3.1-0.8C12,9.5,12,9.2,12,9c-0.1-0.2-0.3-0.4-0.6-0.4L8.3,9.4C8.1,9.5,8,9.8,8,10C8.3,10.3,8.4,10.4,8.6,10.4z M5.3,4.3L2.2,3.5
			C2,3.4,1.8,3.6,1.7,3.9C1.5,4.1,1.8,4.3,2,4.4L5,5.2h0.1c0.2,0,0.3-0.1,0.5-0.4C5.6,4.6,5.5,4.3,5.3,4.3z M5.3,6.9L2.2,6.1
			C2,6,1.7,6.2,1.6,6.5C1.5,6.7,1.7,7,1.9,7.1L5,7.9h0.1c0.2,0,0.3-0.1,0.5-0.4C5.6,7.3,5.5,7,5.3,6.9z M5.3,9.5L2.2,8.7
			C2,8.6,1.7,8.8,1.6,9.1C1.5,9.3,1.8,9.5,2,9.6L5,10.4h0.1c0.2,0,0.3-0.1,0.5-0.4C5.6,9.8,5.5,9.6,5.3,9.5z"/>
	</g>
</g>
</svg>
