<?xml version="1.0" encoding="utf-8"?>
<!-- Generator: Adobe Illustrator 20.1.0, SVG Export Plug-In . SVG Version: 6.00 Build 0)  -->
<svg width="19" height="21" viewBox="0 0 19 21" fill="none" xmlns="http://www.w3.org/2000/svg">
  <path d="M17.8536 3.40044L9.81455 0.0627154C9.61316 -0.0208744 9.3868 -0.0209155 9.18545 0.0627154L1.14639 3.40044C0.840207 3.52759 0.640625 3.82651 0.640625 4.15804V8.21551C0.640625 13.8024 4.0174 18.8279 9.19 20.9392C9.38868 21.0203 9.61128 21.0203 9.81 20.9392C14.9825 18.8279 18.3594 13.8024 18.3594 8.21551V4.15804C18.3594 3.82651 18.1598 3.52759 17.8536 3.40044ZM16.7188 8.21551C16.7188 12.9649 13.9297 17.3371 9.5 19.2887C5.18868 17.3892 2.28125 13.0936 2.28125 8.21551V4.70568L9.5 1.70851L16.7188 4.70568V8.21551ZM8.59331 10.9805L12.1192 7.45472C12.4395 7.13438 12.9589 7.13434 13.2793 7.45472C13.5996 7.77509 13.5996 8.29447 13.2792 8.6148L9.17335 12.7207C8.85294 13.0411 8.33356 13.041 8.01327 12.7207L5.72074 10.4281C5.40037 10.1078 5.40037 9.58839 5.72074 9.26806C6.04111 8.94773 6.56049 8.94768 6.88082 9.26806L8.59331 10.9805Z" fill="#1E73B7"/>
</svg>
