<?xml version="1.0" encoding="utf-8"?>
<!-- Generator: Adobe Illustrator 16.0.0, SVG Export Plug-In . SVG Version: 6.00 Build 0)  -->
<!DOCTYPE svg PUBLIC "-//W3C//DTD SVG 1.1//EN" "http://www.w3.org/Graphics/SVG/1.1/DTD/svg11.dtd">
<svg version="1.1" id="Layer_1" xmlns="http://www.w3.org/2000/svg" xmlns:xlink="http://www.w3.org/1999/xlink" x="0px" y="0px"
	 width="12.789px" height="14px" viewBox="4.474 4.897 12.789 14" enable-background="new 4.474 4.897 12.789 14"
	 xml:space="preserve">
<g>
	<g>
		<path fill="#2F4553" d="M10.869,4.897c-3.489,0-6.395,2.79-6.395,6.278c0,3.256,2.558,6.046,5.813,6.277l-1.279,0.698
			c-0.116,0.117-0.232,0.233-0.116,0.465v0.116c0.116,0.116,0.349,0.233,0.465,0.116l2.092-1.046l0,0l0.116-0.116
			c0.117,0,0.117-0.116,0.117-0.232c0-0.115,0-0.115,0-0.232v-0.232l0,0l-1.279-1.977c-0.116-0.116-0.35-0.232-0.466-0.116
			l-0.116,0.116c-0.117,0.116-0.117,0.349-0.117,0.464l0.813,1.164l0,0c-2.906-0.232-5.115-2.559-5.115-5.465
			c0-3.023,2.441-5.465,5.465-5.465c3.022,0,5.58,2.442,5.58,5.465c0,1.743-0.813,3.371-2.209,4.301
			c-0.232,0.116-0.232,0.466-0.116,0.582c0.116,0.233,0.465,0.233,0.581,0.116c1.628-1.162,2.558-3.022,2.558-5
			C17.263,7.688,14.357,4.897,10.869,4.897z M10.869,17.222L10.869,17.222L10.869,17.222L10.869,17.222z M11.101,11.641V7.456
			c0-0.233-0.232-0.465-0.465-0.465c-0.232,0-0.465,0.232-0.465,0.465v4.302c0,0.116,0.117,0.233,0.117,0.348l0,0l2.209,2.209
			c0.116,0.116,0.465,0.116,0.581,0c0.115-0.116,0.115-0.465,0-0.58L11.101,11.641z"/>
	</g>
</g>
</svg>
