<?xml version="1.0" encoding="utf-8"?>
<!-- Generator: Adobe Illustrator 20.1.0, SVG Export Plug-In . SVG Version: 6.00 Build 0)  -->
<svg version="1.1" id="Layer_1" xmlns="http://www.w3.org/2000/svg" xmlns:xlink="http://www.w3.org/1999/xlink" x="0px" y="0px"
	 viewBox="0 0 36 36" style="enable-background:new 0 0 36 36;" xml:space="preserve">
<style type="text/css">
	.st0{fill:#1E73B7;}
	.st1{fill:#FFFFFF;}
</style>
<g>
	<path class="st0" d="M23,10H13c-1.7,0-3,1.3-3,3v10c0,1.7,1.3,3,3,3h10c1.7,0,3-1.3,3-3V13C26,11.3,24.7,10,23,10z"/>
</g>
<path class="st1" d="M22.9,16.5l-4.7,4.1c-0.2,0.2-0.4,0.3-0.7,0.3s-0.6-0.1-0.8-0.3l-2.2-1.9c-0.2-0.2-0.3-0.4-0.3-0.7
	c0-0.5,0.5-1,1.1-1c0.3,0,0.6,0.1,0.8,0.3l1.4,1.2l3.9-3.4c0.2-0.2,0.5-0.3,0.8-0.3c0.6,0,1.1,0.4,1.1,1
	C23.2,16.1,23.1,16.4,22.9,16.5"/>
</svg>
