<?xml version="1.0" encoding="utf-8"?>
<!-- Generator: Adobe Illustrator 20.1.0, SVG Export Plug-In . SVG Version: 6.00 Build 0)  -->
<svg version="1.1" id="Layer_1" xmlns="http://www.w3.org/2000/svg" xmlns:xlink="http://www.w3.org/1999/xlink" x="0px" y="0px"
	 viewBox="0 0 19.9 17.8" style="enable-background:new 0 0 19.9 17.8;" xml:space="preserve">
<style type="text/css">
	.st0{fill:#fff;}
</style>
<g>
	<g>
		<path class="st0" d="M17.9,0c-1.2,0-2,0.8-2,2v13.8c0,1.2,0.8,2,2,2s2-0.8,2-2V2C19.9,0.8,19.1,0,17.9,0z M11,7.6L11,7.6L2.9,0.4
			c-0.6-0.6-1.4-0.6-2,0L0.6,0.8C0,1.4,0,2.2,0.6,2.8l7.1,6.1l-7.1,5.9c-0.6,0.6-0.8,1.4-0.2,2l0.2,0.4c0.6,0.6,1.6,0.6,2.2,0
			l8.1-6.9l0,0l0.6-0.4c0.2-0.2,0.4-0.6,0.4-1c0-0.4-0.2-0.8-0.4-1L11,7.6z"/>
	</g>
</g>
</svg>
