<?xml version="1.0" encoding="utf-8"?>
<!-- Generator: Adobe Illustrator 20.1.0, SVG Export Plug-In . SVG Version: 6.00 Build 0)  -->
<svg version="1.1" id="Layer_1" xmlns="http://www.w3.org/2000/svg" xmlns:xlink="http://www.w3.org/1999/xlink" x="0px" y="0px"
	 viewBox="0 0 7 14.8" style="enable-background:new 0 0 7 14.8;" xml:space="preserve">
<style type="text/css">
	.st0{fill:#97A2A9;}
</style>
<path class="st0" d="M3.6,12.7l-2.1-2.6c-0.3-0.3-0.7-0.3-1,0l-0.2,0.2c-0.3,0.3-0.3,0.7,0,0.9l2.6,3.1l0,0L3,14.6
	c0.1,0.1,0.3,0.2,0.5,0.2c0.2,0,0.4-0.1,0.5-0.2l0.2-0.3l0,0l2.5-3.1c0.3-0.3,0.3-0.8,0-1.1L6.6,10c-0.3-0.3-0.7-0.2-1,0.1L3.6,12.7
	z"/>
<path class="st0" d="M3.4,2.1l2.1,2.6c0.3,0.3,0.7,0.3,1,0l0.2-0.2c0.3-0.3,0.3-0.7,0-0.9L4.2,0.5l0,0L4,0.2C3.9,0.1,3.7,0,3.4,0
	C3.2,0,3,0.1,2.9,0.2L2.7,0.5l0,0L0.2,3.6c-0.3,0.3-0.3,0.8,0,1.1l0.2,0.1c0.3,0.3,0.7,0.2,1-0.1L3.4,2.1z"/>
</svg>
