<?xml version="1.0" encoding="UTF-8" standalone="no"?>
<!-- Created with Inkscape (http://www.inkscape.org/) -->

<svg
   xmlns:dc="http://purl.org/dc/elements/1.1/"
   xmlns:cc="http://creativecommons.org/ns#"
   xmlns:rdf="http://www.w3.org/1999/02/22-rdf-syntax-ns#"
   xmlns:svg="http://www.w3.org/2000/svg"
   xmlns="http://www.w3.org/2000/svg"
   xmlns:sodipodi="http://sodipodi.sourceforge.net/DTD/sodipodi-0.dtd"
   xmlns:inkscape="http://www.inkscape.org/namespaces/inkscape"
   id="svg2"
   version="1.1"
   inkscape:version="0.91 r13725"
   xml:space="preserve"
   width="579.5575"
   height="146.05125"
   viewBox="0 0 579.5575 146.05125"
   sodipodi:docname="logotip_rgp.svg"><metadata
     id="metadata8"><rdf:RDF><cc:Work
         rdf:about=""><dc:format>image/svg+xml</dc:format><dc:type
           rdf:resource="http://purl.org/dc/dcmitype/StillImage" /><dc:title></dc:title></cc:Work></rdf:RDF></metadata><defs
     id="defs6"><clipPath
       clipPathUnits="userSpaceOnUse"
       id="clipPath16"><path
         d="m 0,116.841 463.646,0 L 463.646,0 0,0 0,116.841 Z"
         id="path18"
         inkscape:connector-curvature="0" /></clipPath><linearGradient
       x1="0"
       y1="0"
       x2="1"
       y2="0"
       gradientUnits="userSpaceOnUse"
       gradientTransform="matrix(0,-116.72339,116.72339,0,46.589199,116.72829)"
       spreadMethod="pad"
       id="linearGradient164"><stop
         style="stop-opacity:1;stop-color:#d7d7d7"
         offset="0"
         id="stop166" /><stop
         style="stop-opacity:1;stop-color:#bdbcbc"
         offset="0.998692"
         id="stop168" /><stop
         style="stop-opacity:1;stop-color:#bdbcbc"
         offset="1"
         id="stop170" /></linearGradient><clipPath
       clipPathUnits="userSpaceOnUse"
       id="clipPath178"><path
         d="m 0,116.841 463.646,0 L 463.646,0 0,0 0,116.841 Z"
         id="path180"
         inkscape:connector-curvature="0" /></clipPath><linearGradient
       x1="0"
       y1="0"
       x2="1"
       y2="0"
       gradientUnits="userSpaceOnUse"
       gradientTransform="matrix(4.8137393,-68.839684,-68.839684,-4.8137393,46.084442,111.19078)"
       spreadMethod="pad"
       id="linearGradient198"><stop
         style="stop-opacity:1;stop-color:#66b5de"
         offset="0"
         id="stop200" /><stop
         style="stop-opacity:1;stop-color:#1e73b7"
         offset="1"
         id="stop202" /></linearGradient><clipPath
       clipPathUnits="userSpaceOnUse"
       id="clipPath210"><path
         d="m 0,116.841 463.646,0 L 463.646,0 0,0 0,116.841 Z"
         id="path212"
         inkscape:connector-curvature="0" /></clipPath></defs><sodipodi:namedview
     pagecolor="#ffffff"
     bordercolor="#666666"
     borderopacity="1"
     objecttolerance="10"
     gridtolerance="10"
     guidetolerance="10"
     inkscape:pageopacity="0"
     inkscape:pageshadow="2"
     inkscape:window-width="1653"
     inkscape:window-height="768"
     id="namedview4"
     showgrid="false"
     inkscape:zoom="0.65567265"
     inkscape:cx="289.77875"
     inkscape:cy="73.025627"
     inkscape:window-x="0"
     inkscape:window-y="0"
     inkscape:window-maximized="0"
     inkscape:current-layer="g10" /><g
     id="g10"
     inkscape:groupmode="layer"
     inkscape:label="logotip_rgp"
     transform="matrix(1.25,0,0,-1.25,0,146.05125)"><g
       id="g12"><g
         id="g14"
         clip-path="url(#clipPath16)"><g
           id="g20"
           transform="translate(131.7684,82.0901)"><path
             d="m 0,0 -0.026,0 -4.759,-15.444 9.544,0 L 0,0 Z m 15.447,-26.649 c 0.208,-0.674 0.338,-1.208 0.39,-1.601 0.052,-0.393 -0.017,-0.688 -0.208,-0.884 -0.191,-0.197 -0.528,-0.319 -1.014,-0.366 -0.486,-0.046 -1.153,-0.07 -2.002,-0.07 -0.884,0 -1.574,0.015 -2.068,0.043 -0.494,0.027 -0.871,0.084 -1.131,0.168 -0.26,0.084 -0.442,0.201 -0.546,0.352 -0.104,0.149 -0.191,0.345 -0.26,0.589 l -2.263,7.301 -12.638,0 -2.133,-7.104 c -0.069,-0.263 -0.16,-0.483 -0.273,-0.66 -0.113,-0.178 -0.295,-0.319 -0.546,-0.421 -0.252,-0.104 -0.607,-0.174 -1.067,-0.211 -0.459,-0.037 -1.061,-0.057 -1.807,-0.057 -0.797,0 -1.422,0.028 -1.872,0.085 -0.451,0.056 -0.763,0.192 -0.936,0.407 -0.174,0.215 -0.235,0.52 -0.182,0.912 0.051,0.394 0.182,0.918 0.39,1.573 L -4.343,5.645 c 0.104,0.318 0.225,0.575 0.364,0.772 0.139,0.196 0.36,0.346 0.663,0.449 0.303,0.103 0.724,0.168 1.261,0.196 0.538,0.029 1.249,0.042 2.133,0.042 1.023,0 1.838,-0.013 2.444,-0.042 C 3.129,7.034 3.602,6.969 3.94,6.866 4.278,6.763 4.521,6.608 4.668,6.403 4.815,6.197 4.941,5.916 5.045,5.56 l 10.402,-32.209 z"
             style="fill:#f08a00;fill-opacity:1;fill-rule:nonzero;stroke:none"
             id="path22"
             inkscape:connector-curvature="0" /></g><g
           id="g24"
           transform="translate(178.7216,53.6999)"><path
             d="m 0,0 c 0,-0.187 -0.057,-0.355 -0.169,-0.505 -0.113,-0.15 -0.299,-0.271 -0.56,-0.365 -0.259,-0.094 -0.606,-0.169 -1.04,-0.225 -0.433,-0.056 -0.979,-0.085 -1.638,-0.085 -0.676,0 -1.235,0.029 -1.677,0.085 -0.442,0.056 -0.789,0.131 -1.041,0.225 -0.251,0.094 -0.433,0.215 -0.545,0.365 -0.113,0.15 -0.17,0.318 -0.17,0.505 l 0,14.687 -12.586,0 0,-14.687 c 0,-0.187 -0.053,-0.355 -0.157,-0.505 -0.104,-0.15 -0.286,-0.271 -0.545,-0.365 -0.261,-0.094 -0.607,-0.169 -1.041,-0.225 -0.433,-0.056 -0.988,-0.085 -1.664,-0.085 -0.659,0 -1.209,0.029 -1.651,0.085 -0.443,0.056 -0.794,0.131 -1.054,0.225 -0.26,0.094 -0.446,0.215 -0.559,0.365 -0.112,0.15 -0.169,0.318 -0.169,0.505 l 0,34.315 c 0,0.187 0.057,0.356 0.169,0.506 0.113,0.15 0.299,0.271 0.559,0.365 0.26,0.093 0.611,0.169 1.054,0.225 0.442,0.056 0.992,0.084 1.651,0.084 0.676,0 1.231,-0.028 1.664,-0.084 0.434,-0.056 0.78,-0.132 1.041,-0.225 0.259,-0.094 0.441,-0.215 0.545,-0.365 0.104,-0.15 0.157,-0.319 0.157,-0.506 l 0,-13.338 12.586,0 0,13.338 c 0,0.187 0.057,0.356 0.17,0.506 0.112,0.15 0.294,0.271 0.545,0.365 0.252,0.093 0.599,0.169 1.041,0.225 0.442,0.056 1.001,0.084 1.677,0.084 0.659,0 1.205,-0.028 1.638,-0.084 0.434,-0.056 0.781,-0.132 1.04,-0.225 0.261,-0.094 0.447,-0.215 0.56,-0.365 C -0.057,34.671 0,34.502 0,34.315 L 0,0 Z"
             style="fill:#f08a00;fill-opacity:1;fill-rule:nonzero;stroke:none"
             id="path26"
             inkscape:connector-curvature="0" /></g><g
           id="g28"
           transform="translate(208.9779,85.9934)"><path
             d="m 0,0 c 0,-0.543 -0.022,-1.006 -0.065,-1.39 -0.043,-0.384 -0.108,-0.693 -0.195,-0.927 -0.087,-0.234 -0.195,-0.407 -0.325,-0.519 -0.13,-0.112 -0.273,-0.169 -0.429,-0.169 l -8.426,0 0,-29.288 c 0,-0.188 -0.057,-0.356 -0.169,-0.505 -0.113,-0.151 -0.299,-0.272 -0.559,-0.366 -0.26,-0.093 -0.611,-0.169 -1.054,-0.224 -0.442,-0.057 -0.992,-0.085 -1.651,-0.085 -0.659,0 -1.209,0.028 -1.651,0.085 -0.442,0.055 -0.793,0.131 -1.054,0.224 -0.259,0.094 -0.446,0.215 -0.559,0.366 -0.112,0.149 -0.169,0.317 -0.169,0.505 l 0,29.288 -8.425,0 c -0.174,0 -0.321,0.057 -0.442,0.169 -0.122,0.112 -0.226,0.285 -0.312,0.519 -0.087,0.234 -0.152,0.543 -0.196,0.927 -0.043,0.384 -0.065,0.847 -0.065,1.39 0,0.562 0.022,1.039 0.065,1.432 0.044,0.393 0.109,0.707 0.196,0.941 0.086,0.234 0.19,0.402 0.312,0.505 0.121,0.103 0.268,0.155 0.442,0.155 l 23.717,0 c 0.156,0 0.299,-0.052 0.429,-0.155 C -0.455,2.775 -0.347,2.607 -0.26,2.373 -0.173,2.139 -0.108,1.825 -0.065,1.432 -0.022,1.039 0,0.562 0,0"
             style="fill:#f08a00;fill-opacity:1;fill-rule:nonzero;stroke:none"
             id="path30"
             inkscape:connector-curvature="0" /></g><g
           id="g32"
           transform="translate(240.8739,53.6443)"><path
             d="m 0,0 c 0,-0.187 -0.057,-0.352 -0.169,-0.492 -0.113,-0.14 -0.3,-0.257 -0.56,-0.351 -0.259,-0.094 -0.611,-0.164 -1.052,-0.211 -0.443,-0.047 -0.993,-0.07 -1.652,-0.07 -0.659,0 -1.21,0.023 -1.651,0.07 -0.442,0.047 -0.789,0.117 -1.041,0.211 -0.251,0.094 -0.429,0.211 -0.532,0.351 -0.105,0.14 -0.156,0.305 -0.156,0.492 l 0,19.151 c 0,0.73 0.008,1.446 0.025,2.148 0.017,0.702 0.044,1.325 0.078,1.868 l -0.052,0 C -6.9,22.904 -7.065,22.6 -7.256,22.254 -7.446,21.908 -7.65,21.542 -7.867,21.159 -8.083,20.775 -8.313,20.382 -8.556,19.98 -8.799,19.577 -9.042,19.188 -9.284,18.814 L -20.987,-0.028 c -0.138,-0.206 -0.282,-0.384 -0.429,-0.534 -0.147,-0.15 -0.338,-0.267 -0.572,-0.351 -0.234,-0.084 -0.52,-0.141 -0.858,-0.168 -0.338,-0.028 -0.776,-0.043 -1.314,-0.043 -0.675,0 -1.222,0.023 -1.638,0.07 -0.416,0.047 -0.741,0.117 -0.975,0.211 -0.234,0.094 -0.394,0.215 -0.481,0.365 -0.087,0.15 -0.13,0.328 -0.13,0.534 l 0,34.371 c 0,0.187 0.056,0.351 0.169,0.491 0.112,0.141 0.303,0.258 0.572,0.352 0.269,0.093 0.62,0.164 1.053,0.21 0.434,0.047 0.98,0.07 1.639,0.07 0.676,0 1.231,-0.023 1.664,-0.07 0.433,-0.046 0.78,-0.117 1.04,-0.21 0.26,-0.094 0.442,-0.211 0.546,-0.352 0.104,-0.14 0.157,-0.304 0.157,-0.491 l 0,-19.263 c 0,-0.6 -0.009,-1.236 -0.027,-1.91 -0.017,-0.674 -0.043,-1.329 -0.077,-1.966 l 0.051,0 c 0.295,0.562 0.668,1.236 1.118,2.022 0.451,0.786 0.919,1.554 1.405,2.303 l 11.702,18.842 c 0.122,0.188 0.252,0.351 0.391,0.492 0.138,0.14 0.325,0.257 0.558,0.351 0.235,0.093 0.526,0.159 0.872,0.196 0.347,0.038 0.788,0.056 1.326,0.056 0.659,0 1.192,-0.023 1.599,-0.07 0.408,-0.046 0.732,-0.117 0.976,-0.21 0.243,-0.094 0.412,-0.211 0.506,-0.352 C -0.048,34.778 0,34.605 0,34.399 L 0,0 Z"
             style="fill:#f08a00;fill-opacity:1;fill-rule:nonzero;stroke:none"
             id="path34"
             inkscape:connector-curvature="0" /></g><g
           id="g36"
           transform="translate(274.953,53.6443)"><path
             d="m 0,0 c 0,-0.187 -0.052,-0.352 -0.156,-0.492 -0.104,-0.14 -0.286,-0.257 -0.546,-0.351 -0.26,-0.094 -0.611,-0.164 -1.054,-0.211 -0.441,-0.047 -0.992,-0.07 -1.651,-0.07 -0.658,0 -1.209,0.023 -1.652,0.07 -0.441,0.047 -0.793,0.117 -1.052,0.211 -0.26,0.094 -0.447,0.211 -0.56,0.351 C -6.783,-0.352 -6.84,-0.187 -6.84,0 l 0,29.232 -12.534,0 0,-29.232 c 0,-0.187 -0.057,-0.352 -0.169,-0.492 -0.113,-0.14 -0.3,-0.257 -0.56,-0.351 -0.259,-0.094 -0.606,-0.164 -1.04,-0.211 -0.433,-0.047 -0.988,-0.07 -1.664,-0.07 -0.659,0 -1.21,0.023 -1.651,0.07 -0.442,0.047 -0.794,0.117 -1.054,0.211 -0.259,0.094 -0.442,0.211 -0.546,0.351 -0.104,0.14 -0.156,0.305 -0.156,0.492 l 0,33.051 c 0,0.786 0.183,1.371 0.546,1.755 0.364,0.384 0.85,0.576 1.457,0.576 l 22.234,0 c 0.624,0 1.11,-0.192 1.456,-0.576 C -0.174,34.422 0,33.837 0,33.051 L 0,0 Z"
             style="fill:#1e73b7;fill-opacity:1;fill-rule:nonzero;stroke:none"
             id="path38"
             inkscape:connector-curvature="0" /></g><g
           id="g40"
           transform="translate(308.955,53.6443)"><path
             d="m 0,0 c 0,-0.187 -0.052,-0.352 -0.155,-0.492 -0.105,-0.14 -0.286,-0.257 -0.547,-0.351 -0.26,-0.094 -0.611,-0.164 -1.053,-0.211 -0.442,-0.047 -0.993,-0.07 -1.651,-0.07 -0.677,0 -1.232,0.023 -1.665,0.07 -0.433,0.047 -0.78,0.117 -1.04,0.211 -0.26,0.094 -0.442,0.211 -0.546,0.351 -0.104,0.14 -0.156,0.305 -0.156,0.492 l 0,29.316 -7.23,0 c -0.485,-4.287 -0.979,-8.031 -1.482,-11.232 -0.503,-3.201 -1.04,-5.944 -1.613,-8.228 -0.572,-2.284 -1.2,-4.156 -1.884,-5.616 -0.686,-1.461 -1.466,-2.616 -2.341,-3.469 -0.876,-0.851 -1.864,-1.436 -2.965,-1.754 -1.101,-0.319 -2.354,-0.478 -3.758,-0.478 -0.26,0 -0.485,0.038 -0.676,0.112 -0.19,0.076 -0.342,0.216 -0.455,0.422 -0.113,0.206 -0.195,0.496 -0.247,0.87 -0.052,0.375 -0.078,0.852 -0.078,1.433 0,0.805 0.018,1.455 0.052,1.951 0.035,0.496 0.095,0.88 0.182,1.152 0.086,0.271 0.2,0.454 0.338,0.547 0.139,0.094 0.303,0.141 0.494,0.141 0.538,0 1.053,0.117 1.547,0.351 0.494,0.233 0.971,0.697 1.431,1.39 0.459,0.692 0.901,1.666 1.326,2.92 0.425,1.255 0.841,2.906 1.248,4.956 0.407,2.05 0.816,4.55 1.223,7.498 0.407,2.948 0.819,6.454 1.235,10.516 0.104,0.955 0.312,1.624 0.624,2.008 0.312,0.384 0.772,0.576 1.378,0.576 l 16.514,0 c 0.624,0 1.105,-0.192 1.443,-0.576 C -0.169,34.422 0,33.837 0,33.051 L 0,0 Z"
             style="fill:#1e73b7;fill-opacity:1;fill-rule:nonzero;stroke:none"
             id="path42"
             inkscape:connector-curvature="0" /></g><g
           id="g44"
           transform="translate(328.9657,82.0901)"><path
             d="m 0,0 -0.026,0 -4.759,-15.444 9.544,0 L 0,0 Z m 15.447,-26.649 c 0.208,-0.674 0.338,-1.208 0.39,-1.601 0.053,-0.393 -0.017,-0.688 -0.208,-0.884 -0.191,-0.197 -0.528,-0.319 -1.014,-0.366 -0.485,-0.046 -1.153,-0.07 -2.003,-0.07 -0.883,0 -1.573,0.015 -2.067,0.043 -0.494,0.027 -0.871,0.084 -1.131,0.168 -0.261,0.084 -0.442,0.201 -0.547,0.352 -0.103,0.149 -0.19,0.345 -0.26,0.589 l -2.262,7.301 -12.639,0 -2.132,-7.104 c -0.069,-0.263 -0.16,-0.483 -0.273,-0.66 -0.113,-0.178 -0.295,-0.319 -0.546,-0.421 -0.252,-0.104 -0.607,-0.174 -1.067,-0.211 -0.459,-0.037 -1.061,-0.057 -1.807,-0.057 -0.797,0 -1.421,0.028 -1.872,0.085 -0.451,0.056 -0.763,0.192 -0.937,0.407 -0.173,0.215 -0.233,0.52 -0.181,0.912 0.051,0.394 0.181,0.918 0.389,1.573 L -4.343,5.645 c 0.104,0.318 0.225,0.575 0.364,0.772 0.138,0.196 0.36,0.346 0.663,0.449 0.303,0.103 0.724,0.168 1.261,0.196 0.537,0.029 1.248,0.042 2.133,0.042 1.023,0 1.837,-0.013 2.444,-0.042 C 3.129,7.034 3.602,6.969 3.939,6.866 4.277,6.763 4.521,6.608 4.668,6.403 4.815,6.197 4.94,5.916 5.045,5.56 l 10.402,-32.209 z"
             style="fill:#1e73b7;fill-opacity:1;fill-rule:nonzero;stroke:none"
             id="path46"
             inkscape:connector-curvature="0" /></g><g
           id="g48"
           transform="translate(368.7148,85.9656)"><path
             d="M 0,0 C 0,-0.562 -0.021,-1.035 -0.064,-1.418 -0.108,-1.802 -0.173,-2.111 -0.26,-2.345 -0.347,-2.579 -0.455,-2.748 -0.585,-2.851 -0.715,-2.954 -0.866,-3.005 -1.04,-3.005 l -11.156,0 0,-29.316 c 0,-0.188 -0.057,-0.352 -0.169,-0.492 -0.114,-0.14 -0.299,-0.257 -0.56,-0.351 -0.26,-0.094 -0.606,-0.164 -1.04,-0.211 -0.433,-0.047 -0.988,-0.07 -1.664,-0.07 -0.659,0 -1.209,0.023 -1.651,0.07 -0.443,0.047 -0.793,0.117 -1.054,0.211 -0.26,0.094 -0.446,0.211 -0.559,0.351 -0.113,0.14 -0.169,0.304 -0.169,0.492 l 0,33.051 c 0,0.786 0.187,1.371 0.559,1.755 0.373,0.384 0.862,0.576 1.47,0.576 l 15.993,0 c 0.347,0 0.606,-0.234 0.78,-0.703 C -0.086,1.891 0,1.104 0,0"
             style="fill:#1e73b7;fill-opacity:1;fill-rule:nonzero;stroke:none"
             id="path50"
             inkscape:connector-curvature="0" /></g><g
           id="g52"
           transform="translate(400.5839,53.6443)"><path
             d="m 0,0 c 0,-0.187 -0.057,-0.352 -0.169,-0.492 -0.113,-0.14 -0.299,-0.257 -0.56,-0.351 -0.259,-0.094 -0.611,-0.164 -1.052,-0.211 -0.443,-0.047 -0.993,-0.07 -1.652,-0.07 -0.659,0 -1.209,0.023 -1.651,0.07 -0.442,0.047 -0.789,0.117 -1.04,0.211 -0.252,0.094 -0.43,0.211 -0.533,0.351 -0.105,0.14 -0.156,0.305 -0.156,0.492 l 0,19.151 c 0,0.73 0.008,1.446 0.026,2.148 0.016,0.702 0.043,1.325 0.077,1.868 l -0.052,0 C -6.9,22.904 -7.064,22.6 -7.256,22.254 -7.446,21.908 -7.65,21.542 -7.867,21.159 -8.083,20.775 -8.313,20.382 -8.556,19.98 -8.799,19.577 -9.041,19.188 -9.284,18.814 L -20.986,-0.028 c -0.139,-0.206 -0.283,-0.384 -0.43,-0.534 -0.147,-0.15 -0.338,-0.267 -0.572,-0.351 -0.234,-0.084 -0.52,-0.141 -0.858,-0.168 -0.338,-0.028 -0.776,-0.043 -1.313,-0.043 -0.676,0 -1.223,0.023 -1.639,0.07 -0.416,0.047 -0.741,0.117 -0.974,0.211 -0.235,0.094 -0.395,0.215 -0.482,0.365 -0.087,0.15 -0.13,0.328 -0.13,0.534 l 0,34.371 c 0,0.187 0.057,0.351 0.169,0.491 0.112,0.141 0.304,0.258 0.572,0.352 0.269,0.093 0.62,0.164 1.053,0.21 0.434,0.047 0.98,0.07 1.639,0.07 0.676,0 1.23,-0.023 1.664,-0.07 0.433,-0.046 0.78,-0.117 1.04,-0.21 0.261,-0.094 0.442,-0.211 0.547,-0.352 0.103,-0.14 0.155,-0.304 0.155,-0.491 l 0,-19.263 c 0,-0.6 -0.008,-1.236 -0.025,-1.91 -0.018,-0.674 -0.044,-1.329 -0.078,-1.966 l 0.051,0 c 0.295,0.562 0.668,1.236 1.118,2.022 0.452,0.786 0.919,1.554 1.405,2.303 l 11.703,18.842 c 0.121,0.188 0.251,0.351 0.39,0.492 0.138,0.14 0.325,0.257 0.559,0.351 0.234,0.093 0.525,0.159 0.871,0.196 0.347,0.038 0.788,0.056 1.326,0.056 0.659,0 1.192,-0.023 1.6,-0.07 0.407,-0.046 0.732,-0.117 0.975,-0.21 0.243,-0.094 0.412,-0.211 0.506,-0.352 C -0.048,34.778 0,34.605 0,34.399 L 0,0 Z"
             style="fill:#1e73b7;fill-opacity:1;fill-rule:nonzero;stroke:none"
             id="path54"
             inkscape:connector-curvature="0" /></g><g
           id="g56"
           transform="translate(420.5692,82.0901)"><path
             d="m 0,0 -0.026,0 -4.759,-15.444 9.544,0 L 0,0 Z m 15.447,-26.649 c 0.208,-0.674 0.338,-1.208 0.39,-1.601 0.053,-0.393 -0.017,-0.688 -0.208,-0.884 -0.191,-0.197 -0.528,-0.319 -1.014,-0.366 -0.485,-0.046 -1.153,-0.07 -2.003,-0.07 -0.883,0 -1.573,0.015 -2.067,0.043 -0.494,0.027 -0.871,0.084 -1.131,0.168 -0.26,0.084 -0.442,0.201 -0.546,0.352 -0.104,0.149 -0.191,0.345 -0.261,0.589 l -2.261,7.301 -12.64,0 -2.132,-7.104 c -0.069,-0.263 -0.16,-0.483 -0.273,-0.66 -0.113,-0.178 -0.295,-0.319 -0.546,-0.421 -0.251,-0.104 -0.607,-0.174 -1.067,-0.211 -0.459,-0.037 -1.061,-0.057 -1.807,-0.057 -0.797,0 -1.421,0.028 -1.872,0.085 -0.451,0.056 -0.763,0.192 -0.937,0.407 -0.173,0.215 -0.233,0.52 -0.181,0.912 0.051,0.394 0.181,0.918 0.389,1.573 L -4.343,5.645 c 0.104,0.318 0.225,0.575 0.364,0.772 0.139,0.196 0.36,0.346 0.664,0.449 0.302,0.103 0.723,0.168 1.26,0.196 0.537,0.029 1.248,0.042 2.133,0.042 1.023,0 1.838,-0.013 2.444,-0.042 C 3.129,7.034 3.602,6.969 3.939,6.866 4.277,6.763 4.521,6.608 4.668,6.403 4.815,6.197 4.941,5.916 5.045,5.56 l 10.402,-32.209 z"
             style="fill:#1e73b7;fill-opacity:1;fill-rule:nonzero;stroke:none"
             id="path58"
             inkscape:connector-curvature="0" /></g><g
           id="g60"
           transform="translate(463.6464,85.9934)"><path
             d="m 0,0 c 0,-0.543 -0.021,-1.006 -0.065,-1.39 -0.043,-0.384 -0.109,-0.693 -0.195,-0.927 -0.087,-0.234 -0.195,-0.407 -0.325,-0.519 -0.13,-0.112 -0.273,-0.169 -0.43,-0.169 l -8.425,0 0,-29.288 c 0,-0.188 -0.056,-0.356 -0.169,-0.505 -0.113,-0.151 -0.299,-0.272 -0.559,-0.366 -0.261,-0.093 -0.611,-0.169 -1.054,-0.224 -0.442,-0.057 -0.992,-0.085 -1.651,-0.085 -0.658,0 -1.209,0.028 -1.651,0.085 -0.443,0.055 -0.793,0.131 -1.053,0.224 -0.261,0.094 -0.446,0.215 -0.56,0.366 -0.112,0.149 -0.169,0.317 -0.169,0.505 l 0,29.288 -8.425,0 c -0.174,0 -0.321,0.057 -0.443,0.169 -0.121,0.112 -0.224,0.285 -0.311,0.519 -0.087,0.234 -0.153,0.543 -0.196,0.927 -0.043,0.384 -0.065,0.847 -0.065,1.39 0,0.562 0.022,1.039 0.065,1.432 0.043,0.393 0.109,0.707 0.196,0.941 0.087,0.234 0.19,0.402 0.311,0.505 0.122,0.103 0.269,0.155 0.443,0.155 l 23.716,0 c 0.157,0 0.3,-0.052 0.43,-0.155 C -0.455,2.775 -0.347,2.607 -0.26,2.373 -0.174,2.139 -0.108,1.825 -0.065,1.432 -0.021,1.039 0,0.562 0,0"
             style="fill:#1e73b7;fill-opacity:1;fill-rule:nonzero;stroke:none"
             id="path62"
             inkscape:connector-curvature="0" /></g><g
           id="g64"
           transform="translate(128.6059,39.3073)"><path
             d="m 0,0 c 0,-0.24 -0.01,-0.445 -0.029,-0.615 -0.021,-0.171 -0.05,-0.308 -0.09,-0.411 -0.04,-0.105 -0.089,-0.181 -0.148,-0.231 -0.06,-0.05 -0.126,-0.074 -0.197,-0.074 l -3.851,0 0,-12.985 c 0,-0.083 -0.026,-0.159 -0.078,-0.224 -0.051,-0.066 -0.136,-0.121 -0.255,-0.162 -0.119,-0.041 -0.279,-0.075 -0.481,-0.1 -0.202,-0.025 -0.454,-0.038 -0.755,-0.038 -0.302,0 -0.553,0.013 -0.755,0.038 -0.202,0.025 -0.362,0.059 -0.481,0.1 -0.119,0.041 -0.204,0.096 -0.255,0.162 -0.052,0.065 -0.078,0.141 -0.078,0.224 l 0,12.985 -3.851,0 c -0.079,0 -0.147,0.024 -0.202,0.074 -0.056,0.05 -0.103,0.126 -0.143,0.231 -0.04,0.103 -0.069,0.24 -0.09,0.411 -0.019,0.17 -0.029,0.375 -0.029,0.615 0,0.25 0.01,0.461 0.029,0.636 0.021,0.175 0.05,0.312 0.09,0.417 0.04,0.103 0.087,0.178 0.143,0.224 0.055,0.045 0.123,0.069 0.202,0.069 l 10.84,0 c 0.071,0 0.137,-0.024 0.197,-0.069 0.059,-0.046 0.108,-0.121 0.148,-0.224 0.04,-0.105 0.069,-0.242 0.09,-0.417 C -0.01,0.461 0,0.25 0,0"
             style="fill:#1e73b7;fill-opacity:1;fill-rule:nonzero;stroke:none"
             id="path66"
             inkscape:connector-curvature="0" /></g><g
           id="g68"
           transform="translate(138.5604,29.2605)"><path
             d="m 0,0 c 0,0.374 -0.059,0.709 -0.178,1.003 -0.119,0.294 -0.293,0.542 -0.523,0.741 -0.23,0.199 -0.523,0.353 -0.88,0.46 -0.356,0.109 -0.82,0.162 -1.391,0.162 l -1.854,0 0,-4.581 2.259,0 c 0.435,0 0.801,0.047 1.099,0.142 0.297,0.095 0.555,0.238 0.772,0.424 0.218,0.186 0.389,0.42 0.512,0.697 C -0.062,-0.674 0,-0.356 0,0 m -0.796,6.897 c 0,0.325 -0.048,0.615 -0.143,0.872 -0.095,0.257 -0.238,0.47 -0.428,0.641 -0.19,0.171 -0.43,0.302 -0.718,0.393 -0.29,0.091 -0.677,0.136 -1.16,0.136 l -1.581,0 0,-4.182 1.747,0 c 0.452,0 0.813,0.055 1.082,0.168 0.269,0.112 0.493,0.264 0.672,0.461 0.178,0.194 0.31,0.422 0.398,0.683 0.087,0.262 0.131,0.538 0.131,0.828 M 3.245,0.113 C 3.245,-0.46 3.17,-0.979 3.02,-1.442 2.869,-1.908 2.661,-2.318 2.395,-2.676 2.13,-3.032 1.813,-3.34 1.444,-3.598 1.076,-3.854 0.67,-4.066 0.226,-4.232 -0.218,-4.397 -0.691,-4.521 -1.195,-4.6 -1.698,-4.678 -2.258,-4.718 -2.876,-4.718 l -4.089,0 c -0.262,0 -0.482,0.081 -0.66,0.243 -0.179,0.163 -0.268,0.425 -0.268,0.791 l 0,14.042 c 0,0.366 0.089,0.629 0.268,0.791 0.178,0.163 0.398,0.244 0.66,0.244 l 3.862,0 c 0.944,0 1.742,-0.083 2.396,-0.249 C -0.054,10.977 0.497,10.727 0.945,10.39 1.393,10.054 1.735,9.629 1.973,9.114 2.211,8.6 2.33,7.993 2.33,7.297 2.33,6.905 2.282,6.539 2.188,6.194 2.092,5.85 1.954,5.536 1.771,5.255 1.589,4.972 1.365,4.723 1.1,4.507 0.834,4.292 0.531,4.117 0.19,3.985 0.626,3.901 1.029,3.756 1.396,3.549 1.766,3.341 2.086,3.073 2.36,2.746 2.633,2.418 2.849,2.034 3.007,1.595 3.166,1.153 3.245,0.66 3.245,0.113"
             style="fill:#1e73b7;fill-opacity:1;fill-rule:nonzero;stroke:none"
             id="path70"
             inkscape:connector-curvature="0" /></g><g
           id="g72"
           transform="translate(155.1127,32.6101)"><path
             d="M 0,0 C 0,0.848 -0.064,1.616 -0.19,2.309 -0.317,3.003 -0.533,3.596 -0.838,4.089 -1.144,4.583 -1.55,4.965 -2.057,5.235 -2.563,5.504 -3.198,5.64 -3.958,5.64 -4.727,5.64 -5.369,5.488 -5.884,5.186 -6.399,4.883 -6.815,4.478 -7.132,3.972 -7.449,3.465 -7.673,2.874 -7.804,2.196 -7.934,1.521 -8,0.805 -8,0.05 c 0,-0.879 0.063,-1.67 0.19,-2.372 0.127,-0.701 0.341,-1.3 0.642,-1.799 0.301,-0.498 0.706,-0.878 1.212,-1.14 0.507,-0.26 1.146,-0.391 1.914,-0.391 0.769,0 1.411,0.15 1.926,0.449 0.515,0.298 0.931,0.705 1.248,1.22 0.317,0.513 0.541,1.113 0.671,1.798 C -0.065,-1.501 0,-0.772 0,0 m 3.281,0.175 c 0,-1.337 -0.159,-2.531 -0.476,-3.587 -0.317,-1.054 -0.788,-1.947 -1.414,-2.682 -0.626,-0.735 -1.401,-1.295 -2.325,-1.68 -0.922,-0.387 -1.99,-0.58 -3.203,-0.58 -1.196,0 -2.241,0.165 -3.132,0.492 -0.892,0.328 -1.634,0.829 -2.229,1.5 -0.594,0.673 -1.04,1.527 -1.336,2.565 -0.298,1.038 -0.447,2.265 -0.447,3.685 0,1.303 0.159,2.475 0.476,3.517 0.317,1.041 0.788,1.927 1.414,2.658 0.626,0.73 1.401,1.29 2.324,1.681 0.923,0.39 1.995,0.584 3.215,0.584 1.165,0 2.194,-0.16 3.085,-0.484 C 0.125,7.52 0.87,7.021 1.467,6.349 2.066,5.678 2.518,4.829 2.823,3.804 3.128,2.778 3.281,1.568 3.281,0.175"
             style="fill:#1e73b7;fill-opacity:1;fill-rule:nonzero;stroke:none"
             id="path74"
             inkscape:connector-curvature="0" /></g><g
           id="g76"
           transform="translate(168.5263,35.5232)"><path
             d="M 0,0 C 0,0.564 -0.095,1.03 -0.285,1.394 -0.476,1.76 -0.709,2.029 -0.986,2.204 -1.264,2.378 -1.555,2.487 -1.86,2.534 -2.166,2.58 -2.48,2.603 -2.805,2.603 l -1.332,0 0,-5.466 1.403,0 c 0.499,0 0.918,0.07 1.255,0.212 0.336,0.14 0.611,0.338 0.825,0.59 0.214,0.254 0.377,0.557 0.487,0.91 C -0.055,-0.799 0,-0.415 0,0 M 3.269,0.236 C 3.269,-0.668 3.134,-1.469 2.865,-2.165 2.596,-2.863 2.203,-3.451 1.688,-3.928 1.173,-4.405 0.542,-4.768 -0.208,-5.017 -0.957,-5.266 -1.838,-5.391 -2.853,-5.391 l -1.284,0 0,-5.141 c 0,-0.083 -0.026,-0.158 -0.076,-0.224 -0.052,-0.066 -0.138,-0.121 -0.256,-0.162 -0.119,-0.041 -0.278,-0.075 -0.476,-0.1 -0.198,-0.025 -0.451,-0.038 -0.761,-0.038 -0.301,0 -0.552,0.013 -0.755,0.038 -0.201,0.025 -0.362,0.059 -0.481,0.1 -0.119,0.041 -0.202,0.096 -0.249,0.162 -0.048,0.066 -0.072,0.141 -0.072,0.224 l 0,14.491 c 0,0.39 0.097,0.683 0.292,0.878 0.194,0.194 0.45,0.293 0.766,0.293 l 3.626,0 c 0.364,0 0.711,-0.015 1.039,-0.045 C -1.21,5.057 -0.816,4.994 -0.356,4.899 0.103,4.804 0.568,4.628 1.041,4.37 1.512,4.112 1.914,3.787 2.247,3.394 2.58,2.998 2.833,2.537 3.007,2.011 3.182,1.483 3.269,0.892 3.269,0.236"
             style="fill:#1e73b7;fill-opacity:1;fill-rule:nonzero;stroke:none"
             id="path78"
             inkscape:connector-curvature="0" /></g><g
           id="g80"
           transform="translate(186.9809,24.9665)"><path
             d="m 0,0 c 0,-0.084 -0.026,-0.156 -0.077,-0.219 -0.051,-0.061 -0.137,-0.114 -0.256,-0.155 -0.119,-0.041 -0.279,-0.072 -0.481,-0.094 -0.203,-0.019 -0.454,-0.031 -0.755,-0.031 -0.302,0 -0.553,0.012 -0.755,0.031 -0.201,0.022 -0.36,0.053 -0.476,0.094 -0.115,0.041 -0.196,0.094 -0.243,0.155 C -3.09,-0.156 -3.114,-0.084 -3.114,0 l 0,8.491 c 0,0.322 0.004,0.64 0.011,0.951 0.008,0.312 0.02,0.587 0.036,0.829 l -0.023,0 C -3.154,10.154 -3.229,10.02 -3.316,9.866 -3.404,9.712 -3.497,9.55 -3.595,9.381 -3.695,9.21 -3.799,9.035 -3.911,8.857 -4.022,8.679 -4.132,8.507 -4.244,8.342 l -5.349,-8.355 c -0.063,-0.091 -0.128,-0.171 -0.196,-0.236 -0.067,-0.066 -0.154,-0.119 -0.262,-0.156 -0.106,-0.037 -0.237,-0.063 -0.391,-0.074 -0.155,-0.013 -0.355,-0.02 -0.601,-0.02 -0.309,0 -0.559,0.012 -0.749,0.031 -0.19,0.022 -0.338,0.053 -0.446,0.094 -0.106,0.041 -0.179,0.096 -0.22,0.162 -0.039,0.066 -0.059,0.146 -0.059,0.236 l 0,15.239 c 0,0.084 0.026,0.156 0.078,0.218 0.051,0.061 0.138,0.114 0.261,0.156 0.123,0.041 0.283,0.072 0.481,0.093 0.198,0.02 0.448,0.032 0.749,0.032 0.309,0 0.563,-0.012 0.761,-0.032 0.198,-0.021 0.357,-0.052 0.476,-0.093 0.118,-0.042 0.202,-0.095 0.249,-0.156 0.048,-0.062 0.071,-0.134 0.071,-0.218 l 0,-8.541 C -9.391,6.457 -9.395,6.174 -9.402,5.876 -9.41,5.577 -9.422,5.287 -9.438,5.004 l 0.024,0 c 0.135,0.249 0.305,0.548 0.511,0.897 0.206,0.349 0.42,0.689 0.642,1.02 l 5.349,8.354 c 0.055,0.082 0.115,0.155 0.178,0.217 0.064,0.064 0.148,0.114 0.256,0.157 0.106,0.041 0.239,0.07 0.398,0.086 0.159,0.018 0.361,0.027 0.606,0.027 0.302,0 0.545,-0.012 0.731,-0.032 0.186,-0.021 0.335,-0.052 0.446,-0.093 0.111,-0.042 0.188,-0.095 0.231,-0.156 C -0.021,15.419 0,15.342 0,15.251 L 0,0 Z"
             style="fill:#1e73b7;fill-opacity:1;fill-rule:nonzero;stroke:none"
             id="path82"
             inkscape:connector-curvature="0" /></g><g
           id="g84"
           transform="translate(200.8109,39.3073)"><path
             d="m 0,0 c 0,-0.24 -0.01,-0.445 -0.03,-0.615 -0.02,-0.171 -0.049,-0.308 -0.089,-0.411 -0.04,-0.105 -0.089,-0.181 -0.148,-0.231 -0.061,-0.05 -0.126,-0.074 -0.197,-0.074 l -3.851,0 0,-12.985 c 0,-0.083 -0.026,-0.159 -0.078,-0.224 -0.051,-0.066 -0.136,-0.121 -0.255,-0.162 -0.119,-0.041 -0.279,-0.075 -0.482,-0.1 -0.201,-0.025 -0.453,-0.038 -0.754,-0.038 -0.302,0 -0.553,0.013 -0.755,0.038 -0.202,0.025 -0.362,0.059 -0.481,0.1 -0.119,0.041 -0.205,0.096 -0.255,0.162 -0.052,0.065 -0.078,0.141 -0.078,0.224 l 0,12.985 -3.852,0 c -0.078,0 -0.146,0.024 -0.201,0.074 -0.056,0.05 -0.103,0.126 -0.143,0.231 -0.04,0.103 -0.069,0.24 -0.09,0.411 -0.019,0.17 -0.029,0.375 -0.029,0.615 0,0.25 0.01,0.461 0.029,0.636 0.021,0.175 0.05,0.312 0.09,0.417 0.04,0.103 0.087,0.178 0.143,0.224 0.055,0.045 0.123,0.069 0.201,0.069 l 10.841,0 c 0.071,0 0.136,-0.024 0.197,-0.069 C -0.208,1.231 -0.159,1.156 -0.119,1.053 -0.079,0.948 -0.05,0.811 -0.03,0.636 -0.01,0.461 0,0.25 0,0"
             style="fill:#1e73b7;fill-opacity:1;fill-rule:nonzero;stroke:none"
             id="path86"
             inkscape:connector-curvature="0" /></g><g
           id="g88"
           transform="translate(211.9896,25.8249)"><path
             d="m 0,0 c 0,-0.241 -0.01,-0.441 -0.029,-0.604 -0.02,-0.162 -0.05,-0.292 -0.09,-0.392 -0.04,-0.1 -0.089,-0.172 -0.148,-0.218 -0.06,-0.046 -0.125,-0.068 -0.196,-0.068 l -7.727,0 c -0.261,0 -0.481,0.081 -0.659,0.243 -0.179,0.162 -0.268,0.425 -0.268,0.791 l 0,14.042 c 0,0.365 0.089,0.629 0.268,0.791 0.178,0.162 0.398,0.243 0.659,0.243 l 7.679,0 c 0.072,0 0.135,-0.021 0.19,-0.063 0.055,-0.041 0.103,-0.114 0.143,-0.217 0.04,-0.105 0.069,-0.236 0.089,-0.399 0.02,-0.162 0.03,-0.367 0.03,-0.617 0,-0.231 -0.01,-0.429 -0.03,-0.59 -0.02,-0.162 -0.049,-0.293 -0.089,-0.392 -0.04,-0.1 -0.088,-0.172 -0.143,-0.218 -0.055,-0.047 -0.118,-0.069 -0.19,-0.069 l -5.491,0 0,-3.934 4.647,0 c 0.071,0 0.137,-0.022 0.196,-0.068 0.06,-0.045 0.109,-0.116 0.149,-0.212 0.04,-0.095 0.069,-0.225 0.089,-0.387 0.02,-0.16 0.03,-0.358 0.03,-0.59 0,-0.242 -0.01,-0.441 -0.03,-0.598 C -0.941,6.315 -0.97,6.189 -1.01,6.094 -1.05,5.998 -1.099,5.931 -1.159,5.889 -1.218,5.848 -1.284,5.826 -1.355,5.826 l -4.647,0 0,-4.543 5.539,0 c 0.071,0 0.136,-0.024 0.196,-0.069 0.059,-0.046 0.108,-0.118 0.148,-0.218 0.04,-0.1 0.07,-0.23 0.09,-0.392 C -0.01,0.442 0,0.241 0,0"
             style="fill:#1e73b7;fill-opacity:1;fill-rule:nonzero;stroke:none"
             id="path90"
             inkscape:connector-curvature="0" /></g><g
           id="g92"
           transform="translate(231.3764,26.9831)"><path
             d="M 0,0 C 0,-0.208 -0.005,-0.384 -0.018,-0.529 -0.029,-0.674 -0.047,-0.8 -0.071,-0.903 -0.095,-1.007 -0.126,-1.095 -0.167,-1.171 -0.206,-1.246 -0.269,-1.33 -0.356,-1.425 c -0.088,-0.096 -0.256,-0.219 -0.505,-0.368 -0.251,-0.149 -0.556,-0.292 -0.916,-0.43 -0.36,-0.136 -0.772,-0.25 -1.237,-0.342 -0.463,-0.091 -0.964,-0.137 -1.503,-0.137 -1.054,0 -2.004,0.171 -2.853,0.511 -0.848,0.339 -1.569,0.848 -2.163,1.525 -0.594,0.676 -1.05,1.52 -1.367,2.533 -0.317,1.012 -0.475,2.192 -0.475,3.536 0,1.369 0.174,2.585 0.522,3.648 0.35,1.062 0.837,1.954 1.462,2.676 0.626,0.722 1.377,1.27 2.253,1.644 0.876,0.374 1.841,0.56 2.894,0.56 0.429,0 0.84,-0.036 1.237,-0.113 0.396,-0.073 0.762,-0.172 1.1,-0.293 0.336,-0.119 0.639,-0.258 0.908,-0.416 0.27,-0.158 0.458,-0.293 0.565,-0.405 0.107,-0.111 0.18,-0.205 0.22,-0.28 0.04,-0.074 0.071,-0.169 0.095,-0.286 0.024,-0.117 0.042,-0.253 0.054,-0.411 0.012,-0.158 0.018,-0.353 0.018,-0.584 0,-0.249 -0.008,-0.461 -0.024,-0.636 -0.016,-0.174 -0.044,-0.316 -0.083,-0.422 -0.04,-0.108 -0.088,-0.189 -0.143,-0.238 -0.056,-0.05 -0.119,-0.074 -0.19,-0.074 -0.119,0 -0.269,0.073 -0.452,0.218 -0.183,0.145 -0.418,0.307 -0.707,0.485 -0.29,0.179 -0.634,0.341 -1.035,0.486 -0.4,0.145 -0.877,0.218 -1.432,0.218 -0.61,0 -1.155,-0.131 -1.635,-0.393 C -6.227,10.525 -6.635,10.153 -6.971,9.667 -7.308,9.182 -7.564,8.595 -7.738,7.904 -7.912,7.217 -8,6.44 -8,5.577 c 0,-0.946 0.093,-1.766 0.279,-2.459 0.187,-0.692 0.452,-1.264 0.798,-1.712 0.343,-0.448 0.76,-0.782 1.247,-1.001 0.488,-0.22 1.036,-0.33 1.647,-0.33 0.554,0 1.034,0.069 1.438,0.205 0.404,0.136 0.751,0.288 1.04,0.455 0.289,0.165 0.527,0.314 0.714,0.448 0.186,0.132 0.33,0.199 0.433,0.199 0.079,0 0.143,-0.017 0.19,-0.05 0.047,-0.034 0.088,-0.1 0.119,-0.199 0.032,-0.1 0.055,-0.238 0.072,-0.418 C -0.008,0.537 0,0.299 0,0"
             style="fill:#1e73b7;fill-opacity:1;fill-rule:nonzero;stroke:none"
             id="path94"
             inkscape:connector-curvature="0" /></g><g
           id="g96"
           transform="translate(244.4218,32.6101)"><path
             d="M 0,0 C 0,0.848 -0.063,1.616 -0.19,2.309 -0.316,3.003 -0.533,3.596 -0.838,4.089 -1.144,4.583 -1.55,4.965 -2.057,5.235 -2.563,5.504 -3.197,5.64 -3.958,5.64 -4.727,5.64 -5.368,5.488 -5.884,5.186 -6.399,4.883 -6.815,4.478 -7.132,3.972 -7.449,3.465 -7.673,2.874 -7.804,2.196 -7.934,1.521 -8,0.805 -8,0.05 c 0,-0.879 0.063,-1.67 0.19,-2.372 0.127,-0.701 0.341,-1.3 0.642,-1.799 0.302,-0.498 0.706,-0.878 1.213,-1.14 0.507,-0.26 1.145,-0.391 1.914,-0.391 0.768,0 1.41,0.15 1.925,0.449 0.515,0.298 0.931,0.705 1.248,1.22 0.317,0.513 0.542,1.113 0.672,1.798 C -0.065,-1.501 0,-0.772 0,0 m 3.281,0.175 c 0,-1.337 -0.159,-2.531 -0.475,-3.587 -0.318,-1.054 -0.789,-1.947 -1.415,-2.682 -0.626,-0.735 -1.401,-1.295 -2.325,-1.68 -0.922,-0.387 -1.99,-0.58 -3.203,-0.58 -1.196,0 -2.241,0.165 -3.132,0.492 -0.891,0.328 -1.634,0.829 -2.228,1.5 -0.595,0.673 -1.041,1.527 -1.337,2.565 -0.298,1.038 -0.446,2.265 -0.446,3.685 0,1.303 0.158,2.475 0.475,3.517 0.317,1.041 0.788,1.927 1.414,2.658 0.626,0.73 1.401,1.29 2.324,1.681 0.923,0.39 1.996,0.584 3.215,0.584 1.165,0 2.194,-0.16 3.085,-0.484 C 0.125,7.52 0.87,7.021 1.468,6.349 2.066,5.678 2.518,4.829 2.823,3.804 3.128,2.778 3.281,1.568 3.281,0.175"
             style="fill:#1e73b7;fill-opacity:1;fill-rule:nonzero;stroke:none"
             id="path98"
             inkscape:connector-curvature="0" /></g><g
           id="g100"
           transform="translate(258.5497,29.3239)"><path
             d="m 0,0 c 0,0.356 -0.056,0.678 -0.167,0.964 -0.11,0.287 -0.272,0.531 -0.487,0.735 -0.214,0.203 -0.49,0.359 -0.825,0.466 -0.337,0.108 -0.788,0.162 -1.35,0.162 l -2.009,0 0,-4.643 2.044,0 c 0.508,0 0.926,0.05 1.254,0.15 0.329,0.1 0.605,0.249 0.827,0.448 0.222,0.198 0.397,0.444 0.523,0.734 C -0.063,-0.693 0,-0.366 0,0 M 3.174,0.212 C 3.174,-0.52 3.055,-1.187 2.817,-1.794 2.579,-2.399 2.221,-2.924 1.741,-3.368 1.262,-3.813 0.653,-4.158 -0.083,-4.407 -0.82,-4.656 -1.775,-4.781 -2.948,-4.781 l -4.053,0 c -0.286,0 -0.518,0.081 -0.696,0.243 -0.178,0.162 -0.267,0.438 -0.267,0.828 l 0,14.005 c 0,0.365 0.089,0.629 0.267,0.791 0.178,0.162 0.398,0.243 0.66,0.243 l 8.701,0 c 0.079,0 0.148,-0.021 0.208,-0.063 0.059,-0.041 0.11,-0.114 0.154,-0.217 0.044,-0.105 0.076,-0.236 0.095,-0.399 0.021,-0.162 0.03,-0.367 0.03,-0.617 0,-0.231 -0.009,-0.429 -0.03,-0.59 C 2.102,9.281 2.07,9.147 2.026,9.044 1.982,8.939 1.931,8.866 1.872,8.82 1.812,8.774 1.747,8.752 1.676,8.752 l -6.514,0 0,-4.009 2.556,0 c 0.99,0 1.806,-0.099 2.448,-0.3 C 0.809,4.244 1.351,3.95 1.795,3.561 2.239,3.169 2.579,2.692 2.817,2.128 3.055,1.563 3.174,0.926 3.174,0.212"
             style="fill:#1e73b7;fill-opacity:1;fill-rule:nonzero;stroke:none"
             id="path102"
             inkscape:connector-curvature="0" /></g><g
           id="g104"
           transform="translate(274.9823,26.9831)"><path
             d="m 0,0 c 0,-0.208 -0.005,-0.384 -0.018,-0.529 -0.011,-0.145 -0.029,-0.271 -0.053,-0.374 -0.024,-0.104 -0.055,-0.192 -0.095,-0.268 -0.04,-0.075 -0.103,-0.159 -0.19,-0.254 -0.087,-0.096 -0.256,-0.219 -0.505,-0.368 -0.25,-0.149 -0.555,-0.292 -0.916,-0.43 -0.36,-0.136 -0.772,-0.25 -1.237,-0.342 -0.463,-0.091 -0.964,-0.137 -1.503,-0.137 -1.053,0 -2.004,0.171 -2.852,0.511 -0.849,0.339 -1.569,0.848 -2.164,1.525 -0.594,0.676 -1.05,1.52 -1.366,2.533 -0.318,1.012 -0.476,2.192 -0.476,3.536 0,1.369 0.174,2.585 0.522,3.648 0.35,1.062 0.837,1.954 1.462,2.676 0.626,0.722 1.377,1.27 2.253,1.644 0.876,0.374 1.841,0.56 2.895,0.56 0.428,0 0.84,-0.036 1.236,-0.113 0.397,-0.073 0.763,-0.172 1.1,-0.293 0.336,-0.119 0.639,-0.258 0.909,-0.416 0.269,-0.158 0.457,-0.293 0.564,-0.405 0.107,-0.111 0.18,-0.205 0.22,-0.28 0.04,-0.074 0.071,-0.169 0.096,-0.286 0.023,-0.117 0.042,-0.253 0.053,-0.411 0.012,-0.158 0.018,-0.353 0.018,-0.584 0,-0.249 -0.008,-0.461 -0.024,-0.636 -0.016,-0.174 -0.043,-0.316 -0.083,-0.422 -0.04,-0.108 -0.087,-0.189 -0.143,-0.238 -0.056,-0.05 -0.119,-0.074 -0.19,-0.074 -0.118,0 -0.269,0.073 -0.451,0.218 -0.183,0.145 -0.418,0.307 -0.708,0.485 -0.29,0.179 -0.634,0.341 -1.035,0.486 -0.399,0.145 -0.877,0.218 -1.431,0.218 -0.611,0 -1.156,-0.131 -1.635,-0.393 -0.48,-0.262 -0.888,-0.634 -1.224,-1.12 C -7.308,9.182 -7.563,8.595 -7.738,7.904 -7.912,7.217 -7.999,6.44 -7.999,5.577 c 0,-0.946 0.093,-1.766 0.278,-2.459 0.187,-0.692 0.452,-1.264 0.797,-1.712 0.345,-0.448 0.761,-0.782 1.248,-1.001 0.489,-0.22 1.036,-0.33 1.647,-0.33 0.554,0 1.034,0.069 1.438,0.205 0.404,0.136 0.751,0.288 1.04,0.455 0.289,0.165 0.527,0.314 0.714,0.448 0.186,0.132 0.33,0.199 0.433,0.199 0.079,0 0.143,-0.017 0.19,-0.05 0.048,-0.034 0.088,-0.1 0.119,-0.199 0.032,-0.1 0.056,-0.238 0.072,-0.418 C -0.008,0.537 0,0.299 0,0"
             style="fill:#1e73b7;fill-opacity:1;fill-rule:nonzero;stroke:none"
             id="path106"
             inkscape:connector-curvature="0" /></g><g
           id="g108"
           transform="translate(287.7069,39.3073)"><path
             d="m 0,0 c 0,-0.24 -0.01,-0.445 -0.029,-0.615 -0.021,-0.171 -0.05,-0.308 -0.09,-0.411 -0.039,-0.105 -0.089,-0.181 -0.148,-0.231 -0.06,-0.05 -0.126,-0.074 -0.197,-0.074 l -3.85,0 0,-12.985 c 0,-0.083 -0.027,-0.159 -0.079,-0.224 -0.05,-0.066 -0.135,-0.121 -0.254,-0.162 -0.12,-0.041 -0.28,-0.075 -0.482,-0.1 -0.202,-0.025 -0.453,-0.038 -0.755,-0.038 -0.302,0 -0.553,0.013 -0.755,0.038 -0.202,0.025 -0.362,0.059 -0.481,0.1 -0.119,0.041 -0.204,0.096 -0.255,0.162 -0.052,0.065 -0.078,0.141 -0.078,0.224 l 0,12.985 -3.851,0 c -0.079,0 -0.147,0.024 -0.202,0.074 -0.056,0.05 -0.103,0.126 -0.142,0.231 -0.04,0.103 -0.07,0.24 -0.09,0.411 -0.02,0.17 -0.03,0.375 -0.03,0.615 0,0.25 0.01,0.461 0.03,0.636 0.02,0.175 0.05,0.312 0.09,0.417 0.039,0.103 0.086,0.178 0.142,0.224 0.055,0.045 0.123,0.069 0.202,0.069 l 10.84,0 c 0.071,0 0.137,-0.024 0.197,-0.069 0.059,-0.046 0.109,-0.121 0.148,-0.224 0.04,-0.105 0.069,-0.242 0.09,-0.417 C -0.01,0.461 0,0.25 0,0"
             style="fill:#1e73b7;fill-opacity:1;fill-rule:nonzero;stroke:none"
             id="path110"
             inkscape:connector-curvature="0" /></g><g
           id="g112"
           transform="translate(297.662,29.2605)"><path
             d="m 0,0 c 0,0.374 -0.06,0.709 -0.179,1.003 -0.118,0.294 -0.293,0.542 -0.522,0.741 -0.231,0.199 -0.524,0.353 -0.88,0.46 -0.356,0.109 -0.82,0.162 -1.391,0.162 l -1.854,0 0,-4.581 2.259,0 c 0.435,0 0.801,0.047 1.099,0.142 0.297,0.095 0.555,0.238 0.772,0.424 0.218,0.186 0.389,0.42 0.512,0.697 C -0.062,-0.674 0,-0.356 0,0 m -0.797,6.897 c 0,0.325 -0.047,0.615 -0.142,0.872 -0.095,0.257 -0.238,0.47 -0.428,0.641 -0.191,0.171 -0.43,0.302 -0.719,0.393 -0.289,0.091 -0.676,0.136 -1.159,0.136 l -1.581,0 0,-4.182 1.747,0 c 0.452,0 0.812,0.055 1.082,0.168 0.269,0.112 0.493,0.264 0.672,0.461 0.178,0.194 0.31,0.422 0.397,0.683 0.088,0.262 0.131,0.538 0.131,0.828 M 3.245,0.113 C 3.245,-0.46 3.169,-0.979 3.02,-1.442 2.869,-1.908 2.66,-2.318 2.395,-2.676 2.13,-3.032 1.812,-3.34 1.443,-3.598 1.076,-3.854 0.67,-4.066 0.226,-4.232 -0.219,-4.397 -0.691,-4.521 -1.195,-4.6 -1.698,-4.678 -2.259,-4.718 -2.877,-4.718 l -4.089,0 c -0.262,0 -0.481,0.081 -0.659,0.243 -0.179,0.163 -0.268,0.425 -0.268,0.791 l 0,14.042 c 0,0.366 0.089,0.629 0.268,0.791 0.178,0.163 0.397,0.244 0.659,0.244 l 3.863,0 c 0.944,0 1.742,-0.083 2.396,-0.249 C -0.054,10.977 0.497,10.727 0.944,10.39 1.393,10.054 1.735,9.629 1.973,9.114 2.211,8.6 2.33,7.993 2.33,7.297 2.33,6.905 2.282,6.539 2.188,6.194 2.092,5.85 1.953,5.536 1.771,5.255 1.589,4.972 1.364,4.723 1.1,4.507 0.834,4.292 0.53,4.117 0.19,3.985 0.626,3.901 1.028,3.756 1.396,3.549 1.766,3.341 2.086,3.073 2.359,2.746 2.633,2.418 2.849,2.034 3.007,1.595 3.166,1.153 3.245,0.66 3.245,0.113"
             style="fill:#1e73b7;fill-opacity:1;fill-rule:nonzero;stroke:none"
             id="path114"
             inkscape:connector-curvature="0" /></g><g
           id="g116"
           transform="translate(312.7753,25.8249)"><path
             d="m 0,0 c 0,-0.241 -0.01,-0.441 -0.029,-0.604 -0.021,-0.162 -0.05,-0.292 -0.089,-0.392 -0.04,-0.1 -0.09,-0.172 -0.149,-0.218 -0.06,-0.046 -0.125,-0.068 -0.196,-0.068 l -7.726,0 c -0.262,0 -0.483,0.081 -0.66,0.243 -0.179,0.162 -0.268,0.425 -0.268,0.791 l 0,14.042 c 0,0.365 0.089,0.629 0.268,0.791 0.177,0.162 0.398,0.243 0.66,0.243 l 7.678,0 c 0.072,0 0.135,-0.021 0.191,-0.063 0.054,-0.041 0.102,-0.114 0.142,-0.217 0.039,-0.105 0.07,-0.236 0.089,-0.399 0.02,-0.162 0.029,-0.367 0.029,-0.617 0,-0.231 -0.009,-0.429 -0.029,-0.59 -0.019,-0.162 -0.05,-0.293 -0.089,-0.392 -0.04,-0.1 -0.088,-0.172 -0.142,-0.218 -0.056,-0.047 -0.119,-0.069 -0.191,-0.069 l -5.492,0 0,-3.934 4.649,0 c 0.071,0 0.136,-0.022 0.195,-0.068 0.06,-0.045 0.109,-0.116 0.149,-0.212 0.039,-0.095 0.069,-0.225 0.089,-0.387 0.02,-0.16 0.029,-0.358 0.029,-0.59 0,-0.242 -0.009,-0.441 -0.029,-0.598 C -0.941,6.315 -0.971,6.189 -1.01,6.094 -1.05,5.998 -1.099,5.931 -1.159,5.889 -1.218,5.848 -1.283,5.826 -1.354,5.826 l -4.649,0 0,-4.543 5.54,0 c 0.071,0 0.136,-0.024 0.196,-0.069 0.059,-0.046 0.109,-0.118 0.149,-0.218 0.039,-0.1 0.068,-0.23 0.089,-0.392 C -0.01,0.442 0,0.241 0,0"
             style="fill:#1e73b7;fill-opacity:1;fill-rule:nonzero;stroke:none"
             id="path118"
             inkscape:connector-curvature="0" /></g><g
           id="g120"
           transform="translate(327.7821,24.9909)"><path
             d="m 0,0 c 0,-0.083 -0.025,-0.158 -0.077,-0.224 -0.052,-0.066 -0.137,-0.121 -0.256,-0.162 -0.118,-0.041 -0.277,-0.075 -0.476,-0.099 -0.197,-0.026 -0.447,-0.038 -0.748,-0.038 -0.309,0 -0.565,0.012 -0.766,0.038 -0.203,0.024 -0.362,0.058 -0.476,0.099 -0.115,0.041 -0.198,0.096 -0.25,0.162 -0.052,0.066 -0.077,0.141 -0.077,0.224 l 0,6.511 -5.753,0 0,-6.511 c 0,-0.083 -0.024,-0.158 -0.071,-0.224 -0.048,-0.066 -0.131,-0.121 -0.25,-0.162 -0.119,-0.041 -0.278,-0.075 -0.476,-0.099 -0.198,-0.026 -0.452,-0.038 -0.761,-0.038 -0.301,0 -0.552,0.012 -0.754,0.038 -0.203,0.024 -0.363,0.058 -0.482,0.099 -0.119,0.041 -0.204,0.096 -0.255,0.162 -0.051,0.066 -0.078,0.141 -0.078,0.224 l 0,15.214 c 0,0.082 0.027,0.157 0.078,0.223 0.051,0.067 0.136,0.121 0.255,0.162 0.119,0.042 0.279,0.076 0.482,0.099 0.202,0.027 0.453,0.039 0.754,0.039 0.309,0 0.563,-0.012 0.761,-0.039 0.198,-0.023 0.357,-0.057 0.476,-0.099 0.119,-0.041 0.202,-0.095 0.25,-0.162 0.047,-0.066 0.071,-0.141 0.071,-0.223 l 0,-5.914 5.753,0 0,5.914 c 0,0.082 0.025,0.157 0.077,0.223 0.052,0.067 0.135,0.121 0.25,0.162 0.114,0.042 0.273,0.076 0.476,0.099 0.201,0.027 0.457,0.039 0.766,0.039 0.301,0 0.551,-0.012 0.748,-0.039 0.199,-0.023 0.358,-0.057 0.476,-0.099 0.119,-0.041 0.204,-0.095 0.256,-0.162 C -0.025,15.371 0,15.296 0,15.214 L 0,0 Z"
             style="fill:#1e73b7;fill-opacity:1;fill-rule:nonzero;stroke:none"
             id="path122"
             inkscape:connector-curvature="0" /></g><g
           id="g124"
           transform="translate(343.3837,24.9909)"><path
             d="m 0,0 c 0,-0.083 -0.025,-0.158 -0.077,-0.224 -0.052,-0.066 -0.137,-0.121 -0.256,-0.162 -0.118,-0.041 -0.277,-0.075 -0.476,-0.099 -0.197,-0.026 -0.447,-0.038 -0.748,-0.038 -0.309,0 -0.565,0.012 -0.766,0.038 -0.203,0.024 -0.362,0.058 -0.476,0.099 -0.115,0.041 -0.198,0.096 -0.25,0.162 -0.052,0.066 -0.077,0.141 -0.077,0.224 l 0,6.511 -5.753,0 0,-6.511 c 0,-0.083 -0.024,-0.158 -0.071,-0.224 -0.048,-0.066 -0.131,-0.121 -0.25,-0.162 -0.119,-0.041 -0.278,-0.075 -0.476,-0.099 -0.197,-0.026 -0.451,-0.038 -0.761,-0.038 -0.3,0 -0.552,0.012 -0.753,0.038 -0.204,0.024 -0.364,0.058 -0.483,0.099 -0.118,0.041 -0.204,0.096 -0.255,0.162 -0.051,0.066 -0.078,0.141 -0.078,0.224 l 0,15.214 c 0,0.082 0.027,0.157 0.078,0.223 0.051,0.067 0.137,0.121 0.255,0.162 0.119,0.042 0.279,0.076 0.483,0.099 0.201,0.027 0.453,0.039 0.753,0.039 0.31,0 0.564,-0.012 0.761,-0.039 0.198,-0.023 0.357,-0.057 0.476,-0.099 0.119,-0.041 0.202,-0.095 0.25,-0.162 0.047,-0.066 0.071,-0.141 0.071,-0.223 l 0,-5.914 5.753,0 0,5.914 c 0,0.082 0.025,0.157 0.077,0.223 0.052,0.067 0.135,0.121 0.25,0.162 0.114,0.042 0.273,0.076 0.476,0.099 0.201,0.027 0.457,0.039 0.766,0.039 0.301,0 0.551,-0.012 0.748,-0.039 0.199,-0.023 0.358,-0.057 0.476,-0.099 0.119,-0.041 0.204,-0.095 0.256,-0.162 C -0.025,15.371 0,15.296 0,15.214 L 0,0 Z"
             style="fill:#1e73b7;fill-opacity:1;fill-rule:nonzero;stroke:none"
             id="path126"
             inkscape:connector-curvature="0" /></g><g
           id="g128"
           transform="translate(363.0624,24.9665)"><path
             d="m 0,0 c 0,-0.084 -0.025,-0.156 -0.077,-0.219 -0.052,-0.061 -0.137,-0.114 -0.256,-0.155 -0.119,-0.041 -0.28,-0.072 -0.481,-0.094 -0.203,-0.019 -0.455,-0.031 -0.755,-0.031 -0.301,0 -0.551,0.012 -0.748,0.031 -0.2,0.022 -0.36,0.053 -0.483,0.094 -0.123,0.041 -0.21,0.094 -0.262,0.155 -0.051,0.063 -0.077,0.135 -0.077,0.219 l 0,15.263 c 0,0.084 0.026,0.156 0.077,0.218 0.052,0.061 0.139,0.114 0.262,0.156 0.123,0.041 0.285,0.072 0.488,0.093 0.202,0.02 0.449,0.032 0.743,0.032 0.3,0 0.552,-0.012 0.755,-0.032 0.201,-0.021 0.362,-0.052 0.481,-0.093 0.119,-0.042 0.204,-0.095 0.256,-0.156 C -0.025,15.419 0,15.347 0,15.263 L 0,0 Z m -8.215,4.618 c 0,0.399 -0.055,0.756 -0.165,1.071 -0.111,0.315 -0.282,0.584 -0.512,0.809 -0.229,0.224 -0.523,0.398 -0.879,0.523 -0.357,0.125 -0.884,0.187 -1.582,0.187 l -1.604,0 0,-5.116 1.652,0 c 0.73,0 1.278,0.075 1.647,0.228 0.368,0.155 0.654,0.354 0.861,0.599 0.207,0.245 0.356,0.517 0.446,0.815 0.091,0.299 0.136,0.593 0.136,0.884 m 3.209,0.274 C -5.006,4.128 -5.117,3.43 -5.344,2.794 -5.569,2.16 -5.924,1.605 -6.406,1.132 -6.891,0.66 -7.522,0.281 -8.303,0 c -0.782,-0.283 -1.844,-0.424 -3.192,-0.424 l -3.625,0 c -0.135,0 -0.26,0.019 -0.375,0.056 -0.114,0.038 -0.215,0.099 -0.303,0.187 -0.087,0.087 -0.156,0.196 -0.208,0.324 -0.052,0.128 -0.077,0.284 -0.077,0.467 l 0,14.653 c 0,0.084 0.025,0.156 0.077,0.218 0.052,0.061 0.139,0.114 0.262,0.156 0.122,0.041 0.285,0.072 0.486,0.093 0.203,0.02 0.451,0.032 0.744,0.032 0.309,0 0.563,-0.012 0.761,-0.032 0.197,-0.021 0.357,-0.052 0.475,-0.093 0.119,-0.042 0.202,-0.095 0.25,-0.156 0.048,-0.062 0.071,-0.134 0.071,-0.218 l 0,-5.565 1.937,0 c 1.15,0 2.067,-0.104 2.752,-0.311 C -7.583,9.179 -7,8.872 -6.52,8.465 -6.04,8.059 -5.668,7.552 -5.402,6.946 -5.137,6.341 -5.006,5.655 -5.006,4.892"
             style="fill:#1e73b7;fill-opacity:1;fill-rule:nonzero;stroke:none"
             id="path130"
             inkscape:connector-curvature="0" /></g><g
           id="g132"
           transform="translate(384.581,24.9909)"><path
             d="m 0,0 c 0,-0.083 -0.021,-0.158 -0.064,-0.224 -0.043,-0.066 -0.123,-0.121 -0.238,-0.162 -0.114,-0.041 -0.268,-0.075 -0.459,-0.099 -0.189,-0.026 -0.43,-0.038 -0.723,-0.038 -0.287,0 -0.524,0.012 -0.714,0.038 -0.191,0.024 -0.341,0.058 -0.451,0.099 -0.111,0.041 -0.191,0.096 -0.239,0.162 -0.047,0.066 -0.071,0.141 -0.071,0.224 l 0,13.109 -0.023,0 -4.457,-13.096 c -0.033,-0.109 -0.084,-0.199 -0.156,-0.268 -0.071,-0.071 -0.168,-0.126 -0.291,-0.168 -0.123,-0.042 -0.279,-0.069 -0.469,-0.081 -0.191,-0.013 -0.42,-0.019 -0.69,-0.019 -0.269,0 -0.499,0.011 -0.689,0.031 -0.191,0.021 -0.347,0.054 -0.47,0.099 -0.123,0.045 -0.22,0.103 -0.291,0.169 -0.071,0.066 -0.119,0.146 -0.143,0.237 l -4.302,13.096 -0.025,0 0,-13.109 c 0,-0.083 -0.021,-0.158 -0.065,-0.224 -0.043,-0.066 -0.124,-0.121 -0.243,-0.162 -0.12,-0.041 -0.272,-0.075 -0.457,-0.099 -0.187,-0.026 -0.427,-0.038 -0.721,-0.038 -0.285,0 -0.523,0.012 -0.713,0.038 -0.19,0.024 -0.343,0.058 -0.457,0.099 -0.115,0.041 -0.194,0.096 -0.238,0.162 -0.043,0.066 -0.066,0.141 -0.066,0.224 l 0,14.354 c 0,0.423 0.108,0.748 0.321,0.972 0.214,0.223 0.5,0.336 0.857,0.336 l 2.044,0 c 0.365,0 0.677,-0.032 0.94,-0.095 0.26,-0.06 0.487,-0.166 0.677,-0.31 0.19,-0.146 0.348,-0.336 0.475,-0.572 0.128,-0.238 0.238,-0.53 0.333,-0.879 l 3.328,-9.599 0.048,0 3.447,9.575 c 0.103,0.348 0.216,0.643 0.339,0.884 0.123,0.24 0.265,0.436 0.428,0.585 0.162,0.149 0.355,0.256 0.577,0.316 0.22,0.063 0.478,0.095 0.772,0.095 l 2.103,0 c 0.215,0 0.399,-0.03 0.553,-0.087 0.155,-0.058 0.282,-0.143 0.381,-0.256 0.1,-0.112 0.174,-0.249 0.226,-0.411 C -0.024,14.746 0,14.563 0,14.354 L 0,0 Z"
             style="fill:#1e73b7;fill-opacity:1;fill-rule:nonzero;stroke:none"
             id="path134"
             inkscape:connector-curvature="0" /></g><g
           id="g136"
           transform="translate(401.2362,28.988)"><path
             d="m 0,0 c -0.348,-0.93 -0.69,-1.698 -1.027,-2.304 -0.337,-0.605 -0.699,-1.085 -1.082,-1.437 -0.385,-0.353 -0.805,-0.599 -1.261,-0.736 -0.456,-0.136 -0.976,-0.205 -1.564,-0.205 -0.212,0 -0.423,0.015 -0.628,0.043 -0.207,0.031 -0.401,0.069 -0.583,0.118 -0.182,0.05 -0.34,0.109 -0.475,0.175 -0.136,0.067 -0.234,0.128 -0.298,0.187 -0.062,0.057 -0.113,0.122 -0.147,0.193 -0.038,0.071 -0.067,0.163 -0.09,0.28 -0.024,0.117 -0.042,0.263 -0.054,0.442 -0.012,0.179 -0.018,0.4 -0.018,0.666 0,0.482 0.034,0.823 0.101,1.028 0.067,0.202 0.174,0.304 0.316,0.304 0.07,0 0.15,-0.028 0.238,-0.086 0.087,-0.059 0.191,-0.121 0.314,-0.189 0.123,-0.065 0.266,-0.125 0.428,-0.18 0.163,-0.054 0.354,-0.079 0.576,-0.079 0.167,0 0.32,0.018 0.463,0.055 0.143,0.038 0.278,0.11 0.406,0.217 0.126,0.109 0.253,0.261 0.38,0.455 0.126,0.196 0.261,0.45 0.403,0.766 l -5.062,10.794 c -0.112,0.258 -0.178,0.467 -0.197,0.629 -0.02,0.162 0.017,0.288 0.113,0.38 0.095,0.09 0.256,0.15 0.48,0.18 0.227,0.029 0.53,0.044 0.91,0.044 0.374,0 0.67,-0.009 0.892,-0.026 0.223,-0.017 0.4,-0.052 0.534,-0.105 0.136,-0.054 0.238,-0.133 0.311,-0.237 0.069,-0.104 0.142,-0.239 0.212,-0.404 l 2.165,-4.88 c 0.238,-0.524 0.463,-1.044 0.677,-1.564 0.213,-0.518 0.42,-1.043 0.618,-1.575 l 0.036,0 c 0.158,0.556 0.326,1.098 0.505,1.625 0.178,0.529 0.374,1.081 0.589,1.662 l 1.77,4.955 c 0.039,0.117 0.091,0.21 0.154,0.28 0.065,0.071 0.16,0.127 0.286,0.168 0.127,0.043 0.301,0.07 0.522,0.081 0.223,0.012 0.513,0.02 0.869,0.02 0.364,0 0.653,-0.012 0.868,-0.039 C 3.863,11.678 4.019,11.629 4.113,11.56 4.208,11.488 4.252,11.391 4.243,11.267 4.236,11.142 4.195,10.979 4.126,10.78 L 0,0 Z"
             style="fill:#1e73b7;fill-opacity:1;fill-rule:nonzero;stroke:none"
             id="path138"
             inkscape:connector-curvature="0" /></g><g
           id="g140"
           transform="translate(425.4189,24.9909)"><path
             d="m 0,0 c 0,-0.083 -0.021,-0.158 -0.064,-0.224 -0.044,-0.066 -0.123,-0.121 -0.239,-0.162 -0.114,-0.041 -0.268,-0.075 -0.458,-0.099 -0.19,-0.026 -0.43,-0.038 -0.724,-0.038 -0.286,0 -0.524,0.012 -0.713,0.038 -0.191,0.024 -0.342,0.058 -0.452,0.099 -0.111,0.041 -0.191,0.096 -0.238,0.162 -0.048,0.066 -0.071,0.141 -0.071,0.224 l 0,13.109 -0.024,0 L -7.44,0.013 c -0.033,-0.109 -0.084,-0.199 -0.156,-0.268 -0.071,-0.071 -0.167,-0.126 -0.29,-0.168 -0.123,-0.042 -0.28,-0.069 -0.47,-0.081 -0.19,-0.013 -0.419,-0.019 -0.69,-0.019 -0.269,0 -0.499,0.011 -0.689,0.031 -0.19,0.021 -0.347,0.054 -0.47,0.099 -0.123,0.045 -0.219,0.103 -0.291,0.169 -0.071,0.066 -0.118,0.146 -0.143,0.237 l -4.302,13.096 -0.024,0 0,-13.109 c 0,-0.083 -0.022,-0.158 -0.066,-0.224 -0.043,-0.066 -0.124,-0.121 -0.243,-0.162 -0.119,-0.041 -0.271,-0.075 -0.457,-0.099 -0.186,-0.026 -0.427,-0.038 -0.72,-0.038 -0.286,0 -0.524,0.012 -0.714,0.038 -0.19,0.024 -0.343,0.058 -0.457,0.099 -0.114,0.041 -0.194,0.096 -0.237,0.162 -0.044,0.066 -0.067,0.141 -0.067,0.224 l 0,14.354 c 0,0.423 0.109,0.748 0.322,0.972 0.214,0.223 0.5,0.336 0.856,0.336 l 2.045,0 c 0.364,0 0.677,-0.032 0.939,-0.095 0.26,-0.06 0.487,-0.166 0.677,-0.31 0.191,-0.146 0.349,-0.336 0.476,-0.572 0.127,-0.238 0.237,-0.53 0.333,-0.879 l 3.328,-9.599 0.048,0 3.446,9.575 c 0.103,0.348 0.216,0.643 0.339,0.884 0.123,0.24 0.265,0.436 0.428,0.585 0.162,0.149 0.355,0.256 0.578,0.316 0.22,0.063 0.477,0.095 0.771,0.095 l 2.104,0 c 0.215,0 0.398,-0.03 0.553,-0.087 0.154,-0.058 0.282,-0.143 0.38,-0.256 0.1,-0.112 0.174,-0.249 0.226,-0.411 C -0.025,14.746 0,14.563 0,14.354 L 0,0 Z"
             style="fill:#1e73b7;fill-opacity:1;fill-rule:nonzero;stroke:none"
             id="path142"
             inkscape:connector-curvature="0" /></g><g
           id="g144"
           transform="translate(439.5692,32.6101)"><path
             d="m 0,0 c 0,0.848 -0.062,1.616 -0.19,2.309 -0.126,0.694 -0.342,1.287 -0.648,1.78 -0.305,0.494 -0.71,0.876 -1.218,1.146 -0.507,0.269 -1.14,0.405 -1.901,0.405 -0.77,0 -1.411,-0.152 -1.926,-0.454 C -6.397,4.883 -6.814,4.478 -7.132,3.972 -7.448,3.465 -7.672,2.874 -7.803,2.196 -7.934,1.521 -7.999,0.805 -7.999,0.05 c 0,-0.879 0.062,-1.67 0.19,-2.372 0.127,-0.701 0.341,-1.3 0.642,-1.799 0.301,-0.498 0.705,-0.878 1.213,-1.14 0.507,-0.26 1.144,-0.391 1.913,-0.391 0.769,0 1.41,0.15 1.927,0.449 0.514,0.298 0.929,0.705 1.247,1.22 0.317,0.513 0.541,1.113 0.672,1.798 C -0.064,-1.501 0,-0.772 0,0 m 3.281,0.175 c 0,-1.337 -0.158,-2.531 -0.475,-3.587 -0.317,-1.054 -0.788,-1.947 -1.414,-2.682 -0.627,-0.735 -1.402,-1.295 -2.325,-1.68 -0.922,-0.387 -1.99,-0.58 -3.204,-0.58 -1.195,0 -2.24,0.165 -3.131,0.492 -0.892,0.328 -1.634,0.829 -2.229,1.5 -0.594,0.673 -1.04,1.527 -1.337,2.565 -0.298,1.038 -0.445,2.265 -0.445,3.685 0,1.303 0.157,2.475 0.474,3.517 0.319,1.041 0.789,1.927 1.416,2.658 0.625,0.73 1.4,1.29 2.323,1.681 0.922,0.39 1.996,0.584 3.214,0.584 1.167,0 2.195,-0.16 3.085,-0.484 C 0.126,7.52 0.87,7.021 1.469,6.349 2.067,5.678 2.519,4.829 2.823,3.804 3.128,2.778 3.281,1.568 3.281,0.175"
             style="fill:#1e73b7;fill-opacity:1;fill-rule:nonzero;stroke:none"
             id="path146"
             inkscape:connector-curvature="0" /></g><g
           id="g148"
           transform="translate(463.6464,24.9909)"><path
             d="m 0,0 c 0,-0.083 -0.021,-0.158 -0.064,-0.224 -0.043,-0.066 -0.123,-0.121 -0.238,-0.162 -0.115,-0.041 -0.268,-0.075 -0.459,-0.099 -0.19,-0.026 -0.43,-0.038 -0.724,-0.038 -0.286,0 -0.523,0.012 -0.713,0.038 -0.191,0.024 -0.342,0.058 -0.452,0.099 -0.111,0.041 -0.191,0.096 -0.238,0.162 -0.048,0.066 -0.071,0.141 -0.071,0.224 l 0,13.109 -0.024,0 -4.456,-13.096 c -0.033,-0.109 -0.084,-0.199 -0.156,-0.268 -0.071,-0.071 -0.168,-0.126 -0.291,-0.168 -0.123,-0.042 -0.28,-0.069 -0.469,-0.081 -0.191,-0.013 -0.42,-0.019 -0.69,-0.019 -0.27,0 -0.5,0.011 -0.689,0.031 -0.191,0.021 -0.347,0.054 -0.47,0.099 -0.123,0.045 -0.22,0.103 -0.291,0.169 -0.071,0.066 -0.119,0.146 -0.143,0.237 l -4.303,13.096 -0.024,0 0,-13.109 c 0,-0.083 -0.022,-0.158 -0.065,-0.224 -0.044,-0.066 -0.125,-0.121 -0.243,-0.162 -0.12,-0.041 -0.272,-0.075 -0.458,-0.099 -0.186,-0.026 -0.426,-0.038 -0.72,-0.038 -0.285,0 -0.524,0.012 -0.714,0.038 -0.189,0.024 -0.342,0.058 -0.457,0.099 -0.114,0.041 -0.194,0.096 -0.237,0.162 -0.044,0.066 -0.067,0.141 -0.067,0.224 l 0,14.354 c 0,0.423 0.109,0.748 0.322,0.972 0.214,0.223 0.5,0.336 0.856,0.336 l 2.045,0 c 0.365,0 0.677,-0.032 0.939,-0.095 0.26,-0.06 0.487,-0.166 0.677,-0.31 0.191,-0.146 0.349,-0.336 0.476,-0.572 0.127,-0.238 0.238,-0.53 0.333,-0.879 l 3.328,-9.599 0.048,0 3.447,9.575 c 0.103,0.348 0.215,0.643 0.338,0.884 0.123,0.24 0.265,0.436 0.428,0.585 0.163,0.149 0.355,0.256 0.578,0.316 0.22,0.063 0.478,0.095 0.771,0.095 l 2.104,0 c 0.215,0 0.398,-0.03 0.553,-0.087 0.155,-0.058 0.282,-0.143 0.381,-0.256 0.099,-0.112 0.173,-0.249 0.225,-0.411 C -0.025,14.746 0,14.563 0,14.354 L 0,0 Z"
             style="fill:#1e73b7;fill-opacity:1;fill-rule:nonzero;stroke:none"
             id="path150"
             inkscape:connector-curvature="0" /></g></g></g><g
       id="g152"><g
         id="g154"><g
           id="g160"><g
             id="g162"><path
               d="M 45.374,116.714 C 34.116,116.431 17.16,115.121 0.977,108.948 l 0,0 c -0.681,-0.26 -0.946,-0.925 -0.946,-1.652 l 0,0 c 0,-19.619 3.449,-53.035 5.541,-64.079 l 0,0 C 5.585,43.15 5.599,43.09 5.617,43.025 l 0,0 C 13.602,14.538 41.627,1.937 46.01,0.123 l 0,0 c 0.382,-0.157 0.775,-0.157 1.158,0 l 0,0 c 4.383,1.814 32.406,14.415 40.393,42.902 l 0,0 c 0.017,0.065 0.032,0.125 0.044,0.192 l 0,0 c 2.093,11.044 5.543,45.963 5.543,64.079 l 0,0 c 0,0.727 -0.267,1.392 -0.947,1.652 l 0,0 c -16.184,6.173 -33.045,7.436 -44.269,7.767 l 0,0 c -0.295,0.01 -0.726,0.013 -1.168,0.013 l 0,0 c -0.516,0 -1.046,-0.004 -1.39,-0.014"
               style="fill:url(#linearGradient164);stroke:none"
               id="path172"
               inkscape:connector-curvature="0" /></g></g></g></g><g
       id="g174"><g
         id="g176"
         clip-path="url(#clipPath178)"><g
           id="g182"
           transform="translate(47.2904,5.6003)"><path
             d="m 0,0 c 4.479,1.916 29.117,13.5 36.208,39.234 0.015,0.059 0.028,0.114 0.039,0.172 1.896,10.102 5.013,41.426 5.159,58.591 0.008,0.739 -0.444,1.409 -1.135,1.672 -14.123,5.382 -31.155,6.649 -40.647,6.649 l -0.651,-0.017 c -5.329,0 -26.313,-1.251 -40.645,-6.635 -0.693,-0.26 -1.143,-0.933 -1.138,-1.673 0.153,-16.547 3.267,-48.491 5.16,-58.587 0.011,-0.058 0.024,-0.114 0.04,-0.172 C -30.516,13.5 -5.882,1.916 -1.403,0 -0.953,-0.191 -0.451,-0.191 0,0"
             style="fill:#1e73b7;fill-opacity:1;fill-rule:nonzero;stroke:none"
             id="path184"
             inkscape:connector-curvature="0" /></g></g></g><g
       id="g186"><g
         id="g188"><g
           id="g194"><g
             id="g196"><path
               d="m 46.275,111.027 c -5.228,0 -25.811,-1.228 -39.87,-6.508 l 0,0 c -0.679,-0.256 -1.068,-0.733 -0.99,-1.454 l 0,0 C 5.893,98.614 18.602,77.64 36.222,63.138 l 0,0 C 55.359,47.388 80.042,44.546 81.595,44.502 l 0,0 c 0.544,-0.016 1.264,0.467 1.357,0.961 l 0,0 c 1.819,9.718 4.803,40.581 4.946,57.418 l 0,0 c 0.006,0.724 -0.437,1.382 -1.113,1.64 l 0,0 c -13.853,5.28 -30.562,6.523 -39.871,6.523 l 0,0 -0.639,-0.017 z"
               style="fill:url(#linearGradient198);stroke:none"
               id="path204"
               inkscape:connector-curvature="0" /></g></g></g></g><g
       id="g206"><g
         id="g208"
         clip-path="url(#clipPath210)"><g
           id="g214"
           transform="translate(62.3681,96.803)"><path
             d="m 0,0 c 1.81,0.316 3.587,0.276 5.331,-0.121 1.745,-0.397 3.333,-1.102 4.773,-2.11 1.438,-1.01 2.638,-2.263 3.606,-3.762 0.962,-1.497 1.607,-3.152 1.925,-4.964 0.314,-1.8 0.277,-3.566 -0.112,-5.294 -0.385,-1.729 -1.09,-3.329 -2.113,-4.801 -1.022,-1.47 -2.274,-2.686 -3.752,-3.649 -1.482,-0.963 -3.148,-1.606 -4.991,-1.929 -2.402,-0.421 -4.729,-0.212 -6.988,0.621 -2.256,0.836 -4.164,2.166 -5.719,3.991 -1.555,1.827 -2.548,3.957 -2.976,6.393 -0.32,1.834 -0.277,3.609 0.122,5.321 0.404,1.716 1.121,3.298 2.151,4.753 1.033,1.455 2.298,2.664 3.796,3.629 C -3.451,-0.958 -1.799,-0.316 0,0 m 0.388,-2.207 c -2.005,-0.351 -3.768,-1.169 -5.302,-2.456 -1.534,-1.287 -2.654,-2.866 -3.365,-4.735 -0.707,-1.872 -0.884,-3.819 -0.53,-5.841 0.475,-2.708 1.79,-4.965 3.951,-6.782 0.397,-0.333 0.822,-0.635 1.268,-0.901 2.496,-1.483 5.12,-1.984 7.871,-1.501 2.022,0.353 3.795,1.175 5.314,2.468 1.518,1.29 2.628,2.879 3.32,4.764 0.696,1.887 0.865,3.835 0.513,5.847 -0.266,1.518 -0.802,2.898 -1.606,4.138 -0.806,1.242 -1.809,2.284 -3.016,3.129 -1.203,0.844 -2.521,1.434 -3.966,1.769 -1.438,0.336 -2.925,0.369 -4.452,0.101 m 7.334,-8.106 -0.504,-0.115 c -0.399,-0.092 -0.81,0.1 -1.003,0.465 -0.757,1.434 -2.04,2.165 -3.849,2.193 -0.88,0.015 -1.673,-0.205 -2.374,-0.66 -0.7,-0.455 -1.246,-1.11 -1.644,-1.964 -0.394,-0.854 -0.601,-1.865 -0.619,-3.037 -0.027,-1.718 0.364,-3.072 1.169,-4.059 0.81,-0.985 1.932,-1.489 3.367,-1.511 0.955,-0.016 1.852,0.262 2.69,0.835 0.634,0.434 1.114,1.027 1.436,1.78 0.182,0.424 0.643,0.653 1.081,0.513 l 0.666,-0.211 c 0.411,-0.13 0.623,-0.583 0.471,-0.987 -0.262,-0.694 -0.627,-1.311 -1.093,-1.852 -0.634,-0.732 -1.404,-1.283 -2.313,-1.657 -0.907,-0.374 -1.885,-0.554 -2.935,-0.537 -1.424,0.022 -2.667,0.353 -3.74,0.991 -1.071,0.637 -1.895,1.568 -2.466,2.79 -0.572,1.22 -0.844,2.65 -0.817,4.285 0.015,1.063 0.19,2.039 0.529,2.93 0.335,0.892 0.823,1.669 1.469,2.335 0.644,0.663 1.421,1.169 2.336,1.514 0.913,0.342 1.925,0.506 3.036,0.489 1.538,-0.024 2.837,-0.412 3.887,-1.163 0.797,-0.57 1.4,-1.313 1.806,-2.23 0.21,-0.472 -0.081,-1.024 -0.586,-1.137"
             style="fill:#ffffff;fill-opacity:1;fill-rule:nonzero;stroke:none"
             id="path216"
             inkscape:connector-curvature="0" /></g></g></g></g></svg>