<?xml version="1.0" encoding="utf-8"?>
<!-- Generator: Adobe Illustrator 22.1.0, SVG Export Plug-In . SVG Version: 6.00 Build 0)  -->
<svg version="1.1" id="Слой_1" xmlns="http://www.w3.org/2000/svg" xmlns:xlink="http://www.w3.org/1999/xlink" x="0px" y="0px"
	 viewBox="0 0 12 12" style="enable-background:new 0 0 12 12;" xml:space="preserve">
<style type="text/css">
	.st0{fill:#E49844;}
</style>
<path class="st0" d="M2.2,7.9l0.2-4.1c0,0,0-1,0.9-2c0.9-1,2-1.1,2-1.1s0.3,0,1.3,0c1.2,0.1,2,1,2,1.1c0.8,0.9,0.8,1.9,0.8,1.9
	l0.2,4.2H2.2z"/>
<path class="st0" d="M9.7,9.7H2.3c-0.5,0-0.9-0.4-0.9-0.9V8.7c0-0.5,0.4-0.9,0.9-0.9h7.3c0.5,0,0.9,0.4,0.9,0.9v0.1
	C10.6,9.3,10.2,9.7,9.7,9.7z"/>
<path class="st0" d="M4.5,10.4h2.9c0,0,0.1,1.6-1.4,1.6C4.5,12,4.5,10.4,4.5,10.4z"/>
<ellipse class="st0" cx="6" cy="1.2" rx="0.8" ry="1.2"/>
</svg>
