<?xml version="1.0" encoding="utf-8"?>
<!-- Generator: Adobe Illustrator 20.1.0, SVG Export Plug-In . SVG Version: 6.00 Build 0)  -->
<svg version="1.1" id="Слой_1" xmlns="http://www.w3.org/2000/svg" xmlns:xlink="http://www.w3.org/1999/xlink" x="0px" y="0px"
	 viewBox="0 0 72.8 72.6" style="enable-background:new 0 0 72.8 72.6;" xml:space="preserve">
<style type="text/css">
	.st0{fill-rule:evenodd;clip-rule:evenodd;fill:#FFFFFF;}
	.st1{fill:#FF0000;}
</style>
<path class="st0" d="M35.8,0H37c19.8,0,35.8,16,35.8,35.8v1c0,19.8-16,35.8-35.8,35.8h-1.2C16,72.6,0,56.6,0,36.8v-1
	C0,16,16,0,35.8,0z"/>
<path class="st1" d="M33.5,49.6l4.5-9.9h2v9.9h2.8V23h-5c-3.2,0-7,3.3-7,8.8c0,5.4,4.7,7.6,4.7,7.6L30,49.6H33.5z M35.2,36
	c-0.7-0.9-1.3-2.3-1.3-4.7c0-5.3,3-6,3.4-6c0,0,0.1,0,0.1,0h2.4v12.1H38C36.9,37.3,35.9,36.9,35.2,36z"/>
</svg>
