<?xml version="1.0" encoding="utf-8"?>
<!-- Generator: Adobe Illustrator 16.0.0, SVG Export Plug-In . SVG Version: 6.00 Build 0)  -->
<!DOCTYPE svg PUBLIC "-//W3C//DTD SVG 1.1//EN" "http://www.w3.org/Graphics/SVG/1.1/DTD/svg11.dtd">
<svg version="1.1" id="Layer_1" xmlns="http://www.w3.org/2000/svg" xmlns:xlink="http://www.w3.org/1999/xlink" x="0px" y="0px"
	 width="19.811px" height="17.835px" viewBox="0 0 19.811 17.835" enable-background="new 0 0 19.811 17.835" xml:space="preserve">
<g>
	<g>
		<path fill="#2F4553" d="M1.976,0.049C0.791,0.049,0,0.84,0,2.025v13.832c0,1.188,0.791,1.977,1.976,1.977
			c1.186,0,1.976-0.789,1.976-1.977V2.025C3.952,0.84,3.162,0.049,1.976,0.049z M12.252,8.941l7.114-6.125
			c0.593-0.594,0.593-1.383,0-1.977l-0.396-0.395c-0.593-0.594-1.383-0.594-1.977,0L8.893,7.559l0,0L8.3,7.953
			C8.102,8.152,7.905,8.547,7.905,8.941c0,0.396,0.197,0.791,0.395,0.988l0.593,0.396l0,0l8.102,6.916
			c0.594,0.592,1.582,0.592,2.174,0l0.198-0.396c0.593-0.592,0.396-1.383-0.198-1.975L12.252,8.941z"/>
	</g>
</g>
</svg>
