<svg width="20" height="18" viewBox="0 0 20 18" fill="none" xmlns="http://www.w3.org/2000/svg">
<path d="M19.8147 12.461C19.8226 12.4513 19.8295 12.4411 19.8369 12.4311C19.8455 12.4198 19.8543 12.4086 19.8622 12.3967C19.8701 12.3849 19.8769 12.3727 19.8841 12.3606C19.8906 12.3498 19.8974 12.3393 19.9033 12.3281C19.9099 12.3159 19.9155 12.3032 19.9214 12.2907C19.9269 12.279 19.9327 12.2676 19.9377 12.2556C19.9427 12.2435 19.9468 12.231 19.9512 12.2187C19.9558 12.2059 19.9607 12.1932 19.9647 12.1801C19.9684 12.1678 19.9711 12.1553 19.9743 12.1429C19.9777 12.1295 19.9814 12.1162 19.9841 12.1025C19.987 12.0883 19.9886 12.0739 19.9907 12.0595C19.9924 12.0475 19.9947 12.0356 19.9959 12.0233C19.9985 11.9969 19.9999 11.9703 19.9999 11.9438L20 11.9427L19.9999 11.9413C19.9999 11.9148 19.9986 11.8884 19.996 11.862C19.9948 11.8498 19.9925 11.838 19.9907 11.8259C19.9887 11.8115 19.987 11.7972 19.9842 11.783C19.9815 11.7692 19.9777 11.7558 19.9743 11.7423C19.9712 11.7299 19.9684 11.7176 19.9648 11.7054C19.9608 11.6922 19.9559 11.6794 19.9512 11.6665C19.9468 11.6542 19.9427 11.6419 19.9378 11.6298C19.9328 11.6178 19.9269 11.6063 19.9214 11.5946C19.9155 11.5821 19.91 11.5696 19.9035 11.5574C19.8975 11.5461 19.8906 11.5355 19.8841 11.5247C19.877 11.5126 19.8702 11.5005 19.8623 11.4888C19.8543 11.4769 19.8454 11.4657 19.8369 11.4542C19.8295 11.4443 19.8226 11.4341 19.8147 11.4245C19.7984 11.4047 19.7811 11.3856 19.7631 11.3674L19.7606 11.3647L17.7171 9.321C17.3979 9.00181 16.8803 9.00176 16.561 9.32094C16.2418 9.64018 16.2418 10.1577 16.561 10.477L17.2092 11.1252L14.7139 11.1253V6.84164C14.7141 6.8344 14.715 6.82731 14.715 6.82006C14.715 6.62355 14.6449 6.44388 14.5294 6.3029L14.5259 6.29859C14.5108 6.2805 14.495 6.26317 14.4784 6.24639C14.4761 6.24399 14.4737 6.24153 14.4713 6.23914C14.4641 6.232 14.4574 6.22431 14.4498 6.21745L8.48008 0.247621L8.47926 0.246858C8.46253 0.230183 8.44509 0.214542 8.42722 0.199556C8.42155 0.194815 8.41566 0.190346 8.40989 0.185768C8.39681 0.175414 8.38356 0.165387 8.36994 0.155904C8.36313 0.151109 8.35626 0.146422 8.34929 0.141844C8.33495 0.132471 8.3204 0.123697 8.30558 0.115305C8.29948 0.111872 8.29359 0.108111 8.28738 0.104787C8.2676 0.0942149 8.24743 0.0845146 8.22694 0.0756862C8.21855 0.072035 8.20999 0.0689288 8.20149 0.06555C8.18787 0.0601549 8.17419 0.0550867 8.16029 0.0504546C8.15076 0.0472938 8.14122 0.044242 8.13158 0.0414082C8.11583 0.0368305 8.09991 0.0327978 8.08389 0.0291466C8.07675 0.0275662 8.06978 0.0255499 8.06253 0.0240785C8.03964 0.0195008 8.01653 0.016122 7.99332 0.0135607C7.98623 0.0127433 7.97904 0.0123073 7.9719 0.0116534C7.95266 0.009964 7.93343 0.00903752 7.91414 0.00871055C7.90999 0.00860155 7.90607 0.00805664 7.90193 0.00805664H0.817441C0.365996 0.00805664 0 0.374052 0 0.825498V17.1743C0 17.6258 0.365996 17.9918 0.817441 17.9918H13.8965C14.3479 17.9918 14.7139 17.6258 14.7139 17.1743V12.7602L17.2091 12.7602L16.561 13.4084C16.2417 13.7276 16.2417 14.2452 16.561 14.5644C16.7206 14.724 16.9298 14.8038 17.139 14.8038C17.3481 14.8038 17.5574 14.7241 17.7169 14.5644L19.7605 12.5208L19.7616 12.5196C19.7803 12.5008 19.798 12.4813 19.8147 12.461ZM8.71937 2.79896L11.923 6.00262H8.71937V2.79896ZM13.0791 16.3569H1.63488V1.64294H7.08449V6.82006C7.08449 7.27151 7.45048 7.63751 7.90193 7.63751H13.0791V11.1253C13.0791 11.1253 9.9882 11.1253 9.53676 11.1253C9.08531 11.1253 8.71931 11.4912 8.71931 11.9427C8.71931 12.3941 9.08531 12.7601 9.53676 12.7601L13.0791 12.7602V16.3569Z" fill="#1E73B7"/>
</svg>
