<?xml version="1.0" encoding="utf-8"?>
<!-- Generator: Adobe Illustrator 16.0.0, SVG Export Plug-In . SVG Version: 6.00 Build 0)  -->
<!DOCTYPE svg PUBLIC "-//W3C//DTD SVG 1.1//EN" "http://www.w3.org/Graphics/SVG/1.1/DTD/svg11.dtd">
<svg version="1.1" id="Layer_1" xmlns="http://www.w3.org/2000/svg" xmlns:xlink="http://www.w3.org/1999/xlink" x="0px" y="0px"
	 width="14px" height="14px" viewBox="4.759 4.759 14 14" enable-background="new 4.759 4.759 14 14" xml:space="preserve">
<g>
	<g>
		<path fill="#2F4553" d="M17.817,8.288H16.17V4.759H7.346v3.529H5.7c-0.588,0-0.941,0.47-0.941,0.94v6
			c0,0.589,0.47,0.941,0.941,0.941h1.647v2.589h8.823v-2.589h1.647c0.588,0,0.94-0.47,0.94-0.941v-6
			C18.758,8.64,18.406,8.288,17.817,8.288z M8.17,5.582h7.058v2.587H8.17V5.582z M15.229,17.935H8.17v-4.824h7.058L15.229,17.935
			L15.229,17.935z M17.935,15.228C17.935,15.228,17.935,15.346,17.935,15.228l-1.765,0.118v-3.059H7.346v3.059H5.7
			c0,0-0.118,0-0.118-0.118v-6c0,0,0-0.117,0.118-0.117h12.117c0,0,0.118,0,0.118,0.117V15.228z M16.17,10.052h-0.472
			c-0.235,0-0.47,0.236-0.47,0.47c0,0.236,0.235,0.471,0.47,0.471h0.472c0.235,0,0.471-0.235,0.471-0.471
			C16.641,10.17,16.405,10.052,16.17,10.052z"/>
	</g>
</g>
</svg>
