<svg id="Слой_1" data-name="Слой 1" xmlns="http://www.w3.org/2000/svg" xmlns:xlink="http://www.w3.org/1999/xlink" viewBox="0 0 211.16 56.48"><defs><style>.cls-1{fill:url(#Безымянный_градиент_5);}.cls-2{opacity:0.3;}.cls-3{fill:url(#Безымянный_градиент_2);}.cls-4{fill:#fff;}.cls-5{fill:#f08a00;}.cls-6{fill:#1e73b7;}.cls-7{fill:none;stroke:#1e73b7;stroke-miterlimit:10;stroke-width:2px;opacity:0.17;}</style><radialGradient id="Безымянный_градиент_5" cx="-201.28" cy="319.92" r="1" gradientTransform="matrix(0, -22.08, -17.51, 0, 5628.17, -4415.2)" gradientUnits="userSpaceOnUse"><stop offset="0.26" stop-color="#3c91d6"/><stop offset="1" stop-color="#1e73b7"/></radialGradient><linearGradient id="Безымянный_градиент_2" x1="27.41" y1="54.59" x2="29.4" y2="25.79" gradientTransform="matrix(1, 0, 0, -1, 0, 62)" gradientUnits="userSpaceOnUse"><stop offset="0" stop-color="#ebf5fc"/><stop offset="1" stop-color="#439ddc"/></linearGradient></defs><title>Горизонтальный лого с подписью ru</title><path class="cls-1" d="M27.94,51.61C29.8,50.81,40,46,43,35.33a.64.64,0,0,0,0-.07A200.17,200.17,0,0,0,45.15,11a.72.72,0,0,0-.47-.7A51.54,51.54,0,0,0,27.78,7.5h-.27c-2.21,0-10.94.52-16.9,2.75a.75.75,0,0,0-.47.7,207.11,207.11,0,0,0,2.15,24.3s0,.05,0,.07C15.25,46,25.49,50.81,27.36,51.61A.73.73,0,0,0,27.94,51.61Z" transform="translate(-4.72 -1.61)"/><g class="cls-2"><path class="cls-3" d="M27.49,7.48c-2.22,0-11,.52-16.95,2.72a.56.56,0,0,0-.42.61c.2,1.86,5.61,10.64,13.1,16.7,8.13,6.59,18.62,7.78,19.28,7.8a.64.64,0,0,0,.58-.4,199.17,199.17,0,0,0,2.1-24,.75.75,0,0,0-.47-.69A52.48,52.48,0,0,0,27.76,7.48Z" transform="translate(-4.72 -1.61)"/></g><path class="cls-4" d="M34.43,12.1a5.47,5.47,0,0,1,2.21.05,5.53,5.53,0,0,1,4.27,4.49,5.61,5.61,0,0,1,0,2.2,5.72,5.72,0,0,1-.88,2,5.47,5.47,0,0,1-1.56,1.51,5.64,5.64,0,0,1-5,.54,5.55,5.55,0,0,1-3.61-4.3,5.65,5.65,0,0,1,.05-2.21,5.64,5.64,0,0,1,2.47-3.47,5.3,5.3,0,0,1,2-.8Zm.16.91A4.68,4.68,0,0,0,31,16a4.42,4.42,0,0,0-.22,2.42,4.68,4.68,0,0,0,7.63,2.78,4.65,4.65,0,0,0,1.38-2A4.77,4.77,0,0,0,40,16.8a4.41,4.41,0,0,0-.67-1.71,4.56,4.56,0,0,0-1.25-1.3,4.49,4.49,0,0,0-1.64-.73A4.6,4.6,0,0,0,34.59,13Zm3,3.37-.21,0a.37.37,0,0,1-.41-.19,1.71,1.71,0,0,0-1.6-.91,1.74,1.74,0,0,0-1,.27,1.94,1.94,0,0,0-.69.82,3.17,3.17,0,0,0-.25,1.26A2.55,2.55,0,0,0,34,19.35a1.75,1.75,0,0,0,1.4.63,1.9,1.9,0,0,0,1.11-.35,1.57,1.57,0,0,0,.6-.74.37.37,0,0,1,.45-.21l.27.09a.32.32,0,0,1,.2.41,2.69,2.69,0,0,1-.45.77,2.59,2.59,0,0,1-1,.68,3.08,3.08,0,0,1-1.22.23,3,3,0,0,1-1.55-.42,2.49,2.49,0,0,1-1-1.15,4,4,0,0,1-.34-1.78,3.34,3.34,0,0,1,.22-1.21,2.71,2.71,0,0,1,.61-1,2.51,2.51,0,0,1,1-.63,3.4,3.4,0,0,1,1.26-.2,2.82,2.82,0,0,1,1.62.48,2.25,2.25,0,0,1,.75.92.36.36,0,0,1-.25.48" transform="translate(-4.72 -1.61)"/><path class="cls-5" d="M58.67,31.27a.51.51,0,0,1-.32-.12.45.45,0,0,1-.12-.32l0-.19L63.33,17.1a.68.68,0,0,1,.73-.53h2.29a.73.73,0,0,1,.74.53l5.06,13.54a.84.84,0,0,1,0,.19.42.42,0,0,1-.13.32.4.4,0,0,1-.29.12H69.92a.66.66,0,0,1-.42-.12.7.7,0,0,1-.19-.28l-1-2.56H62.09l-1,2.56a.6.6,0,0,1-.61.4Zm8.92-5.37L65.2,19.41,62.83,25.9Zm7,5.37a.5.5,0,0,1-.35-.14.49.49,0,0,1-.15-.36V17.1a.53.53,0,0,1,.13-.38.48.48,0,0,1,.37-.15h1.92a.43.43,0,0,1,.35.15.5.5,0,0,1,.15.38v5.42h6.19V17.1a.58.58,0,0,1,.13-.38.5.5,0,0,1,.38-.15h1.89a.52.52,0,0,1,.38.15.54.54,0,0,1,.14.38V30.77a.56.56,0,0,1-.14.38.6.6,0,0,1-.38.12H83.75a.52.52,0,0,1-.36-.14.49.49,0,0,1-.15-.36V25.14H77.05v5.63a.49.49,0,0,1-.15.36.45.45,0,0,1-.35.14Zm18.54,0a.52.52,0,0,1-.36-.14.49.49,0,0,1-.15-.36V19.16H88.78a.51.51,0,0,1-.51-.51V17.1a.58.58,0,0,1,.13-.38.5.5,0,0,1,.38-.15H99.49a.52.52,0,0,1,.38.15.54.54,0,0,1,.14.38v1.55a.5.5,0,0,1-.52.51H95.62V30.77a.48.48,0,0,1-.14.36.56.56,0,0,1-.38.14Zm9.48,0a.54.54,0,0,1-.38-.14.6.6,0,0,1-.13-.38V17.1a.5.5,0,0,1,.15-.38.52.52,0,0,1,.38-.15h1.89a.46.46,0,0,1,.36.15.54.54,0,0,1,.14.38v9.64L112,16.91a.71.71,0,0,1,.61-.34h1.74a.43.43,0,0,1,.36.15.5.5,0,0,1,.15.38V30.77a.49.49,0,0,1-.15.36.46.46,0,0,1-.36.14h-1.89a.55.55,0,0,1-.37-.12.52.52,0,0,1-.15-.38V21.32L105,30.94a1.18,1.18,0,0,1-.25.25.69.69,0,0,1-.36.08Z" transform="translate(-4.72 -1.61)"/><path class="cls-6" d="M118.6,31.27a.48.48,0,0,1-.35-.14.49.49,0,0,1-.15-.36V17.1a.53.53,0,0,1,.13-.38.48.48,0,0,1,.37-.15h11a.52.52,0,0,1,.38.15.54.54,0,0,1,.14.38V30.77a.56.56,0,0,1-.14.38.6.6,0,0,1-.38.12h-1.89a.52.52,0,0,1-.36-.14.49.49,0,0,1-.15-.36V19.2H121V30.77a.49.49,0,0,1-.15.36.46.46,0,0,1-.36.14Zm24.52,0a.48.48,0,0,1-.5-.5V19.2h-4.56v2.64a24.67,24.67,0,0,1-.48,5.48,5.21,5.21,0,0,1-1.6,2.94,5.06,5.06,0,0,1-3.15,1,.5.5,0,0,1-.38-.12.56.56,0,0,1-.14-.38V29.17a.45.45,0,0,1,.12-.33.67.67,0,0,1,.36-.17c.83-.14,1.43-.79,1.83-2a17.29,17.29,0,0,0,.61-5.25V17.08a.43.43,0,0,1,.14-.36.49.49,0,0,1,.36-.15H145a.51.51,0,0,1,.53.53V30.77a.52.52,0,0,1-.15.38.58.58,0,0,1-.38.12Zm4.8,0a.51.51,0,0,1-.32-.12.45.45,0,0,1-.12-.32l0-.19,5.06-13.54a.68.68,0,0,1,.73-.53h2.29a.73.73,0,0,1,.74.53l5.06,13.54a.84.84,0,0,1,0,.19.42.42,0,0,1-.13.32.4.4,0,0,1-.29.12h-1.83a.66.66,0,0,1-.42-.12.7.7,0,0,1-.19-.28l-1-2.56h-6.24l-1,2.56a.6.6,0,0,1-.61.4Zm8.92-5.37-2.39-6.49-2.37,6.49Zm7,5.37a.52.52,0,0,1-.36-.14.49.49,0,0,1-.15-.36V17.1a.53.53,0,0,1,.13-.38.5.5,0,0,1,.38-.15h8.56a.51.51,0,0,1,.53.53v1.47a.52.52,0,0,1-.15.38.58.58,0,0,1-.38.12H166.3v11.7a.49.49,0,0,1-.15.36.45.45,0,0,1-.35.14Zm11.4,0a.54.54,0,0,1-.38-.14.6.6,0,0,1-.13-.38V17.1a.51.51,0,0,1,.53-.53h1.89a.46.46,0,0,1,.36.15.54.54,0,0,1,.14.38v9.64l6.91-9.83a.71.71,0,0,1,.61-.34H187a.43.43,0,0,1,.36.15.5.5,0,0,1,.15.38V30.77a.49.49,0,0,1-.15.36.46.46,0,0,1-.36.14h-1.89a.55.55,0,0,1-.37-.12.52.52,0,0,1-.15-.38V21.32l-6.89,9.62a1.18,1.18,0,0,1-.25.25.71.71,0,0,1-.36.08Zm14.55,0a.49.49,0,0,1-.32-.12.46.46,0,0,1-.13-.32l.05-.19L194.5,17.1a.68.68,0,0,1,.73-.53h2.29a.73.73,0,0,1,.74.53l5.06,13.54a.84.84,0,0,1,0,.19.42.42,0,0,1-.13.32.4.4,0,0,1-.29.12h-1.83a.66.66,0,0,1-.42-.12.61.61,0,0,1-.19-.28l-1-2.56h-6.24l-1,2.56a.6.6,0,0,1-.61.4Zm8.92-5.37-2.39-6.49L194,25.9ZM209,31.27a.52.52,0,0,1-.36-.14.49.49,0,0,1-.15-.36V19.16h-3.88a.51.51,0,0,1-.51-.51V17.1a.58.58,0,0,1,.13-.38.5.5,0,0,1,.38-.15h10.71a.52.52,0,0,1,.38.15.54.54,0,0,1,.14.38v1.55a.5.5,0,0,1-.52.51h-3.87V30.77a.48.48,0,0,1-.14.36.56.56,0,0,1-.38.14Z" transform="translate(-4.72 -1.61)"/><path class="cls-6" d="M64.39,38.81a5,5,0,0,1-.21,1.51,3,3,0,0,1-.62,1.13,2.73,2.73,0,0,1-1,.7,3.86,3.86,0,0,1-1.41.24,4.41,4.41,0,0,1-1.38-.2,2.51,2.51,0,0,1-1-.63,2.88,2.88,0,0,1-.59-1.08A5.86,5.86,0,0,1,58,38.93a4.83,4.83,0,0,1,.21-1.47,3.12,3.12,0,0,1,.62-1.12,2.82,2.82,0,0,1,1-.7,3.67,3.67,0,0,1,1.42-.25,4,4,0,0,1,1.35.21,2.32,2.32,0,0,1,1,.62,2.72,2.72,0,0,1,.6,1.07A5.28,5.28,0,0,1,64.39,38.81ZM63,38.89a5.68,5.68,0,0,0-.08-1,2.3,2.3,0,0,0-.29-.75,1.29,1.29,0,0,0-.53-.48,1.93,1.93,0,0,0-.84-.17,1.7,1.7,0,0,0-.85.19,1.68,1.68,0,0,0-.55.51,2.3,2.3,0,0,0-.29.75,4.29,4.29,0,0,0-.09.9,4.91,4.91,0,0,0,.09,1,2.07,2.07,0,0,0,.28.76,1.29,1.29,0,0,0,.53.48,2,2,0,0,0,.84.16,1.7,1.7,0,0,0,.85-.19,1.5,1.5,0,0,0,.55-.51,2.26,2.26,0,0,0,.29-.75A4.56,4.56,0,0,0,63,38.89Zm7.5,1.29a2.13,2.13,0,0,1-.16.84,1.78,1.78,0,0,1-.47.66,2.28,2.28,0,0,1-.8.44,4.34,4.34,0,0,1-1.26.15H66a.45.45,0,0,1-.31-.1.43.43,0,0,1-.11-.35V36a.39.39,0,0,1,.11-.33.44.44,0,0,1,.29-.11h3.83l.09,0a.2.2,0,0,1,.06.09.38.38,0,0,1,0,.17,3.26,3.26,0,0,1,0,.51.38.38,0,0,1,0,.16.24.24,0,0,1-.06.1l-.09,0H66.93v1.69h1.12a4,4,0,0,1,1.08.12,2,2,0,0,1,.72.37,1.73,1.73,0,0,1,.44.6A1.92,1.92,0,0,1,70.45,40.18Zm-1.39.09a1.07,1.07,0,0,0-.08-.41.81.81,0,0,0-.21-.3.82.82,0,0,0-.37-.2,1.86,1.86,0,0,0-.59-.07h-.88v2h.9a2.15,2.15,0,0,0,.55-.06,1.11,1.11,0,0,0,.36-.19.87.87,0,0,0,.23-.31A.91.91,0,0,0,69.06,40.27Zm7.71,1.81a.17.17,0,0,1,0,.1.23.23,0,0,1-.11.07l-.21,0h-.67l-.21,0a.3.3,0,0,1-.11-.07.17.17,0,0,1,0-.1V39.35H72.87v2.73a.17.17,0,0,1,0,.1.23.23,0,0,1-.11.07l-.21,0h-.67l-.21,0a.23.23,0,0,1-.11-.07.17.17,0,0,1,0-.1V35.7a.12.12,0,0,1,0-.09.23.23,0,0,1,.11-.07l.21,0,.34,0,.33,0a.87.87,0,0,1,.21,0,.23.23,0,0,1,.11.07.12.12,0,0,1,0,.09v2.48H75.4V35.7a.12.12,0,0,1,0-.09.3.3,0,0,1,.11-.07.87.87,0,0,1,.21,0l.34,0,.33,0,.21,0a.23.23,0,0,1,.11.07.12.12,0,0,1,0,.09Zm7-.32a1.23,1.23,0,0,1,.08.3.19.19,0,0,1,0,.17.39.39,0,0,1-.2.06H82.8l-.23,0a.23.23,0,0,1-.11-.07.37.37,0,0,1,0-.11L82,40.73H79.42L79,42.05a.52.52,0,0,1-.06.13.24.24,0,0,1-.11.08,1,1,0,0,1-.21,0h-.74a.31.31,0,0,1-.19-.08.22.22,0,0,1,0-.17,1.67,1.67,0,0,1,.07-.29l2.09-6a.46.46,0,0,1,.07-.14.2.2,0,0,1,.13-.08.89.89,0,0,1,.26,0h.92a1,1,0,0,1,.28,0,.22.22,0,0,1,.15.08.48.48,0,0,1,.07.16Zm-3.1-5h0l-1,2.88h1.92Zm8.68.76a2.64,2.64,0,0,1-.17,1,2,2,0,0,1-.52.75,2.41,2.41,0,0,1-.84.45,3.91,3.91,0,0,1-1.16.16h-.56v2.15a.13.13,0,0,1,0,.1.19.19,0,0,1-.11.07l-.21,0h-.66l-.21,0a.19.19,0,0,1-.11-.07.17.17,0,0,1,0-.1V36a.49.49,0,0,1,.12-.36.45.45,0,0,1,.34-.13h1.59l.46,0a4.16,4.16,0,0,1,.52.08,2.14,2.14,0,0,1,.61.22,2,2,0,0,1,.54.41,1.94,1.94,0,0,1,.33.58A2.17,2.17,0,0,1,89.36,37.56Zm-1.43.1a1.13,1.13,0,0,0-.13-.58.79.79,0,0,0-.31-.34,1.09,1.09,0,0,0-.38-.14,2.77,2.77,0,0,0-.42,0h-.58v2.3h.62a1.38,1.38,0,0,0,.54-.09.9.9,0,0,0,.37-.25,1,1,0,0,0,.21-.38A1.53,1.53,0,0,0,87.93,37.66Zm5.65,2.75a6.27,6.27,0,0,1-.45,1,2.4,2.4,0,0,1-.48.61,1.3,1.3,0,0,1-.55.3,2.4,2.4,0,0,1-.69.09l-.27,0-.26-.05-.21-.07a.49.49,0,0,1-.13-.08.27.27,0,0,1-.07-.08,1,1,0,0,1,0-.12l0-.18c0-.08,0-.17,0-.28a1.38,1.38,0,0,1,0-.43c0-.09.07-.13.14-.13a.16.16,0,0,1,.1,0l.14.07.19.08a.9.9,0,0,0,.25,0,.75.75,0,0,0,.21,0,.4.4,0,0,0,.17-.09,1.08,1.08,0,0,0,.17-.19,1.82,1.82,0,0,0,.18-.32L89.77,36a1.15,1.15,0,0,1-.09-.26.2.2,0,0,1,.06-.17.42.42,0,0,1,.2-.07l.41,0h.39a.66.66,0,0,1,.23,0,.24.24,0,0,1,.14.1.76.76,0,0,1,.09.16l1,2.05q.16.33.3.66t.27.66h0c.07-.23.14-.46.22-.68l.26-.7L94,35.71a.23.23,0,0,1,.07-.11.21.21,0,0,1,.12-.08.71.71,0,0,1,.23,0h.38l.38,0a.44.44,0,0,1,.21.06.14.14,0,0,1,.06.12.71.71,0,0,1-.06.2Zm10.52,1.68a.17.17,0,0,1,0,.1.33.33,0,0,1-.12.06.87.87,0,0,1-.22,0H103a1,1,0,0,1-.22,0,.23.23,0,0,1-.12-.08.35.35,0,0,1-.07-.12l-.48-1.53a2.86,2.86,0,0,0-.22-.54,1.3,1.3,0,0,0-.27-.36.72.72,0,0,0-.33-.18,1.35,1.35,0,0,0-.43-.06h-.26v2.7a.15.15,0,0,1,0,.1.23.23,0,0,1-.11.07.87.87,0,0,1-.21,0h-.65a.87.87,0,0,1-.21,0,.23.23,0,0,1-.11-.07.15.15,0,0,1,0-.1v-2.7H99a1.25,1.25,0,0,0-.45.07.9.9,0,0,0-.34.2A1.39,1.39,0,0,0,98,40a3,3,0,0,0-.2.52l-.48,1.53a.35.35,0,0,1-.07.12.23.23,0,0,1-.12.08,1,1,0,0,1-.22,0h-.71a1,1,0,0,1-.22,0l-.11-.06a.17.17,0,0,1,0-.1V42a.28.28,0,0,1,0-.09l0-.12a.82.82,0,0,1,.06-.16l.47-1.35a3.88,3.88,0,0,1,.26-.63,2.13,2.13,0,0,1,.27-.43,1.43,1.43,0,0,1,.32-.29,2.38,2.38,0,0,1,.39-.2h0a1.33,1.33,0,0,1-.34-.16,1.39,1.39,0,0,1-.29-.26,2.94,2.94,0,0,1-.25-.41,6.22,6.22,0,0,1-.24-.6l-.41-1.21c0-.11-.06-.2-.07-.26a.67.67,0,0,1,0-.17.12.12,0,0,1,0-.09.23.23,0,0,1,.11-.07.94.94,0,0,1,.2,0l.35,0,.35,0a.57.57,0,0,1,.22,0,.19.19,0,0,1,.11.08.67.67,0,0,1,.06.12l.42,1.43a4.45,4.45,0,0,0,.19.5,1.08,1.08,0,0,0,.24.33.92.92,0,0,0,.32.18,1.31,1.31,0,0,0,.42,0h.27V35.69a.13.13,0,0,1,0-.09.23.23,0,0,1,.11-.07,1,1,0,0,1,.21,0l.32,0,.33,0a1,1,0,0,1,.21,0,.23.23,0,0,1,.11.07.14.14,0,0,1,0,.09v2.54h.26a1.73,1.73,0,0,0,.42,0,1,1,0,0,0,.32-.2,1.08,1.08,0,0,0,.24-.33,3,3,0,0,0,.19-.49l.43-1.42a.33.33,0,0,1,0-.12.21.21,0,0,1,.12-.08.56.56,0,0,1,.21,0l.36,0,.33,0a1,1,0,0,1,.21,0,.19.19,0,0,1,.11.07.12.12,0,0,1,0,.09.67.67,0,0,1,0,.17,1.48,1.48,0,0,1-.07.26l-.4,1.19a5.46,5.46,0,0,1-.24.57,1.71,1.71,0,0,1-.25.4,1.06,1.06,0,0,1-.29.27,1.64,1.64,0,0,1-.35.18h0a2.15,2.15,0,0,1,.4.21,1.71,1.71,0,0,1,.32.29,3.39,3.39,0,0,1,.27.44c.08.17.17.38.26.63l.46,1.35a.82.82,0,0,1,.06.16,1,1,0,0,1,0,.12.29.29,0,0,1,0,.09A.13.13,0,0,1,104.1,42.09Zm5.05-.36a1,1,0,0,1,0,.26.35.35,0,0,1,0,.16.26.26,0,0,1-.07.1l-.08,0h-3.4a.43.43,0,0,1-.29-.1.42.42,0,0,1-.12-.33V36a.39.39,0,0,1,.12-.33.44.44,0,0,1,.29-.11h3.38a.11.11,0,0,1,.08,0l.06.09a.61.61,0,0,1,0,.17,3.26,3.26,0,0,1,0,.51.62.62,0,0,1,0,.16l-.06.09a.11.11,0,0,1-.08,0h-2.42v1.65h2a.14.14,0,0,1,.09,0,.22.22,0,0,1,.07.09.57.57,0,0,1,0,.16,1.57,1.57,0,0,1,0,.5.65.65,0,0,1,0,.16s0,.07-.07.08a.14.14,0,0,1-.09,0h-2V41.2H109a.11.11,0,0,1,.08,0s0,0,.07.09a.35.35,0,0,1,0,.16A.94.94,0,0,1,109.15,41.73Zm6.49.35a.17.17,0,0,1,0,.1.23.23,0,0,1-.11.07l-.21,0h-.67l-.21,0a.3.3,0,0,1-.11-.07.17.17,0,0,1,0-.1V39.35h-2.53v2.73a.17.17,0,0,1,0,.1.23.23,0,0,1-.11.07l-.21,0h-.67l-.21,0a.23.23,0,0,1-.11-.07.17.17,0,0,1,0-.1V35.7a.12.12,0,0,1,0-.09.23.23,0,0,1,.11-.07l.21,0,.34,0,.33,0a.87.87,0,0,1,.21,0,.23.23,0,0,1,.11.07.12.12,0,0,1,0,.09v2.48h2.53V35.7a.12.12,0,0,1,0-.09.3.3,0,0,1,.11-.07.87.87,0,0,1,.21,0l.34,0,.33,0a.87.87,0,0,1,.21,0,.23.23,0,0,1,.11.07.12.12,0,0,1,0,.09Zm7,0a.13.13,0,0,1,0,.1.27.27,0,0,1-.11.06.87.87,0,0,1-.21,0h-.66a.87.87,0,0,1-.21,0l-.11-.06a.17.17,0,0,1,0-.1V38.53c0-.13,0-.27,0-.4s0-.24,0-.35h0l-.1.18-.12.2-.14.22-.15.21L118.4,42.1a.28.28,0,0,1-.09.1.23.23,0,0,1-.11.07l-.17,0h-.59l-.2,0a.2.2,0,0,1-.1-.07.25.25,0,0,1,0-.1V35.69a.12.12,0,0,1,0-.09.23.23,0,0,1,.11-.07,1.17,1.17,0,0,1,.22,0l.33,0,.33,0a1,1,0,0,1,.21,0,.23.23,0,0,1,.11.07.12.12,0,0,1,0,.09v3.94c0,.12,0,.25,0,.36h0l.23-.37c.09-.15.18-.29.28-.43l2.35-3.51a.3.3,0,0,1,.08-.08.21.21,0,0,1,.11-.07l.18,0H122l.32,0a.94.94,0,0,1,.2,0,.2.2,0,0,1,.1.07.14.14,0,0,1,0,.09Zm5.49-.36a1.72,1.72,0,0,1,0,.26.53.53,0,0,1,0,.16.24.24,0,0,1-.06.1l-.09,0h-3.39a.44.44,0,0,1-.3-.1.45.45,0,0,1-.11-.33V36a.42.42,0,0,1,.11-.33.44.44,0,0,1,.3-.11h3.37a.11.11,0,0,1,.08,0,.22.22,0,0,1,.07.09.65.65,0,0,1,0,.17,1.72,1.72,0,0,1,0,.26,1.81,1.81,0,0,1,0,.25.65.65,0,0,1,0,.16.22.22,0,0,1-.07.09.11.11,0,0,1-.08,0h-2.41v1.65h2a.11.11,0,0,1,.08,0,.22.22,0,0,1,.07.09.53.53,0,0,1,0,.16,3.13,3.13,0,0,1,0,.5.62.62,0,0,1,0,.16s0,.07-.07.08a.11.11,0,0,1-.08,0h-2V41.2h2.43l.09,0a.13.13,0,0,1,.06.09.53.53,0,0,1,0,.16A1.69,1.69,0,0,1,128.11,41.73Zm7.69-1.42a2,2,0,0,1-.19.91,1.93,1.93,0,0,1-.56.65,2.56,2.56,0,0,1-.85.39,4.23,4.23,0,0,1-1.11.13,3.2,3.2,0,0,1-1.1-.16l-.33-.14a1.27,1.27,0,0,1-.17-.11.22.22,0,0,1-.08-.09.5.5,0,0,1,0-.13c0-.06,0-.14,0-.22s0-.2,0-.33a.85.85,0,0,1,0-.29.14.14,0,0,1,.12-.08.38.38,0,0,1,.18.07l.29.15.43.15a2.55,2.55,0,0,0,.59.06,2,2,0,0,0,.51-.06,1.11,1.11,0,0,0,.39-.2.86.86,0,0,0,.25-.29.87.87,0,0,0,.09-.4,1,1,0,0,0-.09-.42.7.7,0,0,0-.25-.32,1.2,1.2,0,0,0-.44-.2,2.28,2.28,0,0,0-.63-.07h-.71l-.13,0a.15.15,0,0,1-.08-.08.57.57,0,0,1,0-.16,2.1,2.1,0,0,1,0-.27,1.63,1.63,0,0,1,0-.24.53.53,0,0,1,0-.16.19.19,0,0,1,.07-.08.2.2,0,0,1,.11,0h.73a2.31,2.31,0,0,0,.56-.07,1.11,1.11,0,0,0,.41-.18.81.81,0,0,0,.25-.3.87.87,0,0,0,.09-.4.9.9,0,0,0-.06-.34.58.58,0,0,0-.19-.27.74.74,0,0,0-.32-.16,1.24,1.24,0,0,0-.46-.07,2.45,2.45,0,0,0-.56.07l-.44.15-.31.15a.64.64,0,0,1-.19.07l-.06,0a.16.16,0,0,1-.05-.08,1.3,1.3,0,0,1,0-.15c0-.06,0-.14,0-.24s0-.14,0-.2a.78.78,0,0,1,0-.16.34.34,0,0,1,0-.12.44.44,0,0,1,.08-.11,1.05,1.05,0,0,1,.22-.14,2.05,2.05,0,0,1,.42-.15,3.91,3.91,0,0,1,.56-.12,4.4,4.4,0,0,1,.65,0,3.38,3.38,0,0,1,.95.12,1.68,1.68,0,0,1,.67.33,1.25,1.25,0,0,1,.41.53,1.81,1.81,0,0,1,.14.72,1.89,1.89,0,0,1-.09.6,1.66,1.66,0,0,1-.26.47,1.43,1.43,0,0,1-.39.34,1.69,1.69,0,0,1-.5.2h0a1.41,1.41,0,0,1,.58.18,1.3,1.3,0,0,1,.45.35,1.44,1.44,0,0,1,.3.49A1.57,1.57,0,0,1,135.8,40.31Zm6.55,1.45a2,2,0,0,1,.08.3.19.19,0,0,1,0,.17.43.43,0,0,1-.2.06h-.82l-.23,0a.23.23,0,0,1-.11-.07.37.37,0,0,1-.05-.11l-.46-1.36H138l-.43,1.32-.06.13a.24.24,0,0,1-.11.08,1,1,0,0,1-.21,0h-.74a.31.31,0,0,1-.19-.08.22.22,0,0,1,0-.17,1.9,1.9,0,0,1,.08-.29l2.09-6a.46.46,0,0,1,.07-.14.2.2,0,0,1,.13-.08.83.83,0,0,1,.26,0h.92a1,1,0,0,1,.28,0,.18.18,0,0,1,.14.08.34.34,0,0,1,.08.16Zm-3.1-5h0l-1,2.88h1.92Zm9.56,5.29a.18.18,0,0,1,0,.1l-.11.06a.87.87,0,0,1-.22,0h-.66a.87.87,0,0,1-.21,0l-.1-.06a.17.17,0,0,1,0-.1v-4c0-.13,0-.24,0-.35h0l-.1.18-.13.2-.13.22-.15.21-2.35,3.51-.09.1a.41.41,0,0,1-.11.07l-.18,0h-.59a.88.88,0,0,1-.2,0,.22.22,0,0,1-.09-.07.15.15,0,0,1,0-.1V35.69a.1.1,0,0,1,0-.09.23.23,0,0,1,.11-.07,1.18,1.18,0,0,1,.21,0l.33,0,.34,0a1.18,1.18,0,0,1,.21,0,.23.23,0,0,1,.11.07.12.12,0,0,1,0,.09v3.58c0,.11,0,.23,0,.36s0,.25,0,.36h0c.06-.1.13-.23.22-.37s.19-.29.28-.43l2.36-3.51.07-.08a.26.26,0,0,1,.11-.07l.18,0h.27l.32,0a.75.75,0,0,1,.19,0c.05,0,.09,0,.1.07a.15.15,0,0,1,0,.09Zm9.35,0a.17.17,0,0,1,0,.1.2.2,0,0,1-.1.07l-.2,0h-.63l-.2,0a.23.23,0,0,1-.11-.07.17.17,0,0,1,0-.1v-5.5h0l-2,5.5a.19.19,0,0,1-.07.11.32.32,0,0,1-.13.07.56.56,0,0,1-.2,0h-.61l-.21,0a.35.35,0,0,1-.12-.07.21.21,0,0,1-.06-.1l-1.89-5.5h0v5.5a.17.17,0,0,1,0,.1s-.05,0-.1.07l-.2,0h-.63l-.21,0a.26.26,0,0,1-.1-.07.17.17,0,0,1,0-.1v-6a.58.58,0,0,1,.14-.41.54.54,0,0,1,.38-.14h.9a2.27,2.27,0,0,1,.41,0,.73.73,0,0,1,.51.37,2.81,2.81,0,0,1,.15.37l1.46,4h0l1.51-4a2.81,2.81,0,0,1,.15-.37,1.26,1.26,0,0,1,.19-.25.75.75,0,0,1,.25-.13,1.76,1.76,0,0,1,.34,0h.93a.61.61,0,0,1,.24,0,.39.39,0,0,1,.17.11.4.4,0,0,1,.1.17.8.8,0,0,1,0,.23Zm6.15-.83a1.41,1.41,0,0,1,0,.22.78.78,0,0,1,0,.16.36.36,0,0,1,0,.11l-.08.11a1.13,1.13,0,0,1-.23.15,3.11,3.11,0,0,1-.4.18,2.59,2.59,0,0,1-.55.14,3.34,3.34,0,0,1-.65.06,3.58,3.58,0,0,1-1.26-.21,2.5,2.5,0,0,1-.95-.64,2.93,2.93,0,0,1-.6-1.07,4.68,4.68,0,0,1-.21-1.48,4.82,4.82,0,0,1,.23-1.53,3.29,3.29,0,0,1,.64-1.12,2.61,2.61,0,0,1,1-.69,3.32,3.32,0,0,1,1.28-.24,3.19,3.19,0,0,1,.54.05,3.37,3.37,0,0,1,.48.12,2.1,2.1,0,0,1,.4.18,1,1,0,0,1,.25.17.47.47,0,0,1,.1.11.56.56,0,0,1,0,.12.9.9,0,0,1,0,.18,1.63,1.63,0,0,1,0,.24,2.1,2.1,0,0,1,0,.27.8.8,0,0,1,0,.18.21.21,0,0,1-.06.1.11.11,0,0,1-.08,0,.37.37,0,0,1-.2-.09l-.31-.21a2.88,2.88,0,0,0-.46-.2,1.91,1.91,0,0,0-.63-.09,1.58,1.58,0,0,0-.72.16,1.49,1.49,0,0,0-.53.47,2.29,2.29,0,0,0-.34.74,3.72,3.72,0,0,0-.11,1,3.94,3.94,0,0,0,.12,1,2,2,0,0,0,.35.72,1.37,1.37,0,0,0,.54.42,1.9,1.9,0,0,0,.73.14,2,2,0,0,0,.63-.09,2.91,2.91,0,0,0,.46-.19,2.48,2.48,0,0,0,.31-.19.45.45,0,0,1,.19-.08l.09,0a.12.12,0,0,1,.05.08,1.64,1.64,0,0,1,0,.18A2.45,2.45,0,0,1,164.31,41.25Zm5.49-5.17a2,2,0,0,1,0,.26.74.74,0,0,1,0,.17.22.22,0,0,1-.07.09.14.14,0,0,1-.09,0H167.9v5.45a.13.13,0,0,1,0,.1.19.19,0,0,1-.11.07l-.21,0h-.66l-.21,0a.35.35,0,0,1-.12-.07.17.17,0,0,1,0-.1V36.63h-1.69a.12.12,0,0,1-.09,0,.35.35,0,0,1-.06-.09.71.71,0,0,1,0-.17,3.52,3.52,0,0,1,0-.53.61.61,0,0,1,0-.17.29.29,0,0,1,.06-.1.12.12,0,0,1,.09,0h4.76a.14.14,0,0,1,.09,0,.2.2,0,0,1,.07.1.65.65,0,0,1,0,.17A1.87,1.87,0,0,1,169.8,36.08Zm5.69,4.17a1.93,1.93,0,0,1-.1.65,1.83,1.83,0,0,1-.27.52,1.9,1.9,0,0,1-.42.38,2.4,2.4,0,0,1-.53.27,4.15,4.15,0,0,1-.63.16,5.6,5.6,0,0,1-.74,0H171a.43.43,0,0,1-.29-.1.45.45,0,0,1-.11-.33V36a.42.42,0,0,1,.11-.33.44.44,0,0,1,.29-.11h1.7a4.39,4.39,0,0,1,1.05.11,2.12,2.12,0,0,1,.73.31,1.31,1.31,0,0,1,.45.54,1.64,1.64,0,0,1,.16.76,1.84,1.84,0,0,1-.06.47,1.41,1.41,0,0,1-.19.39,1.22,1.22,0,0,1-.29.31,1.71,1.71,0,0,1-.4.22,2.21,2.21,0,0,1,.53.18,1.53,1.53,0,0,1,.42.34,1.66,1.66,0,0,1,.29.48A1.81,1.81,0,0,1,175.49,40.25Zm-1.77-2.85a.87.87,0,0,0-.07-.37.61.61,0,0,0-.18-.26.82.82,0,0,0-.32-.17,1.78,1.78,0,0,0-.51-.06H172V38.3h.76a1.52,1.52,0,0,0,.48-.07.86.86,0,0,0,.29-.19.88.88,0,0,0,.18-.29A1,1,0,0,0,173.72,37.4Zm.35,2.89a1.16,1.16,0,0,0-.08-.42.79.79,0,0,0-.23-.31,1,1,0,0,0-.39-.19,2.09,2.09,0,0,0-.61-.07H172v1.92h1a1.65,1.65,0,0,0,.48-.06,1.2,1.2,0,0,0,.34-.17.73.73,0,0,0,.22-.3A.84.84,0,0,0,174.07,40.29Zm8.61-1.48a5,5,0,0,1-.21,1.51,3.17,3.17,0,0,1-.62,1.13,2.77,2.77,0,0,1-1,.7,3.77,3.77,0,0,1-1.4.24,4.37,4.37,0,0,1-1.38-.2,2.44,2.44,0,0,1-1-.63,2.74,2.74,0,0,1-.59-1.08,5.48,5.48,0,0,1-.19-1.55,4.83,4.83,0,0,1,.21-1.47,2.85,2.85,0,0,1,.62-1.12,2.66,2.66,0,0,1,1-.7,3.62,3.62,0,0,1,1.41-.25,4,4,0,0,1,1.35.21,2.29,2.29,0,0,1,1,.62,2.7,2.7,0,0,1,.59,1.07A4.94,4.94,0,0,1,182.68,38.81Zm-1.45.08a4.82,4.82,0,0,0-.08-1,1.93,1.93,0,0,0-.29-.75,1.29,1.29,0,0,0-.53-.48,1.87,1.87,0,0,0-.84-.17,1.66,1.66,0,0,0-.84.19,1.59,1.59,0,0,0-.55.51,2.11,2.11,0,0,0-.3.75,5.11,5.11,0,0,0-.08.9,5.83,5.83,0,0,0,.08,1,2.27,2.27,0,0,0,.28.76,1.32,1.32,0,0,0,.54.48,2,2,0,0,0,.84.16,1.63,1.63,0,0,0,.84-.19,1.5,1.5,0,0,0,.55-.51,2.27,2.27,0,0,0,.3-.75A5.43,5.43,0,0,0,181.23,38.89Zm7.5,1.36a1.93,1.93,0,0,1-.1.65,1.83,1.83,0,0,1-.27.52,1.9,1.9,0,0,1-.42.38,2.27,2.27,0,0,1-.54.27,3.74,3.74,0,0,1-.62.16,5.6,5.6,0,0,1-.74,0h-1.8a.43.43,0,0,1-.29-.1.41.41,0,0,1-.11-.33V36a.39.39,0,0,1,.11-.33.44.44,0,0,1,.29-.11h1.7a4.39,4.39,0,0,1,1.05.11,2.12,2.12,0,0,1,.73.31,1.31,1.31,0,0,1,.45.54,1.64,1.64,0,0,1,.16.76,1.84,1.84,0,0,1-.06.47,1.76,1.76,0,0,1-.19.39,1.42,1.42,0,0,1-.29.31,1.71,1.71,0,0,1-.4.22,2.21,2.21,0,0,1,.53.18,1.53,1.53,0,0,1,.42.34,1.66,1.66,0,0,1,.29.48A1.81,1.81,0,0,1,188.73,40.25ZM187,37.4a1.06,1.06,0,0,0-.07-.37.55.55,0,0,0-.19-.26.78.78,0,0,0-.31-.17,1.78,1.78,0,0,0-.51-.06h-.7V38.3H186a1.52,1.52,0,0,0,.48-.07.86.86,0,0,0,.29-.19.88.88,0,0,0,.18-.29A1,1,0,0,0,187,37.4Zm.35,2.89a1.16,1.16,0,0,0-.08-.42.9.9,0,0,0-.23-.31,1,1,0,0,0-.39-.19,2.09,2.09,0,0,0-.61-.07h-.82v1.92h1a1.65,1.65,0,0,0,.48-.06A1.2,1.2,0,0,0,187,41a1,1,0,0,0,.31-.7Zm7.94,1.47c0,.13.06.22.08.3a.2.2,0,0,1-.05.17.36.36,0,0,1-.2.06h-.82l-.23,0a.3.3,0,0,1-.11-.07,1.17,1.17,0,0,1,0-.11l-.45-1.36h-2.54l-.43,1.32a.31.31,0,0,1-.06.13.2.2,0,0,1-.11.08,1,1,0,0,1-.21,0h-.74a.31.31,0,0,1-.19-.08.22.22,0,0,1,0-.17,1.17,1.17,0,0,1,.08-.29l2.08-6a.91.91,0,0,1,.07-.14.22.22,0,0,1,.13-.08.89.89,0,0,1,.26,0h.92a.93.93,0,0,1,.28,0,.22.22,0,0,1,.15.08.48.48,0,0,1,.08.16Zm-3.11-5h0l-1,2.88h1.92Zm9.33,5.28a.17.17,0,0,1,0,.1.23.23,0,0,1-.11.07l-.21,0h-.67l-.21,0a.3.3,0,0,1-.11-.07.17.17,0,0,1,0-.1V39.35h-2.53v2.73a.17.17,0,0,1,0,.1.23.23,0,0,1-.11.07l-.21,0h-.67l-.21,0a.23.23,0,0,1-.11-.07.17.17,0,0,1,0-.1V35.7a.12.12,0,0,1,0-.09.23.23,0,0,1,.11-.07l.21,0,.34,0,.33,0a.87.87,0,0,1,.21,0,.23.23,0,0,1,.11.07.12.12,0,0,1,0,.09v2.48h2.53V35.7a.12.12,0,0,1,0-.09.3.3,0,0,1,.11-.07.87.87,0,0,1,.21,0l.34,0,.33,0a.87.87,0,0,1,.21,0,.23.23,0,0,1,.11.07.12.12,0,0,1,0,.09Zm7,0a.13.13,0,0,1,0,.1.27.27,0,0,1-.11.06.87.87,0,0,1-.21,0h-.66a.87.87,0,0,1-.21,0l-.11-.06a.17.17,0,0,1,0-.1V38.53c0-.13,0-.27,0-.4s0-.24,0-.35h0L207,38l-.12.2-.14.22-.15.21-2.35,3.51a.28.28,0,0,1-.09.1.23.23,0,0,1-.11.07l-.17,0h-.59a.77.77,0,0,1-.2,0,.2.2,0,0,1-.1-.07.25.25,0,0,1,0-.1V35.69a.12.12,0,0,1,0-.09.23.23,0,0,1,.11-.07,1.17,1.17,0,0,1,.22,0l.33,0,.33,0a1,1,0,0,1,.21,0,.23.23,0,0,1,.11.07.12.12,0,0,1,0,.09v3.94c0,.12,0,.25,0,.36h0l.23-.37c.09-.15.18-.29.28-.43l2.35-3.51.08-.08a.21.21,0,0,1,.11-.07l.18,0h.26l.32,0a.94.94,0,0,1,.2,0,.2.2,0,0,1,.1.07.14.14,0,0,1,0,.09Zm7,0a.13.13,0,0,1,0,.1.27.27,0,0,1-.11.06.87.87,0,0,1-.21,0h-.66a.87.87,0,0,1-.21,0l-.11-.06a.17.17,0,0,1,0-.1V38.53c0-.13,0-.27,0-.4s0-.24,0-.35h0L214,38l-.12.2-.14.22-.15.21-2.35,3.51a.28.28,0,0,1-.09.1.23.23,0,0,1-.11.07l-.17,0h-.59a.77.77,0,0,1-.2,0,.2.2,0,0,1-.1-.07.25.25,0,0,1,0-.1V35.69a.12.12,0,0,1,0-.09.23.23,0,0,1,.11-.07,1.17,1.17,0,0,1,.22,0l.33,0,.33,0a1,1,0,0,1,.21,0,.23.23,0,0,1,.11.07.12.12,0,0,1,0,.09v3.94c0,.12,0,.25,0,.36h0l.23-.37c.09-.15.18-.29.28-.43l2.35-3.51a.3.3,0,0,1,.08-.08.21.21,0,0,1,.11-.07l.18,0h.26l.32,0a.94.94,0,0,1,.2,0,.2.2,0,0,1,.1.07.14.14,0,0,1,0,.09Zm-.8-8.39a1.49,1.49,0,0,1-.1.55,1.23,1.23,0,0,1-.32.47,1.65,1.65,0,0,1-.59.32,2.82,2.82,0,0,1-.89.12,3.12,3.12,0,0,1-.87-.11,1.92,1.92,0,0,1-.59-.3,1.15,1.15,0,0,1-.33-.46,1.63,1.63,0,0,1-.1-.59.44.44,0,0,1,0-.13.27.27,0,0,1,.1-.08.49.49,0,0,1,.19,0l.29,0,.28,0a.38.38,0,0,1,.17,0,.16.16,0,0,1,.08.08.36.36,0,0,1,0,.11.6.6,0,0,0,0,.24.52.52,0,0,0,.14.19.84.84,0,0,0,.25.13.75.75,0,0,0,.31,0,1,1,0,0,0,.3,0,1,1,0,0,0,.23-.13.48.48,0,0,0,.15-.2.66.66,0,0,0,.05-.25.36.36,0,0,1,0-.11.19.19,0,0,1,.08-.07.38.38,0,0,1,.16,0l.26,0,.31,0a.54.54,0,0,1,.2,0,.21.21,0,0,1,.1.08A.25.25,0,0,1,214.63,33.7Z" transform="translate(-4.72 -1.61)"/><path class="cls-7" d="M28,57c2.34-1,15.16-6.91,18.86-20.08a.24.24,0,0,1,0-.08,244.3,244.3,0,0,0,2.68-30A.88.88,0,0,0,49,6C41.63,3.26,32.76,2.61,27.82,2.61h-.34c-2.78,0-13.7.64-21.17,3.4a.9.9,0,0,0-.59.85,250.22,250.22,0,0,0,2.69,30,.24.24,0,0,0,0,.08C12.12,50.11,25,56,27.28,57A.93.93,0,0,0,28,57Z" transform="translate(-4.72 -1.61)"/></svg>