<?xml version="1.0" encoding="utf-8"?>
<!-- Generator: Adobe Illustrator 16.0.0, SVG Export Plug-In . SVG Version: 6.00 Build 0)  -->
<!DOCTYPE svg PUBLIC "-//W3C//DTD SVG 1.1//EN" "http://www.w3.org/Graphics/SVG/1.1/DTD/svg11.dtd">
<svg version="1.1" id="Layer_1" xmlns="http://www.w3.org/2000/svg" xmlns:xlink="http://www.w3.org/1999/xlink" x="0px" y="0px"
	 width="23.713px" height="23.712px" viewBox="0 0 23.713 23.712" enable-background="new 0 0 23.713 23.712" xml:space="preserve">
<g>
	<g>
		<path fill="#2F4553" d="M13.438,16.994h-0.791v-6.52l0,0l0,0c0-0.396-0.395-0.791-0.79-0.791h-1.581
			c-0.396,0-0.791,0.396-0.791,0.791c0,0.395,0.395,0.79,0.791,0.79h0.791v5.929h-0.791c-0.396,0-0.791,0.395-0.791,0.789
			c0,0.396,0.395,0.791,0.791,0.791h2.964c0.395,0,0.79-0.395,0.79-0.791C14.03,17.193,13.833,16.994,13.438,16.994z M11.856,8.103
			c0.79,0,1.581-0.594,1.581-1.384s-0.593-1.384-1.581-1.384c-0.988,0-1.581,0.594-1.581,1.384
			C10.473,7.509,11.066,8.103,11.856,8.103z M11.856,0C5.335,0,0,5.336,0,11.856c0,6.522,5.335,11.856,11.856,11.856
			c6.521,0,11.856-5.334,11.856-11.856C23.713,5.336,18.378,0,11.856,0z M11.856,22.132c-5.73,0-10.473-4.742-10.473-10.276
			c0-5.533,4.743-10.275,10.473-10.275c5.731,0,10.474,4.545,10.474,10.275C22.33,17.587,17.588,22.132,11.856,22.132z"/>
	</g>
</g>
</svg>
