<?xml version="1.0" encoding="utf-8"?>
<!-- Generator: Adobe Illustrator 16.0.0, SVG Export Plug-In . SVG Version: 6.00 Build 0)  -->
<!DOCTYPE svg PUBLIC "-//W3C//DTD SVG 1.1//EN" "http://www.w3.org/Graphics/SVG/1.1/DTD/svg11.dtd">
<svg version="1.1" id="Layer_1" xmlns="http://www.w3.org/2000/svg" xmlns:xlink="http://www.w3.org/1999/xlink" x="0px" y="0px"
	 width="14px" height="14px" viewBox="4.956 4.856 14 14" enable-background="new 4.956 4.856 14 14" xml:space="preserve">
<g>
	<g>
		<path fill="#2F4553" d="M9.352,12.09c-0.116,0.117-0.116,0.234-0.116,0.35s0,0.234,0.116,0.351l2.662,2.567l2.66-2.567
			c0.116-0.116,0.116-0.467,0-0.583c-0.115-0.117-0.462-0.117-0.578,0l-1.619,1.633V5.323c0-0.233-0.231-0.467-0.463-0.467
			c-0.231,0-0.463,0.234-0.463,0.467v8.4l-1.62-1.633C9.815,11.974,9.584,11.974,9.352,12.09z M18.146,9.522h-3.934v0.934h3.354
			c0.348,0,0.578,0.234,0.578,0.583v6.417c0,0.35-0.231,0.583-0.578,0.583H6.46c-0.347,0-0.578-0.233-0.578-0.583V11.04
			c0-0.35,0.231-0.583,0.578-0.583h3.355V9.522H5.882c-0.463,0-0.926,0.467-0.926,0.934v7.467c0,0.466,0.347,0.933,0.926,0.933
			H18.03c0.463,0,0.926-0.35,0.926-0.933v-7.467C18.956,9.874,18.607,9.522,18.146,9.522z"/>
	</g>
</g>
</svg>
