<?xml version="1.0"?>
<svg width="15" height="15" xmlns="http://www.w3.org/2000/svg">

 <g>
  <title>background</title>
  <rect fill="none" id="canvas_background" height="402" width="582" y="-1" x="-1"/>
 </g>
 <g>
  <title>Layer 1</title>
  <path transform="rotate(-179.90081787109375 6.787430286407471,6.881585121154785) " id="svg_1" d="m6.964,7.636l-4.15,-5.138c-0.593,-0.593 -1.383,-0.593 -1.978,0l-0.393,0.397c-0.593,0.592 -0.593,1.383 0,1.777l5.138,6.126l0,0l0.396,0.592c0.195,0.197 0.593,0.396 0.986,0.396c0.396,0 0.791,-0.199 0.989,-0.396l0.395999,-0.592l0,0l4.938001,-6.126c0.592999,-0.593 0.592999,-1.58 0,-2.174l-0.396,-0.197c-0.595,-0.592 -1.383,-0.396 -1.979,0.197l-3.947,5.138z" fill="#2F4553"/>
 </g>
</svg>