<svg width="28" height="28" viewBox="0 0 28 28" fill="none" xmlns="http://www.w3.org/2000/svg">
<circle cx="14" cy="14" r="14" fill="#2787F5"/>
<path fill-rule="evenodd" clip-rule="evenodd" d="M9.2825 10.3871H7.7509C7.3133 10.3871 7.22577 10.5997 7.22577 10.8341C7.22577 11.2528 7.74502 13.3293 9.64348 16.0756C10.9091 17.9511 12.6923 18.9678 14.3149 18.9678C15.2885 18.9678 15.4089 18.742 15.4089 18.353V16.9355C15.4089 16.4839 15.5012 16.3937 15.8094 16.3937C16.0366 16.3937 16.426 16.511 17.3347 17.4153C18.3732 18.487 18.5444 18.9678 19.1285 18.9678H20.6601C21.0977 18.9678 21.3165 18.742 21.1903 18.2963C21.0522 17.8522 20.5564 17.2078 19.8985 16.444C19.5415 16.0086 19.006 15.5397 18.8437 15.3053C18.6166 15.0039 18.6815 14.8699 18.8437 14.602C18.8437 14.602 20.7098 11.8891 20.9045 10.9682C21.0018 10.6332 20.9045 10.3871 20.4413 10.3871H18.9097C18.5203 10.3871 18.3408 10.5997 18.2434 10.8341C18.2434 10.8341 17.4645 12.7934 16.3612 14.0661C16.0042 14.4345 15.8419 14.5517 15.6472 14.5517C15.5498 14.5517 15.4089 14.4345 15.4089 14.0996V10.9682C15.4089 10.5662 15.2959 10.3871 14.9713 10.3871H12.5645C12.3212 10.3871 12.1748 10.5736 12.1748 10.7504C12.1748 11.1314 12.7265 11.2193 12.7833 12.291V14.6187C12.7833 15.1291 12.694 15.2216 12.4993 15.2216C11.9801 15.2216 10.7171 13.2535 9.96797 11.0016C9.82119 10.5639 9.67393 10.3871 9.2825 10.3871V10.3871Z" fill="white"/>
</svg>
