<?xml version="1.0" encoding="utf-8"?>
<!-- Generator: Adobe Illustrator 16.0.0, SVG Export Plug-In . SVG Version: 6.00 Build 0)  -->
<!DOCTYPE svg PUBLIC "-//W3C//DTD SVG 1.1//EN" "http://www.w3.org/Graphics/SVG/1.1/DTD/svg11.dtd">
<svg version="1.1" id="Layer_1" xmlns="http://www.w3.org/2000/svg" xmlns:xlink="http://www.w3.org/1999/xlink" x="0px" y="0px"
	 width="35.569px" height="35.57px" viewBox="0 0 35.569 35.57" enable-background="new 0 0 35.569 35.57" xml:space="preserve">
<g>
	<g>
		<path fill="#8DC63F" d="M17.785,0.001C7.904,0.001,0,7.905,0,17.787c0,9.881,7.904,17.785,17.785,17.785
			c9.88,0,17.784-7.904,17.784-17.785C35.569,8.103,27.665,0.001,17.785,0.001z M17.785,33.398c-8.498,0-15.611-7.115-15.611-15.611
			c0-8.499,6.916-15.612,15.611-15.612c8.497,0,15.61,6.916,15.61,15.612C33.396,26.48,26.282,33.398,17.785,33.398z M24.899,11.265
			L14.426,21.738l-4.743-4.743c-0.396-0.395-1.186-0.395-1.581,0c-0.395,0.395-0.395,1.186,0,1.581l5.533,5.533
			c0.395,0.396,1.186,0.396,1.581,0l0,0l11.066-11.264c0.396-0.395,0.396-1.186,0-1.58C26.085,10.87,25.294,10.87,24.899,11.265z"/>
	</g>
</g>
</svg>
