<?xml version="1.0" encoding="utf-8"?>
<!-- Generator: Adobe Illustrator 19.1.0, SVG Export Plug-In . SVG Version: 6.00 Build 0)  -->
<svg version="1.1" id="Layer_1" xmlns="http://www.w3.org/2000/svg" xmlns:xlink="http://www.w3.org/1999/xlink" x="0px" y="0px"
	 viewBox="10 2 36 36" style="enable-background:new 10 2 36 36;" xml:space="preserve">
<style type="text/css">
	.st0{fill:#2E4453;}
</style>
<g>
	<g>
		<path class="st0" d="M23.4,20.4h6.5c0.2,0,0.4-0.2,0.4-0.4c0-0.2-0.2-0.4-0.4-0.4h-6.5l1.4-1.4c0.1-0.1,0.1-0.4,0-0.5
			c-0.1-0.1-0.4-0.1-0.5,0L22,20l2.2,2.3c0.1,0.1,0.2,0.1,0.3,0.1c0.1,0,0.2,0,0.3-0.1c0.1-0.1,0.1-0.4,0-0.5L23.4,20.4z M33.2,14
			h-6.4c-0.4,0-0.8,0.3-0.8,0.8v3.4h0.8v-2.9c0-0.3,0.2-0.5,0.5-0.5h5.4c0.3,0,0.5,0.2,0.5,0.5l0,9.6c0,0.3-0.2,0.5-0.5,0.5h-5.5
			c-0.3,0-0.5-0.2-0.5-0.5v-2.9l-0.8,0v3.4c0,0.4,0.3,0.8,0.8,0.8h6.4c0.4,0,0.8-0.3,0.8-0.8V14.8C34,14.3,33.7,14,33.2,14z"/>
	</g>
</g>
</svg>
