<?xml version="1.0" encoding="utf-8"?>
<!-- Generator: Adobe Illustrator 16.0.0, SVG Export Plug-In . SVG Version: 6.00 Build 0)  -->
<!DOCTYPE svg PUBLIC "-//W3C//DTD SVG 1.1//EN" "http://www.w3.org/Graphics/SVG/1.1/DTD/svg11.dtd">
<svg version="1.1" id="Layer_1" xmlns="http://www.w3.org/2000/svg" xmlns:xlink="http://www.w3.org/1999/xlink" x="0px" y="0px"
	 width="35.57px" height="35.569px" viewBox="0 0 35.57 35.569" enable-background="new 0 0 35.57 35.569" xml:space="preserve">
<g>
	<g>
		<path fill="#8DC63F" d="M17.785,0C7.905,0,0,7.904,0,17.784c0,9.881,7.905,17.785,17.785,17.785
			c9.881,0,17.785-7.904,17.785-17.785C35.57,8.102,27.666,0,17.785,0z M17.785,33.396c-8.497,0-15.611-7.113-15.611-15.611
			c0-8.497,6.917-15.611,15.611-15.611c8.497,0,15.611,6.917,15.611,15.611C33.396,26.479,26.282,33.396,17.785,33.396z
			 M24.899,11.264L14.426,21.736l-4.743-4.742c-0.395-0.396-1.186-0.396-1.581,0c-0.396,0.396-0.396,1.186,0,1.581l5.533,5.532
			c0.395,0.396,1.186,0.396,1.581,0l0,0l11.066-11.264c0.396-0.395,0.396-1.186,0-1.58C26.085,10.868,25.294,10.868,24.899,11.264z"
			/>
	</g>
</g>
</svg>
