<?xml version="1.0" encoding="utf-8"?>
<!-- Generator: Adobe Illustrator 21.0.0, SVG Export Plug-In . SVG Version: 6.00 Build 0)  -->
<svg version="1.1" id="Слой_1" xmlns="http://www.w3.org/2000/svg" xmlns:xlink="http://www.w3.org/1999/xlink" x="0px" y="0px"
	 width="2px" height="22px" viewBox="0 0 2 22" style="enable-background:new 0 0 2 22;" xml:space="preserve">
<style type="text/css">
	.st0{fill-rule:evenodd;clip-rule:evenodd;fill:#B0442E;}
</style>
<path class="st0" d="M2,20.9l0,0.3l0,0.8C2,21.9,1.5,22,1,22s-1-0.1-1-0.1v-0.7l0-0.3l0-0.8C0,20.1,0.4,20,1,20c0.6,0,1,0.1,1,0.1
	L2,20.9z"/>
<path class="st0" d="M2,7l0,2l0,6c0,0.6-0.4,1-1,1s-1-0.4-1-1V9l0-2l0-6c0-0.6,0.4-1,1-1c0.6,0,1,0.4,1,1L2,7z"/>
</svg>
