<?xml version="1.0" encoding="utf-8"?>
<!-- Generator: Adobe Illustrator 20.1.0, SVG Export Plug-In . SVG Version: 6.00 Build 0)  -->
<svg version="1.1" id="Layer_1" xmlns="http://www.w3.org/2000/svg" xmlns:xlink="http://www.w3.org/1999/xlink" x="0px" y="0px"
	 viewBox="0 0 36 36" style="enable-background:new 0 0 36 36;" xml:space="preserve">
<style type="text/css">
	.st0{fill:#AEAEAE;}
	.st1{fill:#1E73B7;}
</style>
<g>
	<path class="st0" d="M23,11c1.1,0,2,0.9,2,2v10c0,1.1-0.9,2-2,2H13c-1.1,0-2-0.9-2-2V13c0-1.1,0.9-2,2-2H23 M23,10H13
		c-1.7,0-3,1.3-3,3v10c0,1.7,1.3,3,3,3h10c1.7,0,3-1.3,3-3V13C26,11.3,24.7,10,23,10z"/>
</g>
<g>
	<path class="st1" d="M23,11c1.1,0,2,0.9,2,2v10c0,1.1-0.9,2-2,2H13c-1.1,0-2-0.9-2-2V13c0-1.1,0.9-2,2-2H23 M23,10H13
		c-1.7,0-3,1.3-3,3v10c0,1.7,1.3,3,3,3h10c1.7,0,3-1.3,3-3V13C26,11.3,24.7,10,23,10z"/>
</g>
</svg>
