<svg width="18" height="18" viewBox="0 0 18 18" fill="none" xmlns="http://www.w3.org/2000/svg">
<path fill-rule="evenodd" clip-rule="evenodd" d="M5.25 12.375C6.49264 12.375 7.5 13.3824 7.5 14.625C7.5 15.8676 6.49264 16.875 5.25 16.875C4.00736 16.875 3 15.8676 3 14.625C3 13.3824 4.00736 12.375 5.25 12.375ZM12.75 6.75C13.9926 6.75 15 7.75736 15 9C15 10.2426 13.9926 11.25 12.75 11.25C11.5074 11.25 10.5 10.2426 10.5 9C10.5 7.75736 11.5074 6.75 12.75 6.75ZM5.25 1.125C6.49264 1.125 7.5 2.13236 7.5 3.375C7.5 4.61764 6.49264 5.625 5.25 5.625C4.00736 5.625 3 4.61764 3 3.375C3 2.13236 4.00736 1.125 5.25 1.125Z" stroke="#1E73B7" stroke-width="2" stroke-linecap="round" stroke-linejoin="round"/>
<path d="M7.49764 3.375H16.5M1.5 3.375H3H1.5Z" stroke="#1E73B7" stroke-width="2" stroke-linecap="round" stroke-linejoin="round"/>
<path d="M7.49764 14.625H16.5M1.5 14.625H3H1.5Z" stroke="#1E73B7" stroke-width="2" stroke-linecap="round" stroke-linejoin="round"/>
<path d="M10.5024 9H1.5M16.5 9H15H16.5Z" stroke="#1E73B7" stroke-width="2" stroke-linecap="round" stroke-linejoin="round"/>
</svg>
