<?xml version="1.0" encoding="utf-8"?>
<!-- Generator: Adobe Illustrator 16.0.0, SVG Export Plug-In . SVG Version: 6.00 Build 0)  -->
<!DOCTYPE svg PUBLIC "-//W3C//DTD SVG 1.1//EN" "http://www.w3.org/Graphics/SVG/1.1/DTD/svg11.dtd">
<svg version="1.1" id="Layer_1" xmlns="http://www.w3.org/2000/svg" xmlns:xlink="http://www.w3.org/1999/xlink" x="0px" y="0px"
	 width="15px" height="15px" viewBox="-0.635 -0.635 15 15" enable-background="new -0.635 -0.635 15 15" xml:space="preserve">
<path fill="#2F4553" d="M6.964,7.636L2.814,2.498c-0.593-0.593-1.383-0.593-1.978,0L0.443,2.895c-0.593,0.592-0.593,1.383,0,1.777
	l5.138,6.126l0,0l0.396,0.592c0.195,0.197,0.593,0.396,0.986,0.396c0.396,0,0.791-0.199,0.989-0.396l0.396-0.592l0,0l4.938-6.126
	c0.593-0.593,0.593-1.58,0-2.174l-0.396-0.197c-0.595-0.592-1.383-0.396-1.979,0.197L6.964,7.636z"/>
</svg>
