<?xml version="1.0" encoding="utf-8"?>
<!-- Generator: Adobe Illustrator 20.1.0, SVG Export Plug-In . SVG Version: 6.00 Build 0)  -->
<svg version="1.1" id="Слой_1" xmlns="http://www.w3.org/2000/svg" xmlns:xlink="http://www.w3.org/1999/xlink" x="0px" y="0px"
	 viewBox="0 0 72.8 72.6" style="enable-background:new 0 0 72.8 72.6;" xml:space="preserve">
<style type="text/css">
	.st0{fill-rule:evenodd;clip-rule:evenodd;fill:#168DE2;}
	.st1{fill:#FFA930;}
</style>
<path class="st0" d="M35.8,0H37c19.8,0,35.8,16,35.8,35.8v1c0,19.8-16,35.8-35.8,35.8h-1.2C16,72.6,0,56.6,0,36.8v-1
	C0,16,16,0,35.8,0z"/>
<path id="path24_3_" class="st1" d="M41.6,36.2c-0.2-3.3-2.6-5.3-5.6-5.3h-0.1c-3.4,0-5.3,2.7-5.3,5.8c0,3.4,2.3,5.6,5.3,5.6
	c3.4,0,5.6-2.5,5.7-5.4L41.6,36.2L41.6,36.2z M35.9,27.9c2.3,0,4.4,1,6,2.6v0c0-0.8,0.5-1.3,1.2-1.3l0.2,0c1.1,0,1.3,1.1,1.3,1.4
	l0,11.8c-0.1,0.8,0.8,1.2,1.3,0.7c1.9-2,4.2-10-1.2-14.7c-5-4.4-11.7-3.7-15.3-1.2c-3.8,2.6-6.2,8.4-3.9,13.8
	c2.6,5.9,9.9,7.7,14.3,5.9c2.2-0.9,3.2,2.1,0.9,3.1c-3.5,1.5-13.1,1.3-17.6-6.5c-3-5.3-2.9-14.6,5.2-19.4c6.2-3.7,14.3-2.7,19.3,2.5
	c5.1,5.4,4.8,15.4-0.2,19.3c-2.3,1.8-5.6,0-5.6-2.5l0-0.8c-1.6,1.6-3.7,2.5-6,2.5c-4.5,0-8.5-4-8.5-8.5
	C27.3,31.9,31.3,27.9,35.9,27.9L35.9,27.9"/>
</svg>
