<?xml version="1.0" encoding="utf-8"?>
<!-- Generator: Adobe Illustrator 20.1.0, SVG Export Plug-In . SVG Version: 6.00 Build 0)  -->
<svg version="1.1" id="Layer_1" xmlns="http://www.w3.org/2000/svg" xmlns:xlink="http://www.w3.org/1999/xlink" x="0px" y="0px"
	 viewBox="0 0 14 14" style="enable-background:new 0 0 14 14;" xml:space="preserve">
<style type="text/css">
	.st0{fill:#1E73B7;}
</style>
<g>
	<g>
		<path class="st0" d="M4.4,7.3C4.3,7.4,4.3,7.5,4.3,7.7s0,0.2,0.1,0.4l2.7,2.6L9.8,8c0.1-0.1,0.1-0.5,0-0.6s-0.5-0.1-0.6,0L7.6,9
			V0.5C7.6,0.3,7.4,0,7.1,0C6.9,0,6.6,0.2,6.6,0.5v8.4L5,7.2C4.8,7.2,4.6,7.2,4.4,7.3z M13.1,4.7H9.2v0.9h3.4c0.3,0,0.6,0.2,0.6,0.6
			v6.4c0,0.3-0.2,0.6-0.6,0.6H1.5c-0.3,0-0.6-0.2-0.6-0.6V6.2c0-0.4,0.2-0.6,0.6-0.6h3.4V4.7h-4C0.4,4.7,0,5.2,0,5.7v7.5
			C0,13.6,0.3,14,0.9,14H13c0.5,0,0.9-0.3,0.9-0.9V5.7C14,5,13.6,4.7,13.1,4.7z"/>
	</g>
</g>
</svg>
