<svg width="17" height="17" viewBox="0 0 17 17" fill="none" xmlns="http://www.w3.org/2000/svg">
<path d="M13.4136 0H11.5385H5.46114H3.58604C1.63075 0 0.0400391 1.59071 0.0400391 3.546V13.454C0.0400391 15.4093 1.63075 17 3.58604 17H6.11123H11.0232H13.4135C15.3688 17 16.9595 15.4093 16.9595 13.454V3.546C16.9596 1.59071 15.3688 0 13.4136 0ZM11.5385 1.29897C12.16 1.29897 12.6656 1.71212 12.6656 2.21993V7.54829C12.6656 8.05614 12.16 8.4693 11.5385 8.4693H5.46114C4.83963 8.4693 4.33403 8.05614 4.33403 7.54829V2.21993C4.33403 1.71212 4.83967 1.29897 5.46114 1.29897H11.5385ZM6.11128 15.701C5.84027 15.701 5.61975 15.4806 5.61975 15.2095V13.9077C5.61975 13.6367 5.84027 13.4162 6.11128 13.4162H11.0232C11.2942 13.4162 11.5147 13.6367 11.5147 13.9077V15.2095C11.5147 15.4806 11.2942 15.701 11.0232 15.701H6.11128ZM15.6606 13.454C15.6606 14.693 14.6526 15.701 13.4136 15.701H12.7445C12.7892 15.5447 12.8137 15.38 12.8137 15.2095V13.9077C12.8137 12.9205 12.0105 12.1173 11.0232 12.1173H6.11128C5.12397 12.1173 4.32078 12.9205 4.32078 13.9077V15.2095C4.32078 15.38 4.34524 15.5448 4.38993 15.701H3.58604C2.347 15.701 1.339 14.693 1.339 13.454V3.546C1.339 2.42413 2.16545 1.49173 3.24147 1.32542C3.10915 1.59924 3.03506 1.90173 3.03506 2.21993V7.54829C3.03506 8.77239 4.12342 9.76827 5.46114 9.76827H11.5385C12.8763 9.76827 13.9646 8.77239 13.9646 7.54829V2.21993C13.9646 1.90177 13.8905 1.59929 13.7582 1.32542C14.8342 1.49173 15.6606 2.42413 15.6606 3.546V13.454Z" fill="#D5D9E2"/>
</svg>
