<?xml version="1.0" encoding="utf-8"?>
<!-- Generator: Adobe Illustrator 16.0.0, SVG Export Plug-In . SVG Version: 6.00 Build 0)  -->
<!DOCTYPE svg PUBLIC "-//W3C//DTD SVG 1.1//EN" "http://www.w3.org/Graphics/SVG/1.1/DTD/svg11.dtd">
<svg version="1.1" id="Layer_1" xmlns="http://www.w3.org/2000/svg" xmlns:xlink="http://www.w3.org/1999/xlink" x="0px" y="0px"
	 width="31.618px" height="31.619px" viewBox="0 0 31.618 31.619" enable-background="new 0 0 31.618 31.619" xml:space="preserve">
<g>
	<g>
		<path fill="#C4C6C6" d="M15.808,0C7.113,0,0,7.114,0,15.809s7.113,15.809,15.809,15.809s15.809-7.113,15.809-15.809
			S24.503,0,15.808,0z M15.808,29.641c-7.707,0-13.832-6.322-13.832-13.832c0-7.707,6.125-13.832,13.832-13.832
			s13.834,6.125,13.834,13.832S23.515,29.641,15.808,29.641z M14.425,24.702h2.568v-2.568h-2.568V24.702z M15.808,6.917
			c-1.383,0-2.568,0.396-3.557,1.186c-0.988,0.791-1.383,2.371-1.383,3.557l0,0h2.174c0-0.789,0.197-1.975,0.789-2.371
			c0.594-0.395,1.188-0.592,1.779-0.592c0.791,0,1.58,0.197,1.977,0.592c0.395,0.396,0.592,1.186,0.592,1.977
			s-0.197,1.383-0.592,1.779c-0.396,0.592-0.988,1.186-1.779,2.174c-0.789,0.789-1.383,1.383-1.58,1.777s-0.197,1.186-0.396,2.371
			h2.373c0-0.789,0-1.186,0.197-1.58c0-0.396,0.395-0.791,0.789-1.186c0.988-0.988,1.779-1.779,2.174-2.568
			c0.594-0.791,0.791-1.779,0.791-2.768c0-1.383-0.395-2.568-1.383-3.359C18.576,7.313,17.39,6.917,15.808,6.917z"/>
	</g>
</g>
</svg>
