<?xml version="1.0" encoding="utf-8"?>
<!-- Generator: Adobe Illustrator 21.0.0, SVG Export Plug-In . SVG Version: 6.00 Build 0)  -->
<svg version="1.1" id="Layer_1" xmlns="http://www.w3.org/2000/svg" xmlns:xlink="http://www.w3.org/1999/xlink" x="0px" y="0px"
	 viewBox="0 0 23.6 23.5" style="enable-background:new 0 0 23.6 23.5;" xml:space="preserve">
<style type="text/css">
	.st0{fill:#1E73B7;}
</style>
<g>
	<g>
		<path class="st0" d="M3.5,3.4c-4.6,4.6-4.6,12.1,0,16.7s12.1,4.6,16.7,0s4.6-12.1,0-16.7C15.4-1.1,8-1.1,3.5,3.4z M19,18.9
			C15,22.9,8.3,23,4.4,19C0.5,15.2,0.5,8.5,4.5,4.5S15,0.3,19.1,4.4S22.9,14.9,19,18.9z"/>
	</g>
</g>
<path class="st0" d="M15.9,7.5c-0.3-0.3-0.7-0.3-1,0l-3.1,3.1L8.7,7.5c-0.3-0.3-0.7-0.3-1,0s-0.3,0.7,0,1l3.1,3.1l-3.1,3.1
	c-0.3,0.3-0.3,0.7,0,1c0.3,0.3,0.7,0.3,1,0l3.1-3.1l3.1,3.1c0.3,0.3,0.7,0.3,1,0c0.3-0.3,0.3-0.7,0-1l-3.1-3.1l3.1-3.1
	C16.3,8.3,16.3,7.9,15.9,7.5z"/>
</svg>
