<?xml version="1.0" encoding="utf-8"?>
<!-- Generator: Adobe Illustrator 20.1.0, SVG Export Plug-In . SVG Version: 6.00 Build 0)  -->
<svg version="1.1" id="Layer_1" xmlns="http://www.w3.org/2000/svg" xmlns:xlink="http://www.w3.org/1999/xlink" x="0px" y="0px"
	 viewBox="0 0 14 13" style="enable-background:new 0 0 14 13;" xml:space="preserve">
<style type="text/css">
	.st0{fill:#1E73B7;}
</style>
<path class="st0" d="M13.1,13H0.8C0.3,13,0,12.6,0,12.1V7.6c0-0.5,0.4-0.9,0.8-0.9h12.3c0.5,0,0.8,0.4,0.8,0.9v4.5
	C14.1,12.5,13.6,13,13.1,13z M13.1,7.7H0.8v4.4h12.3V7.7z M13.1,6.2H0.8C0.3,6.2,0,5.8,0,5.3V0.9C0,0.4,0.4,0,0.8,0h12.3
	c0.5,0,0.8,0.4,0.8,0.9v4.3C14.1,5.8,13.6,6.2,13.1,6.2z M13.1,0.9H0.8v4.3h12.3C13.1,5.2,13.1,0.9,13.1,0.9z"/>
</svg>
