<?xml version="1.0" encoding="utf-8"?>
<!-- Generator: Adobe Illustrator 16.0.0, SVG Export Plug-In . SVG Version: 6.00 Build 0)  -->
<!DOCTYPE svg PUBLIC "-//W3C//DTD SVG 1.1//EN" "http://www.w3.org/Graphics/SVG/1.1/DTD/svg11.dtd">
<svg version="1.1" id="Layer_1" xmlns="http://www.w3.org/2000/svg" xmlns:xlink="http://www.w3.org/1999/xlink" x="0px" y="0px"
	 width="7px" height="5px" viewBox="3.368 2.421 7 5" enable-background="new 3.368 2.421 7 5" xml:space="preserve">
<path fill="#2F4553" d="M6.918,5.313L4.803,2.704c-0.302-0.301-0.705-0.301-1.007,0L3.594,2.905c-0.302,0.301-0.302,0.702,0,0.903
	l2.619,3.112l0,0L6.415,7.22c0.1,0.101,0.302,0.201,0.503,0.201c0.202,0,0.403-0.101,0.504-0.201l0.201-0.301l0,0l2.518-3.112
	c0.302-0.301,0.302-0.803,0-1.104L9.94,2.603C9.637,2.302,9.235,2.402,8.932,2.704L6.918,5.313z"/>
</svg>
