<svg id="Слой_1" data-name="Слой 1" xmlns="http://www.w3.org/2000/svg" xmlns:xlink="http://www.w3.org/1999/xlink" viewBox="0 0 200.96 56.48"><defs><style>.cls-1{fill:url(#Безымянный_градиент_6);}.cls-2{opacity:0.3;}.cls-3{fill:url(#Безымянный_градиент_2);}.cls-4{fill:#fff;}.cls-5{fill:none;stroke:#1e73b7;stroke-miterlimit:10;stroke-width:2px;opacity:0.17;}.cls-6{fill:#1e73b7;}.cls-7{fill:#f08a00;}</style><radialGradient id="Безымянный_градиент_6" cx="-201.28" cy="319.92" r="1" gradientTransform="matrix(0, -22.08, -17.51, 0, 5628.17, -4415.2)" gradientUnits="userSpaceOnUse"><stop offset="0.26" stop-color="#3c91d6"/><stop offset="1" stop-color="#1e73b7"/></radialGradient><linearGradient id="Безымянный_градиент_2" x1="27.41" y1="54.59" x2="29.4" y2="25.79" gradientTransform="matrix(1, 0, 0, -1, 0, 62)" gradientUnits="userSpaceOnUse"><stop offset="0" stop-color="#ebf5fc"/><stop offset="1" stop-color="#439ddc"/></linearGradient></defs><title>горизонтальный лого с подписью en</title><path class="cls-1" d="M27.94,51.61C29.8,50.81,40,46,43,35.33a.64.64,0,0,0,0-.07A200.17,200.17,0,0,0,45.15,11a.72.72,0,0,0-.47-.7A51.54,51.54,0,0,0,27.78,7.5h-.27c-2.21,0-10.94.52-16.9,2.75a.75.75,0,0,0-.47.7,207.11,207.11,0,0,0,2.15,24.3s0,.05,0,.07C15.25,46,25.49,50.81,27.36,51.61A.73.73,0,0,0,27.94,51.61Z" transform="translate(-4.72 -1.61)"/><g class="cls-2"><path class="cls-3" d="M27.49,7.48c-2.22,0-11,.52-16.95,2.72a.56.56,0,0,0-.42.61c.2,1.86,5.61,10.64,13.1,16.7,8.13,6.59,18.62,7.78,19.28,7.8a.64.64,0,0,0,.58-.4,199.17,199.17,0,0,0,2.1-24,.75.75,0,0,0-.47-.69A52.48,52.48,0,0,0,27.76,7.48Z" transform="translate(-4.72 -1.61)"/></g><path class="cls-4" d="M34.43,12.1a5.47,5.47,0,0,1,2.21.05,5.53,5.53,0,0,1,4.27,4.49,5.61,5.61,0,0,1,0,2.2,5.72,5.72,0,0,1-.88,2,5.47,5.47,0,0,1-1.56,1.51,5.64,5.64,0,0,1-5,.54,5.55,5.55,0,0,1-3.61-4.3,5.65,5.65,0,0,1,.05-2.21,5.64,5.64,0,0,1,2.47-3.47,5.3,5.3,0,0,1,2-.8Zm.16.91A4.68,4.68,0,0,0,31,16a4.42,4.42,0,0,0-.22,2.42,4.68,4.68,0,0,0,7.63,2.78,4.65,4.65,0,0,0,1.38-2A4.77,4.77,0,0,0,40,16.8a4.41,4.41,0,0,0-.67-1.71,4.56,4.56,0,0,0-1.25-1.3,4.49,4.49,0,0,0-1.64-.73A4.6,4.6,0,0,0,34.59,13Zm3,3.37-.21,0a.37.37,0,0,1-.41-.19,1.71,1.71,0,0,0-1.6-.91,1.74,1.74,0,0,0-1,.27,1.94,1.94,0,0,0-.69.82,3.17,3.17,0,0,0-.25,1.26A2.55,2.55,0,0,0,34,19.35a1.75,1.75,0,0,0,1.4.63,1.9,1.9,0,0,0,1.11-.35,1.57,1.57,0,0,0,.6-.74.37.37,0,0,1,.45-.21l.27.09a.32.32,0,0,1,.2.41,2.69,2.69,0,0,1-.45.77,2.59,2.59,0,0,1-1,.68,3.08,3.08,0,0,1-1.22.23,3,3,0,0,1-1.55-.42,2.49,2.49,0,0,1-1-1.15,4,4,0,0,1-.34-1.78,3.34,3.34,0,0,1,.22-1.21,2.71,2.71,0,0,1,.61-1,2.51,2.51,0,0,1,1-.63,3.4,3.4,0,0,1,1.26-.2,2.82,2.82,0,0,1,1.62.48,2.25,2.25,0,0,1,.75.92.36.36,0,0,1-.25.48" transform="translate(-4.72 -1.61)"/><path class="cls-5" d="M28,57c2.34-1,15.16-6.91,18.86-20.08a.24.24,0,0,1,0-.08,244.3,244.3,0,0,0,2.68-30A.88.88,0,0,0,49,6C41.63,3.26,32.76,2.61,27.82,2.61h-.34c-2.78,0-13.7.64-21.17,3.4a.9.9,0,0,0-.59.85,250.22,250.22,0,0,0,2.69,30,.24.24,0,0,0,0,.08C12.12,50.11,25,56,27.28,57A.93.93,0,0,0,28,57Z" transform="translate(-4.72 -1.61)"/><path class="cls-6" d="M62.71,37.57a2.74,2.74,0,0,1-.18,1,2.17,2.17,0,0,1-.53.76,2.48,2.48,0,0,1-.85.46A3.83,3.83,0,0,1,60,40h-.58v2.2a.11.11,0,0,1,0,.09.18.18,0,0,1-.11.07l-.21,0h-.68l-.22,0a.18.18,0,0,1-.11-.07.14.14,0,0,1,0-.09V36a.48.48,0,0,1,.13-.37.49.49,0,0,1,.34-.13h1.63l.46,0a4.29,4.29,0,0,1,.53.08,2.29,2.29,0,0,1,.63.23,1.87,1.87,0,0,1,.54.42,1.63,1.63,0,0,1,.34.59A2.19,2.19,0,0,1,62.71,37.57Zm-1.47.11a1.31,1.31,0,0,0-.12-.6.91.91,0,0,0-.32-.35,1.07,1.07,0,0,0-.39-.14,3,3,0,0,0-.42,0h-.6V38.9H60a1.53,1.53,0,0,0,.56-.09,1,1,0,0,0,.37-.25,1.07,1.07,0,0,0,.22-.39A1.57,1.57,0,0,0,61.24,37.68Zm6.34,4.1a2.16,2.16,0,0,1,0,.28.8.8,0,0,1,0,.18.18.18,0,0,1-.07.1.12.12,0,0,1-.09,0H64.21a.39.39,0,0,1-.42-.44V35.67a.16.16,0,0,1,0-.09.35.35,0,0,1,.12-.07,1,1,0,0,1,.21,0l.34,0,.35,0a1,1,0,0,1,.21,0,.23.23,0,0,1,.11.07.18.18,0,0,1,0,.09v5.54h2.16a.13.13,0,0,1,.09,0,.13.13,0,0,1,.07.09.6.6,0,0,1,0,.18A1.84,1.84,0,0,1,67.58,41.78Zm6.46.07a1.35,1.35,0,0,1,.08.3.18.18,0,0,1,0,.17.34.34,0,0,1-.21.07H73a.67.67,0,0,1-.23,0,.19.19,0,0,1-.11-.06.67.67,0,0,1-.06-.12l-.46-1.38H69.59l-.43,1.35a.67.67,0,0,1-.06.12.19.19,0,0,1-.11.08,1,1,0,0,1-.22,0H68a.34.34,0,0,1-.19-.08.19.19,0,0,1,0-.17,1.7,1.7,0,0,1,.08-.3L70,35.73a.53.53,0,0,1,.08-.15.24.24,0,0,1,.13-.08.83.83,0,0,1,.26,0h.94a1.06,1.06,0,0,1,.29,0c.07,0,.12,0,.14.08a.4.4,0,0,1,.08.16ZM70.88,36.8h0l-1,2.92h2Zm9.52-.25a2,2,0,0,1,0,.27.8.8,0,0,1,0,.18.19.19,0,0,1,0,.09.13.13,0,0,1-.08,0A.64.64,0,0,1,80,37l-.41-.21a4.37,4.37,0,0,0-.61-.2,2.88,2.88,0,0,0-.82-.1,2.19,2.19,0,0,0-.9.18,1.89,1.89,0,0,0-.7.49,2.17,2.17,0,0,0-.44.76,3,3,0,0,0-.15,1,3.3,3.3,0,0,0,.15,1,2.29,2.29,0,0,0,.44.75,2,2,0,0,0,.68.46,2.5,2.5,0,0,0,.88.15,2.4,2.4,0,0,0,.46,0,2,2,0,0,0,.43-.16v-1.6H77.68q-.09,0-.15-.12a1.24,1.24,0,0,1,0-.41,1.93,1.93,0,0,1,0-.25c0-.06,0-.12,0-.16a.22.22,0,0,1,.07-.09.11.11,0,0,1,.08,0H80a.33.33,0,0,1,.15,0,.47.47,0,0,1,.12.09.64.64,0,0,1,.08.14,1.11,1.11,0,0,1,0,.19v2.74a.61.61,0,0,1-.06.28.38.38,0,0,1-.23.19l-.42.14-.53.13a5,5,0,0,1-.56.08,5.12,5.12,0,0,1-.56,0,4.29,4.29,0,0,1-1.48-.24,3.15,3.15,0,0,1-1.1-.68,3.12,3.12,0,0,1-.69-1.1A4.2,4.2,0,0,1,74.51,39a4.29,4.29,0,0,1,.26-1.52,3.17,3.17,0,0,1,.72-1.14,3,3,0,0,1,1.13-.72,4.1,4.1,0,0,1,1.48-.25,5,5,0,0,1,.81.06,4,4,0,0,1,.64.15,3.16,3.16,0,0,1,.46.18,1.25,1.25,0,0,1,.25.18.52.52,0,0,1,.11.21A2,2,0,0,1,80.4,36.55Zm2.83,5.63a.11.11,0,0,1,0,.09.18.18,0,0,1-.11.07l-.21,0h-.68l-.22,0a.18.18,0,0,1-.11-.07.11.11,0,0,1,0-.09V35.67a.12.12,0,0,1,0-.09.23.23,0,0,1,.11-.07l.22,0,.34,0,.34,0a.87.87,0,0,1,.21,0,.23.23,0,0,1,.11.07.12.12,0,0,1,0,.09Zm7.14-.33a2.32,2.32,0,0,1,.08.3.18.18,0,0,1,0,.17.34.34,0,0,1-.21.07h-.83a.67.67,0,0,1-.23,0A.19.19,0,0,1,89,42.3a.34.34,0,0,1-.06-.12l-.46-1.38H85.92l-.43,1.35a.67.67,0,0,1-.06.12.19.19,0,0,1-.11.08,1,1,0,0,1-.22,0h-.75c-.1,0-.16,0-.19-.08a.19.19,0,0,1,0-.17,1.7,1.7,0,0,1,.08-.3l2.12-6.11a.53.53,0,0,1,.08-.15s.07-.06.13-.08a.83.83,0,0,1,.26,0h.94a.93.93,0,0,1,.28,0,.27.27,0,0,1,.15.08.6.6,0,0,1,.08.16ZM87.21,36.8h0l-1,2.92h2Zm9.24,5.39a.3.3,0,0,1,0,.1.19.19,0,0,1-.1.06l-.24,0h-.77l-.22,0a.2.2,0,0,1-.1-.07l-.06-.11-.61-1.54c-.08-.17-.15-.33-.22-.46a1.28,1.28,0,0,0-.24-.34,1,1,0,0,0-.3-.21,1.13,1.13,0,0,0-.39-.07h-.44v2.63a.11.11,0,0,1,0,.09.18.18,0,0,1-.11.07l-.21,0H91.7l-.22,0a.18.18,0,0,1-.11-.07.14.14,0,0,1,0-.09V35.92a.42.42,0,0,1,.12-.33.44.44,0,0,1,.3-.11H94l.31,0a3.16,3.16,0,0,1,.75.2,1.73,1.73,0,0,1,.56.38,1.46,1.46,0,0,1,.36.55,2,2,0,0,1,.12.72A2.2,2.2,0,0,1,96,38a1.57,1.57,0,0,1-.25.5,2,2,0,0,1-.42.39,2.5,2.5,0,0,1-.57.27,1.34,1.34,0,0,1,.28.18,1.07,1.07,0,0,1,.26.26,2.24,2.24,0,0,1,.23.34c.07.13.14.28.21.44l.58,1.36a2,2,0,0,1,.1.29A.56.56,0,0,1,96.45,42.19Zm-1.8-4.67a1.07,1.07,0,0,0-.16-.58.8.8,0,0,0-.5-.33l-.25,0-.37,0h-.63v2h.71a1.92,1.92,0,0,0,.52-.07,1.07,1.07,0,0,0,.38-.21.77.77,0,0,0,.22-.31A1.06,1.06,0,0,0,94.65,37.52Zm4.24,4.66a.15.15,0,0,1,0,.09.18.18,0,0,1-.11.07l-.21,0h-.69l-.21,0a.24.24,0,0,1-.12-.07.14.14,0,0,1,0-.09V35.67a.16.16,0,0,1,0-.09.35.35,0,0,1,.12-.07l.22,0,.33,0,.35,0,.21,0a.23.23,0,0,1,.11.07.18.18,0,0,1,0,.09Zm5.58-1.88a2.22,2.22,0,0,1-.2,1,2,2,0,0,1-.55.68,2.38,2.38,0,0,1-.81.41,3.2,3.2,0,0,1-1,.14,3.37,3.37,0,0,1-.66-.06,4.31,4.31,0,0,1-.54-.13,3.11,3.11,0,0,1-.4-.18,1.14,1.14,0,0,1-.22-.16.38.38,0,0,1-.1-.2,1.81,1.81,0,0,1,0-.38c0-.11,0-.2,0-.27a.6.6,0,0,1,0-.18.14.14,0,0,1,.06-.1.17.17,0,0,1,.1,0,.45.45,0,0,1,.2.09l.35.19a3.62,3.62,0,0,0,.51.2,2.42,2.42,0,0,0,.69.08,2,2,0,0,0,.45,0,1.2,1.2,0,0,0,.34-.18.74.74,0,0,0,.22-.28.86.86,0,0,0,.08-.36.66.66,0,0,0-.13-.4,1.1,1.1,0,0,0-.34-.3,3.28,3.28,0,0,0-.46-.25l-.54-.24A5.45,5.45,0,0,1,101,39a2.22,2.22,0,0,1-.47-.39,1.69,1.69,0,0,1-.33-.53,1.88,1.88,0,0,1-.13-.74,2,2,0,0,1,.18-.87,1.8,1.8,0,0,1,.5-.62,2,2,0,0,1,.73-.38,3.26,3.26,0,0,1,.9-.12,2.7,2.7,0,0,1,.49,0,3.41,3.41,0,0,1,.46.1,2.61,2.61,0,0,1,.37.14.83.83,0,0,1,.22.14.18.18,0,0,1,.07.09.13.13,0,0,1,0,.1s0,.09,0,.15v.23a2,2,0,0,1,0,.26.48.48,0,0,1,0,.18.16.16,0,0,1,0,.1.12.12,0,0,1-.09,0,.64.64,0,0,1-.19-.07,2.2,2.2,0,0,0-.31-.16,2.15,2.15,0,0,0-.43-.16,1.8,1.8,0,0,0-.54-.08,1.25,1.25,0,0,0-.4.06,1.13,1.13,0,0,0-.29.15.81.81,0,0,0-.17.24.93.93,0,0,0,0,.29.68.68,0,0,0,.12.4,1.43,1.43,0,0,0,.34.3l.48.24.54.24a5.7,5.7,0,0,1,.54.3,2,2,0,0,1,.48.38,1.63,1.63,0,0,1,.33.54A1.73,1.73,0,0,1,104.47,40.3Zm9.1,1.88a.11.11,0,0,1,0,.09.13.13,0,0,1-.1.07l-.2,0h-.65l-.2,0a.18.18,0,0,1-.11-.07.14.14,0,0,1,0-.09V36.57h0l-2,5.6a.19.19,0,0,1-.07.12.32.32,0,0,1-.13.07.58.58,0,0,1-.21,0h-.61l-.22,0a.36.36,0,0,1-.12-.08.14.14,0,0,1-.07-.1l-1.92-5.6h0v5.61a.14.14,0,0,1,0,.09.13.13,0,0,1-.1.07l-.21,0h-.64l-.21,0a.15.15,0,0,1-.1-.07.14.14,0,0,1,0-.09V36a.56.56,0,0,1,.14-.41.53.53,0,0,1,.39-.15H107a1.61,1.61,0,0,1,.42.05.66.66,0,0,1,.31.13.83.83,0,0,1,.21.24,1.5,1.5,0,0,1,.15.38l1.49,4.1h0l1.54-4.09a3,3,0,0,1,.15-.38,1,1,0,0,1,.19-.25.53.53,0,0,1,.26-.13,1.23,1.23,0,0,1,.35-.05H113a.62.62,0,0,1,.25,0,.39.39,0,0,1,.17.11.52.52,0,0,1,.1.18.73.73,0,0,1,0,.23Zm9.69-3.36a4.86,4.86,0,0,1-.25,1.63,2.72,2.72,0,0,1-.71,1.09,2.78,2.78,0,0,1-1.13.63,5.55,5.55,0,0,1-1.57.2H118a.44.44,0,0,1-.3-.1.48.48,0,0,1-.11-.34v-6a.45.45,0,0,1,.11-.33.44.44,0,0,1,.3-.11h1.77a5.05,5.05,0,0,1,1.56.22A2.71,2.71,0,0,1,123,37.38,4.26,4.26,0,0,1,123.26,38.82Zm-1.45,0a3.34,3.34,0,0,0-.12-.91,1.72,1.72,0,0,0-1-1.21,2.75,2.75,0,0,0-1-.17h-.71v4.68h.73a2.75,2.75,0,0,0,1-.15,1.57,1.57,0,0,0,.65-.44,2.08,2.08,0,0,0,.4-.75A3.68,3.68,0,0,0,121.81,38.87Zm6.68,3a2,2,0,0,1,0,.26.71.71,0,0,1,0,.17.22.22,0,0,1-.07.09.11.11,0,0,1-.08,0h-3.46a.39.39,0,0,1-.42-.44v-6a.42.42,0,0,1,.12-.33.44.44,0,0,1,.3-.11h3.44a.11.11,0,0,1,.08,0,.15.15,0,0,1,.06.09.69.69,0,0,1,0,.18,1.61,1.61,0,0,1,0,.26,1.69,1.69,0,0,1,0,.25.71.71,0,0,1,0,.17.15.15,0,0,1-.06.09.11.11,0,0,1-.08,0h-2.46v1.68h2.08a.11.11,0,0,1,.08,0,.22.22,0,0,1,.07.09.61.61,0,0,1,0,.17,1.69,1.69,0,0,1,0,.25,1.57,1.57,0,0,1,0,.25.61.61,0,0,1,0,.17s0,.07-.07.08a.11.11,0,0,1-.08,0h-2.08v1.94h2.48a.09.09,0,0,1,.08,0s0,0,.07.09a.53.53,0,0,1,0,.17A1.78,1.78,0,0,1,128.49,41.82Zm5.83-5.76a1.84,1.84,0,0,1,0,.26.8.8,0,0,1,0,.18.16.16,0,0,1-.07.09.09.09,0,0,1-.08,0h-1.72v5.55a.15.15,0,0,1,0,.09.18.18,0,0,1-.11.07l-.22,0h-.68l-.21,0a.24.24,0,0,1-.12-.07.14.14,0,0,1,0-.09V36.63h-1.72a.1.1,0,0,1-.09,0,.22.22,0,0,1-.07-.09.8.8,0,0,1,0-.18,2,2,0,0,1,0-.26,2.1,2.1,0,0,1,0-.27.6.6,0,0,1,0-.18.2.2,0,0,1,.07-.1.12.12,0,0,1,.09,0h4.85a.11.11,0,0,1,.08,0,.15.15,0,0,1,.07.1.6.6,0,0,1,0,.18A1.87,1.87,0,0,1,134.32,36.06Zm4.89,5.76a2,2,0,0,1,0,.26.71.71,0,0,1,0,.17.22.22,0,0,1-.07.09.11.11,0,0,1-.08,0h-3.46a.39.39,0,0,1-.42-.44v-6a.42.42,0,0,1,.12-.33.44.44,0,0,1,.3-.11H139a.12.12,0,0,1,.09,0,.2.2,0,0,1,.06.09.69.69,0,0,1,0,.18,1.61,1.61,0,0,1,0,.26,1.69,1.69,0,0,1,0,.25.71.71,0,0,1,0,.17.2.2,0,0,1-.06.09.12.12,0,0,1-.09,0h-2.45v1.68h2.08a.11.11,0,0,1,.08,0,.22.22,0,0,1,.07.09.61.61,0,0,1,0,.17,1.85,1.85,0,0,1,0,.25,1.78,1.78,0,0,1,0,.25.61.61,0,0,1,0,.17s0,.07-.07.08a.11.11,0,0,1-.08,0h-2.08v1.94H139a.09.09,0,0,1,.08,0s0,0,.07.09a.53.53,0,0,1,0,.17A1.78,1.78,0,0,1,139.21,41.82Zm5.85-.49c0,.09,0,.16,0,.23s0,.11,0,.15l-.05.12a.33.33,0,0,1-.08.11,1.13,1.13,0,0,1-.23.15,2.26,2.26,0,0,1-.41.19,3.67,3.67,0,0,1-.55.14,3.55,3.55,0,0,1-.67.06,3.44,3.44,0,0,1-1.28-.22,2.48,2.48,0,0,1-1-.65,2.85,2.85,0,0,1-.61-1.08A4.9,4.9,0,0,1,140,39a4.65,4.65,0,0,1,.24-1.56,3.14,3.14,0,0,1,.65-1.15,2.74,2.74,0,0,1,1-.7,3.42,3.42,0,0,1,1.3-.24,3.31,3.31,0,0,1,.55.05,2.34,2.34,0,0,1,.49.13,2.19,2.19,0,0,1,.41.17,1.25,1.25,0,0,1,.25.18.47.47,0,0,1,.1.11.5.5,0,0,1,0,.13l0,.17c0,.07,0,.15,0,.25s0,.2,0,.27a.78.78,0,0,1,0,.19.26.26,0,0,1-.07.1.11.11,0,0,1-.08,0,.37.37,0,0,1-.2-.09,1.77,1.77,0,0,0-.32-.21,2.07,2.07,0,0,0-.47-.21,2,2,0,0,0-.63-.09,1.5,1.5,0,0,0-.74.17,1.66,1.66,0,0,0-.55.48,2.16,2.16,0,0,0-.34.75,3.75,3.75,0,0,0-.11,1A4.13,4.13,0,0,0,141.6,40a2,2,0,0,0,.35.72,1.56,1.56,0,0,0,.56.44,2,2,0,0,0,.74.13,2.1,2.1,0,0,0,.65-.08,2.88,2.88,0,0,0,.46-.2,2.7,2.7,0,0,0,.32-.19.35.35,0,0,1,.2-.08.11.11,0,0,1,.08,0,.12.12,0,0,1,0,.08.6.6,0,0,1,0,.18C145.05,41.1,145.06,41.2,145.06,41.33Zm5.64-5.27a1.84,1.84,0,0,1,0,.26.84.84,0,0,1,0,.18.22.22,0,0,1-.07.09.12.12,0,0,1-.09,0h-1.72v5.55a.15.15,0,0,1,0,.09.18.18,0,0,1-.11.07l-.22,0h-.68l-.21,0a.24.24,0,0,1-.12-.07.14.14,0,0,1,0-.09V36.63h-1.72a.1.1,0,0,1-.09,0,.22.22,0,0,1-.07-.09s0-.11,0-.18a2,2,0,0,1,0-.26,2.1,2.1,0,0,1,0-.27,1.27,1.27,0,0,1,0-.18.2.2,0,0,1,.07-.1.12.12,0,0,1,.09,0h4.85l.09,0a.2.2,0,0,1,.07.1.66.66,0,0,1,0,.18A1.87,1.87,0,0,1,150.7,36.06Zm2.22,6.12a.11.11,0,0,1,0,.09.18.18,0,0,1-.11.07l-.21,0h-.68l-.22,0a.18.18,0,0,1-.11-.07.11.11,0,0,1,0-.09V35.67a.12.12,0,0,1,0-.09.23.23,0,0,1,.11-.07l.22,0,.34,0,.34,0a.87.87,0,0,1,.21,0,.23.23,0,0,1,.11.07.12.12,0,0,1,0,.09Zm7.69-3.33a5.15,5.15,0,0,1-.21,1.53,3.13,3.13,0,0,1-.63,1.15,2.86,2.86,0,0,1-1,.72,4,4,0,0,1-1.44.24,4.25,4.25,0,0,1-1.4-.21,2.43,2.43,0,0,1-1-.64,2.9,2.9,0,0,1-.6-1.1,5.55,5.55,0,0,1-.2-1.57,4.93,4.93,0,0,1,.22-1.5,3,3,0,0,1,.63-1.14,2.86,2.86,0,0,1,1-.72,3.74,3.74,0,0,1,1.44-.25,4.17,4.17,0,0,1,1.38.21,2.43,2.43,0,0,1,1,.64,2.75,2.75,0,0,1,.61,1.09A5.07,5.07,0,0,1,160.61,38.85Zm-1.46.07a4.88,4.88,0,0,0-.09-1,2,2,0,0,0-.29-.76,1.3,1.3,0,0,0-.55-.49,1.78,1.78,0,0,0-.85-.18,1.74,1.74,0,0,0-.86.2,1.53,1.53,0,0,0-.56.51,2.24,2.24,0,0,0-.3.76,4.56,4.56,0,0,0-.09.92,5.3,5.3,0,0,0,.09,1,2.15,2.15,0,0,0,.29.76,1.22,1.22,0,0,0,.54.49,2,2,0,0,0,.86.17,1.85,1.85,0,0,0,.86-.19,1.58,1.58,0,0,0,.56-.53,2.24,2.24,0,0,0,.3-.76A4.76,4.76,0,0,0,159.15,38.92Zm8.32,3a.54.54,0,0,1,0,.22.64.64,0,0,1-.11.16.51.51,0,0,1-.18.09.58.58,0,0,1-.19,0h-.6a1,1,0,0,1-.32,0,.67.67,0,0,1-.25-.13,1.23,1.23,0,0,1-.22-.27c-.07-.11-.15-.26-.24-.43l-1.71-3.22c-.1-.19-.2-.4-.31-.62s-.19-.44-.27-.65h0c0,.26,0,.51,0,.77s0,.51,0,.78v3.6a.17.17,0,0,1,0,.1.23.23,0,0,1-.11.07l-.19,0h-.62l-.19,0a.2.2,0,0,1-.1-.07.16.16,0,0,1,0-.1V36a.45.45,0,0,1,.14-.37.57.57,0,0,1,.36-.13h.75a1.09,1.09,0,0,1,.34,0,.71.71,0,0,1,.25.11,1,1,0,0,1,.21.23,3.2,3.2,0,0,1,.19.34l1.34,2.52c.08.15.16.3.23.45l.23.44c.07.15.14.29.2.43s.14.29.2.43h0c0-.25,0-.51,0-.78s0-.52,0-.77V35.69a.13.13,0,0,1,0-.1.29.29,0,0,1,.1-.07.54.54,0,0,1,.2,0l.31,0,.31,0a.4.4,0,0,1,.18,0,.29.29,0,0,1,.1.07.16.16,0,0,1,0,.1Zm8.06-1.58a2.09,2.09,0,0,1-.2,1,1.92,1.92,0,0,1-.55.68,2.38,2.38,0,0,1-.81.41,3.2,3.2,0,0,1-1,.14,3.45,3.45,0,0,1-.66-.06,5.38,5.38,0,0,1-.54-.13,2.43,2.43,0,0,1-.39-.18,1,1,0,0,1-.23-.16.47.47,0,0,1-.1-.2,2,2,0,0,1,0-.38,2.1,2.1,0,0,1,0-.27.42.42,0,0,1,0-.18.29.29,0,0,1,.06-.1.17.17,0,0,1,.1,0,.43.43,0,0,1,.21.09,2.64,2.64,0,0,0,.35.19,3.46,3.46,0,0,0,.5.2,2.42,2.42,0,0,0,.69.08,2.16,2.16,0,0,0,.46,0,1.56,1.56,0,0,0,.34-.18.85.85,0,0,0,.22-.28,1,1,0,0,0,.07-.36.6.6,0,0,0-.13-.4,1,1,0,0,0-.33-.3,3.42,3.42,0,0,0-.47-.25l-.53-.24a4.63,4.63,0,0,1-.54-.29,2.22,2.22,0,0,1-.47-.39,2.16,2.16,0,0,1-.33-.53,2.08,2.08,0,0,1-.13-.74,2,2,0,0,1,.18-.87,1.8,1.8,0,0,1,.5-.62,2,2,0,0,1,.73-.38,3.37,3.37,0,0,1,.9-.12,2.63,2.63,0,0,1,.49,0,2.85,2.85,0,0,1,.46.1,2.77,2.77,0,0,1,.38.14,1.05,1.05,0,0,1,.22.14l.07.09a.41.41,0,0,1,0,.1s0,.09,0,.15v.23a2,2,0,0,1,0,.26.9.9,0,0,1,0,.18.17.17,0,0,1-.06.1.12.12,0,0,1-.09,0,.53.53,0,0,1-.18-.07,2.38,2.38,0,0,0-.32-.16,2.15,2.15,0,0,0-.43-.16,1.8,1.8,0,0,0-.54-.08,1.25,1.25,0,0,0-.4.06,1.06,1.06,0,0,0-.28.15.66.66,0,0,0-.17.24.72.72,0,0,0-.06.29.62.62,0,0,0,.13.4,1.21,1.21,0,0,0,.33.3,5.36,5.36,0,0,0,.48.24l.54.24a5.86,5.86,0,0,1,.55.3,2.12,2.12,0,0,1,.47.38,1.84,1.84,0,0,1,.34.54A1.92,1.92,0,0,1,175.53,40.3Zm3.64-.54v2.42a.14.14,0,0,1,0,.09.2.2,0,0,1-.12.07l-.21,0h-.68l-.22,0a.18.18,0,0,1-.11-.07.14.14,0,0,1,0-.09V39.76L175.88,36a2.7,2.7,0,0,1-.13-.3.14.14,0,0,1,0-.16.35.35,0,0,1,.23-.07l.46,0h.39a1,1,0,0,1,.23,0,.23.23,0,0,1,.12.08.36.36,0,0,1,.08.12l.77,1.69c.08.17.15.34.22.52s.15.37.22.57h0l.21-.56.21-.52.75-1.68a.4.4,0,0,1,.07-.13.38.38,0,0,1,.12-.09,1,1,0,0,1,.22,0h.37l.46,0a.31.31,0,0,1,.23.07.13.13,0,0,1,0,.16,3,3,0,0,1-.13.3Zm6.81.54a2.09,2.09,0,0,1-.21,1,1.82,1.82,0,0,1-.55.68,2.42,2.42,0,0,1-.8.41,3.2,3.2,0,0,1-1,.14,3.55,3.55,0,0,1-.67-.06,5.38,5.38,0,0,1-.54-.13l-.39-.18a.89.89,0,0,1-.22-.16.48.48,0,0,1-.11-.2,3.32,3.32,0,0,1,0-.38,2.1,2.1,0,0,1,0-.27,1.64,1.64,0,0,1,0-.18.29.29,0,0,1,.06-.1.17.17,0,0,1,.1,0,.43.43,0,0,1,.21.09,4,4,0,0,0,.85.39,2.42,2.42,0,0,0,.69.08,2.16,2.16,0,0,0,.46,0,1.36,1.36,0,0,0,.34-.18.74.74,0,0,0,.22-.28.86.86,0,0,0,.07-.36.6.6,0,0,0-.13-.4,1,1,0,0,0-.33-.3,4,4,0,0,0-.46-.25c-.18-.07-.36-.16-.54-.24a4.63,4.63,0,0,1-.54-.29,2.5,2.5,0,0,1-.47-.39,2.16,2.16,0,0,1-.33-.53,2.08,2.08,0,0,1-.13-.74,2,2,0,0,1,.19-.87,1.67,1.67,0,0,1,.49-.62,2,2,0,0,1,.74-.38,3.24,3.24,0,0,1,.89-.12,2.63,2.63,0,0,1,.49,0,2.85,2.85,0,0,1,.46.1,2.77,2.77,0,0,1,.38.14,1.05,1.05,0,0,1,.22.14.28.28,0,0,1,.07.09.41.41,0,0,1,0,.1.61.61,0,0,1,0,.15c0,.06,0,.14,0,.23s0,.19,0,.26,0,.13,0,.18a.23.23,0,0,1,0,.1.17.17,0,0,1-.1,0,.62.62,0,0,1-.18-.07,2.38,2.38,0,0,0-.32-.16,1.94,1.94,0,0,0-.43-.16,1.78,1.78,0,0,0-.53-.08,1.16,1.16,0,0,0-.4.06,1,1,0,0,0-.29.15.66.66,0,0,0-.17.24.71.71,0,0,0,0,.29.68.68,0,0,0,.12.4,1.38,1.38,0,0,0,.33.3l.48.24.55.24q.27.14.54.3a1.91,1.91,0,0,1,.47.38,1.84,1.84,0,0,1,.34.54A1.91,1.91,0,0,1,186,40.3Zm5.54-4.24a1,1,0,0,1,0,.26.48.48,0,0,1,0,.18.22.22,0,0,1-.07.09.11.11,0,0,1-.09,0h-1.72v5.55a.11.11,0,0,1,0,.09.18.18,0,0,1-.11.07l-.22,0h-.67l-.22,0a.18.18,0,0,1-.11-.07.11.11,0,0,1,0-.09V36.63h-1.72a.1.1,0,0,1-.09,0,.15.15,0,0,1-.06-.09.78.78,0,0,1-.05-.18c0-.07,0-.16,0-.26s0-.2,0-.27a.56.56,0,0,1,.05-.18.14.14,0,0,1,.06-.1.12.12,0,0,1,.09,0h4.85a.14.14,0,0,1,.09,0,.2.2,0,0,1,.07.1.42.42,0,0,1,0,.18A1.06,1.06,0,0,1,191.52,36.06Zm4.9,5.76a1.84,1.84,0,0,1,0,.26.71.71,0,0,1,0,.17.16.16,0,0,1-.07.09.11.11,0,0,1-.08,0h-3.46a.37.37,0,0,1-.41-.44v-6a.41.41,0,0,1,.11-.33.44.44,0,0,1,.3-.11h3.44a.11.11,0,0,1,.08,0,.22.22,0,0,1,.07.09.45.45,0,0,1,0,.18,1.64,1.64,0,0,1,0,.51.43.43,0,0,1,0,.17.22.22,0,0,1-.07.09.11.11,0,0,1-.08,0h-2.46v1.68h2.08l.09,0a.2.2,0,0,1,.06.09.39.39,0,0,1,0,.17,1.69,1.69,0,0,1,0,.25,1.57,1.57,0,0,1,0,.25.39.39,0,0,1,0,.17.13.13,0,0,1-.06.08.16.16,0,0,1-.09,0h-2.08v1.94h2.48a.09.09,0,0,1,.08,0,.11.11,0,0,1,.07.09.53.53,0,0,1,0,.17A1.57,1.57,0,0,1,196.42,41.82Zm9.26.36a.14.14,0,0,1,0,.09.15.15,0,0,1-.1.07l-.21,0h-.64l-.2,0a.18.18,0,0,1-.11-.07.14.14,0,0,1,0-.09V36.57h0l-2,5.6a.24.24,0,0,1-.07.12.32.32,0,0,1-.13.07.58.58,0,0,1-.21,0h-.62l-.21,0a.57.57,0,0,1-.13-.08.17.17,0,0,1-.06-.1L199,36.57h0v5.61a.14.14,0,0,1,0,.09.15.15,0,0,1-.11.07l-.2,0H198l-.21,0a.21.21,0,0,1-.11-.07.24.24,0,0,1,0-.09V36a.56.56,0,0,1,.14-.41.5.5,0,0,1,.38-.15h.92a1.73,1.73,0,0,1,.42.05.59.59,0,0,1,.3.13.73.73,0,0,1,.22.24,3,3,0,0,1,.15.38l1.49,4.1h0l1.54-4.09a3,3,0,0,1,.15-.38,1,1,0,0,1,.19-.25.53.53,0,0,1,.26-.13,1.23,1.23,0,0,1,.35-.05h.94a.55.55,0,0,1,.24,0,.37.37,0,0,1,.18.11.77.77,0,0,1,.1.18.75.75,0,0,1,0,.23Z" transform="translate(-4.72 -1.61)"/><path class="cls-7" d="M58.71,32.9a.54.54,0,0,1-.35-.13.49.49,0,0,1-.13-.35l0-.21,5.55-14.83a.73.73,0,0,1,.8-.58h2.51a.78.78,0,0,1,.8.58l5.55,14.83a1.06,1.06,0,0,1,0,.21.5.5,0,0,1-.14.35.44.44,0,0,1-.32.13H71a.7.7,0,0,1-.46-.13.69.69,0,0,1-.21-.3l-1.08-2.81H62.46l-1.08,2.81a.67.67,0,0,1-.67.43ZM68.49,27l-2.63-7.11L63.26,27ZM76.2,32.9a.53.53,0,0,1-.39-.16.51.51,0,0,1-.16-.39v-15a.64.64,0,0,1,.13-.42.61.61,0,0,1,.42-.16H78a.61.61,0,0,1,.41.12.88.88,0,0,1,.26.25l6.62,10.31V17.38A.64.64,0,0,1,85.4,17a.58.58,0,0,1,.41-.16h1.94a.6.6,0,0,1,.41.16.57.57,0,0,1,.16.42v15a.55.55,0,0,1-.55.57H86a.8.8,0,0,1-.66-.36l-6.6-10.08v9.89a.57.57,0,0,1-.17.42.59.59,0,0,1-.41.13Zm19.8,0a.53.53,0,0,1-.39-.16.55.55,0,0,1-.16-.39V19.63H91.2a.5.5,0,0,1-.39-.16.54.54,0,0,1-.17-.39v-1.7a.64.64,0,0,1,.14-.42.61.61,0,0,1,.42-.16h11.73a.58.58,0,0,1,.41.16.57.57,0,0,1,.16.42v1.7a.53.53,0,0,1-.16.39.54.54,0,0,1-.41.16H98.7V32.35a.52.52,0,0,1-.17.39.53.53,0,0,1-.41.16Zm10.39,0a.5.5,0,0,1-.39-.16.51.51,0,0,1-.16-.39v-15A.5.5,0,0,1,106,17a.53.53,0,0,1,.39-.16h2.16a.55.55,0,0,1,.55.55v15a.51.51,0,0,1-.16.39.47.47,0,0,1-.39.16Z" transform="translate(-4.72 -1.61)"/><path class="cls-6" d="M113.26,32.9a.53.53,0,0,1-.39-.16.51.51,0,0,1-.16-.39v-15a.64.64,0,0,1,.14-.42.58.58,0,0,1,.41-.16h6.17a6.61,6.61,0,0,1,4.34,1.31,4.61,4.61,0,0,1,1.59,3.8,4.58,4.58,0,0,1-1.59,3.79A6.68,6.68,0,0,1,119.43,27H116v5.38a.51.51,0,0,1-.16.39.47.47,0,0,1-.39.16Zm6-8.48a3,3,0,0,0,2-.63,2.4,2.4,0,0,0,.71-1.88,2.45,2.45,0,0,0-.69-1.86,2.81,2.81,0,0,0-2.07-.69H116v5.06Zm9.11,8.48a.53.53,0,0,1-.39-.16.55.55,0,0,1-.16-.39v-15A.53.53,0,0,1,128,17a.57.57,0,0,1,.39-.16h2.14a.56.56,0,0,1,.56.55V30.17h7.29a.54.54,0,0,1,.41.16.53.53,0,0,1,.16.41v1.61a.57.57,0,0,1-.16.42.61.61,0,0,1-.41.13Zm11.81,0a.53.53,0,0,1-.35-.13.5.5,0,0,1-.14-.35l0-.21,5.54-14.83a.75.75,0,0,1,.81-.58h2.5a.79.79,0,0,1,.81.58L155,32.21a.58.58,0,0,1,0,.21.5.5,0,0,1-.14.35.44.44,0,0,1-.32.13h-2a.72.72,0,0,1-.46-.13.75.75,0,0,1-.2-.3l-1.08-2.81H144l-1.08,2.81a.65.65,0,0,1-.66.43ZM150,27l-2.62-7.11L144.78,27Zm13.11,6.11a7,7,0,0,1-4.93-1.63A6.32,6.32,0,0,1,156.32,27c0-.45,0-1.16,0-2.14s0-1.7,0-2.14a6,6,0,0,1,1.89-4.46,7,7,0,0,1,4.9-1.64,8.39,8.39,0,0,1,3.63.72,5.76,5.76,0,0,1,2.3,1.79,3.8,3.8,0,0,1,.83,2.09v0a.45.45,0,0,1-.14.32.51.51,0,0,1-.35.12H167a.77.77,0,0,1-.35-.07.72.72,0,0,1-.21-.3,3.2,3.2,0,0,0-1.12-1.45,4.22,4.22,0,0,0-4.77.25,3.82,3.82,0,0,0-1,2.69c0,.45,0,1.12,0,2s0,1.56,0,2q.13,3.66,3.54,3.66a3.78,3.78,0,0,0,2.62-.88,3.37,3.37,0,0,0,1-2.64v-.71H164a.61.61,0,0,1-.42-.16.64.64,0,0,1-.14-.42V24.46a.62.62,0,0,1,.14-.41.57.57,0,0,1,.42-.16h5.49a.47.47,0,0,1,.39.16.55.55,0,0,1,.17.41v2.42a6.35,6.35,0,0,1-.86,3.33,5.4,5.4,0,0,1-2.39,2.16A8.21,8.21,0,0,1,163.11,33.13Zm10.4-.23a.54.54,0,0,1-.4-.16.55.55,0,0,1-.16-.39v-15a.53.53,0,0,1,.16-.39.58.58,0,0,1,.4-.16h2.16a.55.55,0,0,1,.55.55v15a.51.51,0,0,1-.16.39.47.47,0,0,1-.39.16Zm5.33,0a.54.54,0,0,1-.35-.13.49.49,0,0,1-.13-.35l0-.21L184,17.38a.73.73,0,0,1,.8-.58h2.51a.78.78,0,0,1,.8.58l5.55,14.83a1.06,1.06,0,0,1,0,.21.5.5,0,0,1-.14.35.44.44,0,0,1-.32.13h-2a.63.63,0,0,1-.67-.43l-1.08-2.81h-6.83l-1.08,2.81a.67.67,0,0,1-.67.43ZM188.61,27,186,19.91,183.39,27Zm9.58,5.88a.54.54,0,0,1-.4-.16.55.55,0,0,1-.16-.39V19.63h-4.25a.5.5,0,0,1-.39-.16.53.53,0,0,1-.16-.39v-1.7A.64.64,0,0,1,193,17a.61.61,0,0,1,.42-.16h11.73a.55.55,0,0,1,.57.58v1.7a.55.55,0,0,1-.57.55h-4.23V32.35a.55.55,0,0,1-.16.39.57.57,0,0,1-.42.16Z" transform="translate(-4.72 -1.61)"/></svg>