<?xml version="1.0" encoding="utf-8"?>
<!-- Generator: Adobe Illustrator 16.0.0, SVG Export Plug-In . SVG Version: 6.00 Build 0)  -->
<!DOCTYPE svg PUBLIC "-//W3C//DTD SVG 1.1//EN" "http://www.w3.org/Graphics/SVG/1.1/DTD/svg11.dtd">
<svg version="1.1" id="Layer_1" xmlns="http://www.w3.org/2000/svg" xmlns:xlink="http://www.w3.org/1999/xlink" x="0px" y="0px"
	 width="32px" height="32px" viewBox="300 382 32 32" enable-background="new 300 382 32 32" xml:space="preserve">
<path fill="#2E4453" d="M316,382c-8.8,0-16,7.2-16,16s7.2,16,16,16s16-7.2,16-16S324.8,382,316,382z M316,412c-7.8,0-14-6.4-14-14
	c0-7.6,6.2-14,14-14s14,6.2,14,14S323.8,412,316,412z M314.6,407h2.601v-2.6H314.6V407z M316,389c-1.4,0-2.6,0.4-3.6,1.2
	c-1,0.8-1.4,2.4-1.4,3.6l0,0h2.2c0-0.8,0.2-2,0.8-2.4s1.2-0.6,1.8-0.6c0.8,0,1.601,0.2,2,0.6c0.4,0.4,0.601,1.2,0.601,2
	c0,0.8-0.2,1.4-0.601,1.8c-0.399,0.6-1,1.2-1.8,2.2c-0.8,0.8-1.4,1.399-1.6,1.8c-0.2,0.399-0.2,1.2-0.4,2.399h2.4
	c0-0.8,0-1.199,0.199-1.6c0-0.4,0.4-0.8,0.801-1.2c1-1,1.8-1.8,2.199-2.6c0.601-0.8,0.801-1.8,0.801-2.8c0-1.4-0.4-2.6-1.4-3.4
	C318.8,389.4,317.6,389,316,389z"/>
</svg>
