<?xml version="1.0" encoding="utf-8"?>
<!-- Generator: Adobe Illustrator 19.1.0, SVG Export Plug-In . SVG Version: 6.00 Build 0)  -->
<svg version="1.1" id="Layer_1" xmlns="http://www.w3.org/2000/svg" xmlns:xlink="http://www.w3.org/1999/xlink" x="0px" y="0px"
	 viewBox="4 8 24 24" style="enable-background:new 4 8 24 24;" xml:space="preserve">
<style type="text/css">
	.st0{fill-rule:evenodd;clip-rule:evenodd;fill:#B14113;}
</style>
<path class="st0" d="M17.4,20l4.2,4.2c0.4,0.4,0.4,1,0,1.4c-0.4,0.4-1,0.4-1.4,0L16,21.4l-4.2,4.2c-0.4,0.4-1,0.4-1.4,0
	c-0.4-0.4-0.4-1,0-1.4l4.2-4.2l-4.2-4.2c-0.4-0.4-0.4-1,0-1.4s1-0.4,1.4,0l4.2,4.2l4.2-4.2c0.4-0.4,1-0.4,1.4,0c0.4,0.4,0.4,1,0,1.4
	L17.4,20z"/>
</svg>
