<?xml version="1.0" encoding="utf-8"?>
<!-- Generator: Adobe Illustrator 20.1.0, SVG Export Plug-In . SVG Version: 6.00 Build 0)  -->
<svg version="1.1" id="Layer_1" xmlns="http://www.w3.org/2000/svg" xmlns:xlink="http://www.w3.org/1999/xlink" x="0px" y="0px"
	 viewBox="0 0 14 14" style="enable-background:new 0 0 14 14;" xml:space="preserve">
<style type="text/css">
	.st0{fill:#1E73B7;}
</style>
<g>
	<path class="st0" d="M11.4,4.3c-0.1-0.1-0.5-0.1-0.6,0c-0.1,0.1-0.1,0.5,0,0.6l1.6,1.6H3.9C3.6,6.5,3.4,6.7,3.4,7
		c0,0.2,0.2,0.5,0.5,0.5h8.4L10.6,9c-0.1,0.1-0.1,0.3,0.1,0.6c0.1,0.1,0.2,0.1,0.4,0.1c0.1,0,0.2,0,0.3-0.1L14,7L11.4,4.3z"/>
	<path class="st0" d="M7,12.5c0,0.3-0.2,0.6-0.6,0.6h-2H3H1.4c-0.4,0-0.6-0.2-0.6-0.6v-11c0-0.3,0.2-0.6,0.6-0.6h1.7h1.4h1.9
		C6.8,0.9,7,1.1,7,1.5v3.3h0.9V0.9C7.9,0.5,7.5,0,7,0H5.2H3.8h-3C0.4,0.1,0,0.6,0,1v12c0,0.5,0.4,1,0.9,1h1.5h1.4H7
		c0.5,0,0.9-0.3,0.9-0.9V9.2H7V12.5z"/>
</g>
</svg>
